<REAPER_PROJECT 0.1 "6.14/x64" 1613252570
  RIPPLE 0
  GROUPOVERRIDE 0 0 0
  AUTOXFADE 1
  ENVATTACH 1
  POOLEDENVATTACH 0
  MIXERUIFLAGS 11 48
  PEAKGAIN 1
  FEEDBACK 0
  PANLAW 1
  PROJOFFS 0 0 0
  MAXPROJLEN 0 600
  GRID 3199 8 1 8 1 0 0 0
  TIMEMODE 1 5 -1 30 0 0 -1
  VIDEO_CONFIG 0 0 256
  PANMODE 3
  CURSOR 99.83114568812177
  ZOOM 9.13579078940043 0 0
  VZOOMEX 6 0
  USE_REC_CFG 0
  RECMODE 1
  SMPTESYNC 0 30 100 40 1000 300 0 0 1 0 0
  LOOP 0
  LOOPGRAN 0 4
  RECORD_PATH "" ""
  <RECORD_CFG
  >
  <APPLYFX_CFG
  >
  RENDER_FILE "C:\Users\Administrator\Documents\REAPER Media\prog-song.mp3"
  RENDER_FMT 0 2 44100
  RENDER_1X 0
  RENDER_RANGE 1 0 0 18 1000
  RENDER_RESAMPLE 3 0 1
  RENDER_ADDTOPROJ 0
  RENDER_STEMS 0
  RENDER_DITHER 0
  TIMELOCKMODE 1
  TEMPOENVLOCKMODE 1
  ITEMMIX 0
  DEFPITCHMODE 589824 0
  TAKELANE 1
  SAMPLERATE 44100 0 0
  <RENDER_CFG
    bDNwbUABAAAAAAAAAgAAAP////8EAAAAQAEAAAAAAAA=
  >
  LOCK 1
  <METRONOME 7 2
    VOL 1.771389 1.84596
    FREQ 800 1600 1
    BEATLEN 4
    SAMPLES "" ""
    PATTERN 2863311530 2863311529
  >
  GLOBAL_AUTO -1
  TEMPO 120 7 4
  PLAYRATE 1 0 0.25 4
  SELECTION 148 0
  SELECTION2 148 0
  MASTERAUTOMODE 0
  MASTERTRACKHEIGHT 0 0
  MASTERPEAKCOL 16576
  MASTERMUTESOLO 0
  MASTERTRACKVIEW 0 0.6667 0.5 0.5 -1 -1 -1 0 0 0 -1 -1 0
  MASTERHWOUT 0 0 1 0 0 0 0 -1
  MASTER_NCH 2 2
  MASTER_VOLUME 1 0 -1 -1 1
  MASTER_FX 1
  MASTER_SEL 0
  <MASTERPLAYSPEEDENV
    EGUID {0D585D6D-E947-4551-A61F-FF8E1563089D}
    ACT 0 -1
    VIS 0 1 1
    LANEHEIGHT 0 0
    ARM 0
    DEFSHAPE 0 -1 -1
  >
  <TEMPOENVEX
    EGUID {3B977D71-04DA-4041-B99B-8D78A5BE0EDD}
    ACT 1 -1
    VIS 1 0 1
    LANEHEIGHT 0 0
    ARM 0
    DEFSHAPE 1 -1 -1
    PT 0.000000000000 120.0000000000 1 262148 0 1
    PT 4.000000000000 120.0000000000 1 262151 0 1
    PT 46.000000000000 120.0000000000 1 262148 0 1
    PT 78.000000000000 120.0000000000 1 262151 0 1
    PT 92.000000000000 120.0000000000 1 262148 0 1
  >
  <PROJBAY
  >
  <TRACK {EAC48AFC-6AC8-409C-88EC-89C935103B4A}
    NAME "Variation 03"
    PEAKCOL 16576
    BEAT -1
    AUTOMODE 0
    VOLPAN 1 0 -1 -1 1
    MUTESOLO 0 0 0
    IPHASE 0
    PLAYOFFS 0 1
    ISBUS 0 0
    BUSCOMP 0 0 0 0 0
    SHOWINMIX 1 0.6667 0.5 1 0.5 -1 -1 -1
    FREEMODE 0
    SEL 1
    REC 0 0 1 0 0 0 0
    VU 2
    TRACKHEIGHT 0 0 0 0 -1 0
    INQ 0 0 0 0.5 100 0 0 100
    NCHAN 2
    FX 1
    TRACKID {EAC48AFC-6AC8-409C-88EC-89C935103B4A}
    PERF 0
    MIDIOUT -1
    <MIDINOTENAMES
      -1 36 "bass drum" 0 36
      -1 38 snare 0 38
      -1 40 "nare 2" 0 40
      -1 41 "fl tom 2" 0 41
      -1 43 "fl tom 1" 0 43
      -1 45 "rack 3" 0 45
      -1 47 "rack 2" 0 47
      -1 48 "rack 1" 0 48
      -1 50 "cymbal choke" 0 50
      -1 52 "crash 2" 0 52
      -1 53 bell 0 53
      -1 55 "Crash 1" 0 55
      -1 57 "Crash 0" 0 57
      -1 59 "main crash" 0 59
      -1 60 "open hihat" 0 60
      -1 62 "closed hihat" 0 62
    >
    MAINSEND 1 0
    <FXCHAIN
      WNDRECT 348 92 655 408
      SHOW 0
      LASTSEL 0
      DOCKED 0
      BYPASS 0 0 0
      <VST "VSTi: EZdrummer (Toontrack) (32 out)" EZdrummer.dll 0 "" 1684432997<56535464666865657A6472756D6D6572> ""
        ZWhmZO5e7f4AAAAAIAAAAAEAAAAAAAAAAgAAAAAAAAAEAAAAAAAAAAgAAAAAAAAAEAAAAAAAAAAgAAAAAAAAAEAAAAAAAAAAgAAAAAAAAAAAAQAAAAAAAAACAAAAAAAA
        AAQAAAAAAAAACAAAAAAAAAAQAAAAAAAAACAAAAAAAAAAQAAAAAAAAACAAAAAAAAAAAABAAAAAAAAAAIAAAAAAAAABAAAAAAAAAAIAAAAAAAAABAAAAAAAAAAIAAAAAAA
        AABAAAAAAAAAAIAAAAAAAAAAAAEAAAAAAAAAAgAAAAAAAAAEAAAAAAAAAAgAAAAAAAAAEAAAAAAAAAAgAAAAAAAAAEAAAAAAAAAAgAAAAAAYDAAAAQAAAAkAEAA=
        dmVyc2lvbiAxCkVaWCAiRVpYMl9FWmRydW1tZXIyX01vZGVybiIKaHVtYW5pemUgMQpwb3MgIktpY2siICIxODIyR01TIgpwb3MgIlNuYXJlIiAiMTNHTVMiCnBvcyAi
        SGF0cyIgIjE0SEhYIgpwb3MgIlRvbTEiICIxMEdNUzEiCnBvcyAiVG9tMiIgIjEyR01TMSIKcG9zICJUb20zIiAiMTRHTVMxIgpwb3MgIlRvbTQiICIxNkdNUzEiCnBv
        cyAiVG9tNSIgIjE4R01TMSIKcG9zICJSaWRlNCIgIjIxUmlkZVZpbnRhZ2UiCnBvcyAiQ3Jhc2gxIiAiMTlTYWJpYW4xIgpwb3MgIkNyYXNoMiIgIjE4U2FiaWFuMiIK
        cG9zICJDcmFzaDMiICIxOFNhYmlhbjMiCnBvcyAiQ3Jhc2g0IiAiMThTYWJpYW41IgptaXhlciB7CmJ1c3MgMCB7CnBhbiAwLjUKdm9sdW1lIDAuNzA3OTQ3CnBoYXNl
        cmV2ZXJzZSAwCnNvbG8gMAptdXRlIDAKcm91dGUgMAp9CmJ1c3MgMSB7CnBhbiAwLjUKdm9sdW1lIDAuNzA3OTQ3CnBoYXNlcmV2ZXJzZSAwCnNvbG8gMAptdXRlIDAK
        cm91dGUgMAp9CmJ1c3MgMiB7CnBhbiAwLjUKdm9sdW1lIDAuNzA3OTQ3CnBoYXNlcmV2ZXJzZSAwCnNvbG8gMAptdXRlIDAKcm91dGUgMAp9CmJ1c3MgMyB7CnBhbiAw
        LjUKdm9sdW1lIDAuNzA3OTQ3CnBoYXNlcmV2ZXJzZSAwCnNvbG8gMAptdXRlIDAKcm91dGUgMAp9CmJ1c3MgNCB7CnBhbiAwLjM3NQp2b2x1bWUgMC4zNTQ4MTQKcGhh
        c2VyZXZlcnNlIDAKc29sbyAwCm11dGUgMApyb3V0ZSAwCn0KYnVzcyA1IHsKcGFuIDAuMzc1CnZvbHVtZSAwLjM1NDgxNApwaGFzZXJldmVyc2UgMApzb2xvIDAKbXV0
        ZSAwCnJvdXRlIDAKfQpidXNzIDYgewpwYW4gMAp2b2x1bWUgMQpwaGFzZXJldmVyc2UgMApzb2xvIDAKbXV0ZSAwCnJvdXRlIDAKfQpidXNzIDcgewpwYW4gMQp2b2x1
        bWUgMQpwaGFzZXJldmVyc2UgMApzb2xvIDAKbXV0ZSAwCnJvdXRlIDAKfQpidXNzIDggewpwYW4gMAp2b2x1bWUgMC42MzA5NTgKcGhhc2VyZXZlcnNlIDAKc29sbyAw
        Cm11dGUgMApyb3V0ZSAwCn0KYnVzcyA5IHsKcGFuIDEKdm9sdW1lIDAuNjMwOTU4CnBoYXNlcmV2ZXJzZSAwCnNvbG8gMAptdXRlIDAKcm91dGUgMAp9CmJ1c3MgMTAg
        ewpwYW4gMAp2b2x1bWUgMC4zNDU1MTEKcGhhc2VyZXZlcnNlIDAKc29sbyAwCm11dGUgMApyb3V0ZSAwCn0KYnVzcyAxMSB7CnBhbiAxCnZvbHVtZSAwLjM0NTUxMQpw
        aGFzZXJldmVyc2UgMApzb2xvIDAKbXV0ZSAwCnJvdXRlIDAKfQpidXNzIDEyIHsKcGFuIDAKdm9sdW1lIDAuNDc1MjUxCnBoYXNlcmV2ZXJzZSAwCnNvbG8gMAptdXRl
        IDAKcm91dGUgMAp9CmJ1c3MgMTMgewpwYW4gMQp2b2x1bWUgMC40NzUyNTEKcGhhc2VyZXZlcnNlIDAKc29sbyAwCm11dGUgMApyb3V0ZSAwCn0KYnVzcyAxNCB7CnBh
        biAwCnZvbHVtZSAwLjE4MjYxNgpwaGFzZXJldmVyc2UgMApzb2xvIDAKbXV0ZSAwCnJvdXRlIDAKfQpidXNzIDE1IHsKcGFuIDEKdm9sdW1lIDAuMTgyNjE2CnBoYXNl
        cmV2ZXJzZSAwCnNvbG8gMAptdXRlIDAKcm91dGUgMAp9CmJ1c3MgMTYgewpwYW4gMC41CnZvbHVtZSAwLjcwNzk0NwpwaGFzZXJldmVyc2UgMApzb2xvIDAKbXV0ZSAw
        CnJvdXRlIDAKfQpidXNzIDE3IHsKcGFuIDAuNQp2b2x1bWUgMC43MDc5NDcKcGhhc2VyZXZlcnNlIDAKc29sbyAwCm11dGUgMApyb3V0ZSAwCn0KYnVzcyAxOCB7CnBh
        biAwLjEzODg4OQp2b2x1bWUgMC42MzA5NTgKcGhhc2VyZXZlcnNlIDAKc29sbyAwCm11dGUgMApyb3V0ZSAwCn0KYnVzcyAxOSB7CnBhbiAwLjEzODg4OQp2b2x1bWUg
        MC42MzA5NTgKcGhhc2VyZXZlcnNlIDAKc29sbyAwCm11dGUgMApyb3V0ZSAwCn0KYnVzcyAyMCB7CnBhbiAwLjgzMzMzMwp2b2x1bWUgMC42MzA5NTgKcGhhc2VyZXZl
        cnNlIDAKc29sbyAwCm11dGUgMApyb3V0ZSAwCn0KYnVzcyAyMSB7CnBhbiAwLjgzMzMzMwp2b2x1bWUgMC42MzA5NTgKcGhhc2VyZXZlcnNlIDAKc29sbyAwCm11dGUg
        MApyb3V0ZSAwCn0KYnVzcyAyMiB7CnBhbiAwCnZvbHVtZSAwLjI3OTM1MwpwaGFzZXJldmVyc2UgMApzb2xvIDAKbXV0ZSAwCnJvdXRlIDAKfQpidXNzIDIzIHsKcGFu
        IDEKdm9sdW1lIDAuMjc5MzUzCnBoYXNlcmV2ZXJzZSAwCnNvbG8gMAptdXRlIDAKcm91dGUgMAp9Cn0KRVoxc3R1ZmZFTkQgewp9CnNhbXBsZXIgewptYXN0ZXJ2b2wg
        MQpyZXZlcnNlIDAKcHJlc2V0ICJCYXNpYyIKa25vYiAwIDAuNDg1MTQ5Cmtub2IgMSAwLjUwNDk1MQprbm9iIDIgMC41Cmtub2IgMyAwLjUKa25vYiA0IDEKa25vYiA1
        IDEKZHJ1bXByb3BzIHsKIlhQZXJjLTAiIHggIkVaWFBfRVpkcnVtbWVyMl9QZXJjdXNzaW9uIiAiT25lc2hvdCIgIkNsYXBzMiIKIlhQZXJjLTEiIHggIkVaWFBfRVpk
        cnVtbWVyMl9QZXJjdXNzaW9uIiAiU2hha2VyIiAiU2hha2VyMSIKIlhQZXJjLTIiIHggIkVaWFBfRVpkcnVtbWVyMl9QZXJjdXNzaW9uIiAiVGFtYm91cmluZSIgIlRh
        bWIxIgp9Cn0KZWRydW0gbm9uZSBub25lCm1pZGlsZWFybiB7Cn0KRWRpdG9yIHsgClNvbmdUcmFjayB7ClZpc2libGVBcmVhIDAgNjUKVHJhY2tOYW1lICIiCkNsZWFy
        VHJhY2tGaXJzdApUaW1lU2lnIDQgNApHcmlkUmVzIDMyCkxvb3BBcmVhIDAgMApMb29wQWN0aXZlIDAKfQpWaXNpYmxlUmVzdWx0Q29sdW1ucyAxNiwyOCwwLDA7MTcs
        MjgsMCwwOzAsMTg1LDAsMDsxMSwyMDAsMCwwOzQsMTUwLDAsMDs2LDEzMCwwLDA7Nyw0NSwwLDA7OCw0NSwwLDA7Myw0NSwwLDA7ClZpc2libGVGaWx0ZXJDb2x1bW5z
        IDQ7Nzs1OzE7NTsyOzY7MjsKQnJvd3NlckhlaWdodCAxNjYKU2VsZWN0ZWRUYWdzICwwLDAsMCwwLDAsMCwwLDAsMCwwLDAsMCwwLDAsMCwwLDAsMCwwLDAsMCwwLDAs
        MCwwLDAsMCwwLDAsMCwwLDAsMCwwLDAsMCwwLDAsMCwwLDAsMCwwLDAsMCwwLDAsMCwwLDAsMCwwLDAsMCwwLDAsMCwwLDAsMCwwLDAsMCwwLDAsMCwwLDAsMCwwLDAs
        MCwwLDAKU2VsZWN0ZWRGaWxlIApTZWxlY3RlZEJyb3dzZXJQYXRoICIiCkJyb3dzZXJJbnRlbnNpdHkgMDszMzswOzUzOwpDbGVhclRhcDJGaW5kCkJyb3dzZXJJc0Zh
        dm9yaXRlIDAKUHJldmlld0luT3JpZ2luYWxUZW1wbyAwCkNsZWFyU29uZ0NyZWF0b3IgMApWaXNpYmxlVGFiIDEKfQpTeW5jVG9Ib3N0IDEgMTIwCk1pZGlPdXRFbmFi
        bGVkIDAKTWlkaUluQ2hhbm5lbCAtMQoA
        AAAQAAAA
      >
      FLOATPOS 0 0 0 0
      FXID {B821E97A-8426-4611-8E00-FB04BBD61070}
      WAK 0 0
    >
    <ITEM
      POSITION 0
      SNAPOFFS 0
      LENGTH 2
      LOOP 1
      ALLTAKES 0
      FADEIN 1 0 0 1 0 0
      FADEOUT 1 0 0 1 0 0
      MUTE 0 0
      COLOR 28019170 R
      SEL 0
      IGUID {D1506234-E219-43B0-9F00-69F055D3C705}
      IID 2
      NAME "Variation 03 - Variation_03.mid"
      VOLPAN 1 0 1 -1
      SOFFS 0 0
      PLAYRATE 1 1 0 -1 0 0.0025
      CHANMODE 0
      GUID {16D7FED7-A221-422D-BB51-934CE4DE1266}
      <SOURCE MIDI
        HASDATA 1 960 QN
        CCINTERP 32
        POOLEDEVTS {4F28CB58-EF9B-4D9E-A7AE-EBFC9FBB4C1D}
        <X 0 0 0 0 3 "Variation 03"
          /wNWYXJpYXRpb24gMDM=
        >
        E 0 90 3e 60
        E 120 80 3e 00
        E 840 90 3e 60
        E 120 80 3e 00
        E 840 90 3e 60
        E 120 80 3e 00
        e 840 90 3e 60
        e 120 80 3e 00
        E 4688 90 3e 2f
        E 120 90 3e 00
        E 339 90 24 5d
        E 19 90 3e 23
        E 102 90 24 00
        E 19 90 3e 00
        E 99 90 26 0d
        E 121 90 26 00
        E 6 90 26 12
        E 120 90 26 00
        E 1 90 24 6b
        E 24 90 3e 51
        E 97 90 24 00
        E 23 90 3e 00
        E 347 90 3e 1f
        E 120 90 3e 00
        E 120 90 26 16
        E 121 90 26 00
        E 122 90 3e 45
        E 121 90 3e 00
        E 356 90 26 78
        E 14 90 3e 76
        E 106 90 26 00
        E 14 90 3e 00
        E 97 90 26 38
        E 120 90 26 00
        E 140 90 3e 24
        E 120 90 3e 00
        E 357 90 3e 2a
        E 2 90 24 49
        E 118 90 3e 00
        E 3 90 24 00
        E 344 90 24 73
        E 18 90 3f 54
        E 102 90 24 00
        E 18 90 3f 00
        E 356 90 3e 20
        E 120 90 3e 00
        E 118 90 3e 13
        E 119 90 3e 00
        E 116 90 3f 59
        E 120 90 3f 00
        E 344 90 26 79
        E 11 90 3e 72
        E 109 90 26 00
        E 11 90 3e 00
        E 356 90 3f 2d
        E 120 90 3f 00
        E 341 90 24 5a
        E 14 90 3f 3b
        E 106 90 24 00
        E 14 90 3f 00
        E 361 90 24 74
        E 14 90 3f 4f
        E 106 90 24 00
        E 14 90 3f 00
        E 355 90 3e 2b
        E 120 90 3e 00
        E 124 90 26 18
        E 120 90 26 00
        E 114 90 3f 46
        E 119 90 3f 00
        E 361 90 26 79
        E 9 90 3f 74
        E 111 90 26 00
        E 9 90 3f 00
        E 358 90 3f 27
        E 120 90 3f 00
        E 353 90 26 30
        E 3 90 1a 76
        E 117 90 26 00
        E 3 90 1a 00
        E 356 90 24 74
        E 14 90 3f 3a
        E 106 90 24 00
        E 14 90 3f 00
        E 354 90 3e 2a
        E 120 90 3e 00
        E 124 90 3e 1c
        E 120 90 3e 00
        E 107 90 3f 40
        E 120 90 3f 00
        E 135 90 26 07
        E 120 90 26 00
        E 107 90 26 77
        E 12 90 3e 78
        E 108 90 26 00
        E 12 90 3e 00
        E 93 90 26 2d
        E 120 90 26 00
        E 127 90 3f 2d
        E 120 90 3f 00
        E 362 90 24 5d
        E 10 90 3f 37
        E 110 90 24 00
        E 10 90 3f 00
        E 120 90 26 12
        E 120 90 26 00
        E 101 90 24 76
        E 20 90 3e 49
        E 100 90 24 00
        E 20 90 3e 00
        E 359 90 3e 2a
        E 121 90 3e 00
        E 123 90 3f 22
        E 120 90 3f 00
        E 116 90 3e 56
        E 120 90 3e 00
        E 350 90 26 7c
        E 8 90 3e 74
        E 112 90 26 00
        E 8 90 3e 00
        E 355 90 26 40
        E 15 90 19 49
        E 105 90 26 00
        E 15 90 19 00
        E 827 b0 7b 00
        CCINTERP 32
        CHASE_CC_TAKEOFFS 1
        GUID {B0E45400-B4DF-4198-AB32-B66C174737D8}
        IGNTEMPO 0 120 4 4
        SRCCOLOR 1
        VELLANE -1 100 0
        CFGEDITVIEW -235.900249 0.168557 62 12 0 -1 0 0 0 0.5
        KEYSNAP 0
        TRACKSEL 0
        EVTFILTER 0 -1 -1 -1 -1 0 0 0 0 -1 -1 -1 -1 0 -1 0 -1 -1
        CFGEDIT 1 1 0 1 0 16 1 1 1 1 1 0.125 90 53 1854 760 0 0 0 0 0 0 0 1 0 0.5 0 0 1 64
      >
    >
    <ITEM
      POSITION 2
      SNAPOFFS 0
      LENGTH 2
      LOOP 1
      ALLTAKES 0
      FADEIN 1 0 0 1 0 0
      FADEOUT 1 0 0 1 0 0
      MUTE 0 0
      COLOR 28019170 R
      SEL 0
      IGUID {02CF9770-FD84-4B07-88E0-CAF1BF987F36}
      IID 2
      NAME "Variation 03 - Variation_03.mid"
      VOLPAN 1 0 1 -1
      SOFFS 0 0
      PLAYRATE 1 1 0 -1 0 0.0025
      CHANMODE 0
      GUID {B4C4D59F-B3DD-47B5-B688-36272B074CF2}
      <SOURCE MIDI
        HASDATA 1 960 QN
        CCINTERP 32
        POOLEDEVTS {23F20181-E658-4EEF-A2B0-87EA29623F9B}
        <X 0 0 0 0 3 "Variation 03"
          /wNWYXJpYXRpb24gMDM=
        >
        E 0 90 3e 60
        E 120 80 3e 00
        E 840 90 3e 60
        E 120 80 3e 00
        E 840 90 3e 60
        E 120 80 3e 00
        e 840 90 3e 60
        e 120 80 3e 00
        E 4688 90 3e 2f
        E 120 90 3e 00
        E 339 90 24 5d
        E 19 90 3e 23
        E 102 90 24 00
        E 19 90 3e 00
        E 99 90 26 0d
        E 121 90 26 00
        E 6 90 26 12
        E 120 90 26 00
        E 1 90 24 6b
        E 24 90 3e 51
        E 97 90 24 00
        E 23 90 3e 00
        E 347 90 3e 1f
        E 120 90 3e 00
        E 120 90 26 16
        E 121 90 26 00
        E 122 90 3e 45
        E 121 90 3e 00
        E 356 90 26 78
        E 14 90 3e 76
        E 106 90 26 00
        E 14 90 3e 00
        E 97 90 26 38
        E 120 90 26 00
        E 140 90 3e 24
        E 120 90 3e 00
        E 357 90 3e 2a
        E 2 90 24 49
        E 118 90 3e 00
        E 3 90 24 00
        E 344 90 24 73
        E 18 90 3f 54
        E 102 90 24 00
        E 18 90 3f 00
        E 356 90 3e 20
        E 120 90 3e 00
        E 118 90 3e 13
        E 119 90 3e 00
        E 116 90 3f 59
        E 120 90 3f 00
        E 344 90 26 79
        E 11 90 3e 72
        E 109 90 26 00
        E 11 90 3e 00
        E 356 90 3f 2d
        E 120 90 3f 00
        E 341 90 24 5a
        E 14 90 3f 3b
        E 106 90 24 00
        E 14 90 3f 00
        E 361 90 24 74
        E 14 90 3f 4f
        E 106 90 24 00
        E 14 90 3f 00
        E 355 90 3e 2b
        E 120 90 3e 00
        E 124 90 26 18
        E 120 90 26 00
        E 114 90 3f 46
        E 119 90 3f 00
        E 361 90 26 79
        E 9 90 3f 74
        E 111 90 26 00
        E 9 90 3f 00
        E 358 90 3f 27
        E 120 90 3f 00
        E 353 90 26 30
        E 3 90 1a 76
        E 117 90 26 00
        E 3 90 1a 00
        E 356 90 24 74
        E 14 90 3f 3a
        E 106 90 24 00
        E 14 90 3f 00
        E 354 90 3e 2a
        E 120 90 3e 00
        E 124 90 3e 1c
        E 120 90 3e 00
        E 107 90 3f 40
        E 120 90 3f 00
        E 135 90 26 07
        E 120 90 26 00
        E 107 90 26 77
        E 12 90 3e 78
        E 108 90 26 00
        E 12 90 3e 00
        E 93 90 26 2d
        E 120 90 26 00
        E 127 90 3f 2d
        E 120 90 3f 00
        E 362 90 24 5d
        E 10 90 3f 37
        E 110 90 24 00
        E 10 90 3f 00
        E 120 90 26 12
        E 120 90 26 00
        E 101 90 24 76
        E 20 90 3e 49
        E 100 90 24 00
        E 20 90 3e 00
        E 359 90 3e 2a
        E 121 90 3e 00
        E 123 90 3f 22
        E 120 90 3f 00
        E 116 90 3e 56
        E 120 90 3e 00
        E 350 90 26 7c
        E 8 90 3e 74
        E 112 90 26 00
        E 8 90 3e 00
        E 355 90 26 40
        E 15 90 19 49
        E 105 90 26 00
        E 15 90 19 00
        E 827 b0 7b 00
        CCINTERP 32
        CHASE_CC_TAKEOFFS 1
        GUID {B0E45400-B4DF-4198-AB32-B66C174737D8}
        IGNTEMPO 0 120 4 4
        SRCCOLOR 1
        VELLANE -1 100 0
        CFGEDITVIEW -235.900249 0.168557 62 12 0 -1 0 0 0 0.5
        KEYSNAP 0
        TRACKSEL 0
        EVTFILTER 0 -1 -1 -1 -1 0 0 0 0 -1 -1 -1 -1 0 -1 0 -1 -1
        CFGEDIT 1 1 0 1 0 16 1 1 1 1 1 0.125 90 53 1854 760 0 0 0 0 0 0 0 1 0 0.5 0 0 1 64
      >
    >
    <ITEM
      POSITION 4
      SNAPOFFS 0
      LENGTH 3.5
      LOOP 1
      ALLTAKES 0
      FADEIN 1 0 0 1 0 0
      FADEOUT 1 0 0 1 0 0
      MUTE 0 0
      COLOR 18861968 R
      SEL 0
      IGUID {7ACF3E7D-D97D-4B6F-9EA9-E95CC4EB67C9}
      IID 2
      NAME "Variation 03 - Variation_03.mid"
      VOLPAN 1 0 1 -1
      SOFFS 0 0
      PLAYRATE 1 1 0 -1 0 0.0025
      CHANMODE 0
      GUID {01DFDB5D-4688-41AD-819C-341753F0CF47}
      <SOURCE MIDI
        HASDATA 1 960 QN
        CCINTERP 32
        POOLEDEVTS {A99B4C53-98F9-4678-B756-70F85F2EE2C4}
        <X 0 0 0 0 3 "Variation 03"
          /wNWYXJpYXRpb24gMDM=
        >
        E 0 90 24 6c
        E 0 90 34 6c
        E 0 90 39 6c
        E 9 90 15 28
        E 111 80 24 00
        E 0 80 34 00
        E 0 80 39 00
        E 9 90 15 00
        E 831 90 3c 7e
        E 0 90 26 7e
        E 120 80 3c 00
        E 0 80 26 00
        E 360 90 23 7e
        E 0 90 3d 7e
        E 120 80 23 00
        E 0 80 3d 00
        E 360 90 23 7e
        e 0 90 3d 7f
        E 120 80 23 00
        e 0 80 3d 00
        e 360 90 3d 6f
        e 120 80 3d 00
        e 120 90 3d 7f
        e 120 80 3d 00
        E 120 90 26 7e
        E 0 90 3c 3b
        E 120 80 26 00
        E 0 80 3c 00
        E 360 90 23 7e
        E 0 90 3c 7e
        E 120 80 23 00
        E 0 80 3c 00
        E 360 90 3c 41
        E 120 80 3c 00
        E 240 90 23 7e
        E 120 80 23 00
        E 0 90 3d 4f
        E 120 80 3d 00
        E 360 90 26 7e
        E 0 90 3c 7e
        E 120 80 26 00
        E 0 80 3c 00
        E 360 90 23 7e
        E 0 90 3d 62
        E 120 80 23 00
        E 0 80 3d 00
        E 360 90 26 7e
        E 0 90 3c 7e
        E 120 80 26 00
        E 0 80 3c 00
        E 240 90 3e 7e
        E 120 80 3e 00
        E 0 90 24 7e
        E 0 90 39 7e
        E 0 90 37 7e
        E 120 80 24 00
        E 0 80 39 00
        E 0 80 37 00
        E 0 90 3e 7e
        E 120 80 3e 00
        E 1208 90 3e 2f
        E 120 90 3e 00
        E 339 90 24 5d
        E 19 90 3e 23
        E 102 90 24 00
        E 19 90 3e 00
        E 99 90 26 0d
        E 121 90 26 00
        E 6 90 26 12
        E 120 90 26 00
        E 1 90 24 6b
        E 24 90 3e 51
        E 97 90 24 00
        E 23 90 3e 00
        E 347 90 3e 1f
        E 120 90 3e 00
        E 120 90 26 16
        E 121 90 26 00
        E 122 90 3e 45
        E 121 90 3e 00
        E 356 90 26 78
        E 14 90 3e 76
        E 106 90 26 00
        E 14 90 3e 00
        E 97 90 26 38
        E 120 90 26 00
        E 140 90 3e 24
        E 120 90 3e 00
        E 357 90 3e 2a
        E 2 90 24 49
        E 118 90 3e 00
        E 3 90 24 00
        E 344 90 24 73
        E 18 90 3f 54
        E 102 90 24 00
        E 18 90 3f 00
        E 356 90 3e 20
        E 120 90 3e 00
        E 118 90 3e 13
        E 119 90 3e 00
        E 116 90 3f 59
        E 120 90 3f 00
        E 344 90 26 79
        E 11 90 3e 72
        E 109 90 26 00
        E 11 90 3e 00
        E 356 90 3f 2d
        E 120 90 3f 00
        E 341 90 24 5a
        E 14 90 3f 3b
        E 106 90 24 00
        E 14 90 3f 00
        E 361 90 24 74
        E 14 90 3f 4f
        E 106 90 24 00
        E 14 90 3f 00
        E 355 90 3e 2b
        E 120 90 3e 00
        E 124 90 26 18
        E 120 90 26 00
        E 114 90 3f 46
        E 119 90 3f 00
        E 361 90 26 79
        E 9 90 3f 74
        E 111 90 26 00
        E 9 90 3f 00
        E 358 90 3f 27
        E 120 90 3f 00
        E 353 90 26 30
        E 3 90 1a 76
        E 117 90 26 00
        E 3 90 1a 00
        E 356 90 24 74
        E 14 90 3f 3a
        E 106 90 24 00
        E 14 90 3f 00
        E 354 90 3e 2a
        E 120 90 3e 00
        E 124 90 3e 1c
        E 120 90 3e 00
        E 107 90 3f 40
        E 120 90 3f 00
        E 135 90 26 07
        E 120 90 26 00
        E 107 90 26 77
        E 12 90 3e 78
        E 108 90 26 00
        E 12 90 3e 00
        E 93 90 26 2d
        E 120 90 26 00
        E 127 90 3f 2d
        E 120 90 3f 00
        E 362 90 24 5d
        E 10 90 3f 37
        E 110 90 24 00
        E 10 90 3f 00
        E 120 90 26 12
        E 120 90 26 00
        E 101 90 24 76
        E 20 90 3e 49
        E 100 90 24 00
        E 20 90 3e 00
        E 359 90 3e 2a
        E 121 90 3e 00
        E 123 90 3f 22
        E 120 90 3f 00
        E 116 90 3e 56
        E 120 90 3e 00
        E 350 90 26 7c
        E 8 90 3e 74
        E 112 90 26 00
        E 8 90 3e 00
        E 355 90 26 40
        E 15 90 19 49
        E 105 90 26 00
        E 15 90 19 00
        E 827 b0 7b 00
        CCINTERP 32
        CHASE_CC_TAKEOFFS 1
        GUID {B0E45400-B4DF-4198-AB32-B66C174737D8}
        IGNTEMPO 0 120 4 4
        SRCCOLOR 1
        VELLANE -1 100 0
        CFGEDITVIEW -235.900249 0.168557 62 12 0 -1 0 0 0 0.5
        KEYSNAP 0
        TRACKSEL 0
        EVTFILTER 0 -1 -1 -1 -1 0 0 0 0 -1 -1 -1 -1 0 -1 0 -1 -1
        CFGEDIT 1 1 0 1 0 16 1 1 1 1 1 0.125 90 53 1854 760 0 0 0 0 0 0 0 1 0 0.5 0 0 1 64
      >
    >
    <ITEM
      POSITION 7.5
      SNAPOFFS 0
      LENGTH 3.5
      LOOP 1
      ALLTAKES 0
      FADEIN 1 0 0 1 0 0
      FADEOUT 1 0 0 1 0 0
      MUTE 0 0
      COLOR 18861968 R
      SEL 0
      IGUID {AA29F7F9-1A59-4150-A190-A2347F6D4207}
      IID 2
      NAME "Variation 03 - Variation_03.mid"
      VOLPAN 1 0 1 -1
      SOFFS 0 0
      PLAYRATE 1 1 0 -1 0 0.0025
      CHANMODE 0
      GUID {796320C9-CBED-4E73-BAD2-10A4D62C6D51}
      <SOURCE MIDI
        HASDATA 1 960 QN
        CCINTERP 32
        POOLEDEVTS {CD398DA9-FF86-42B6-B82D-FF57C7CF11A7}
        <X 0 0 0 0 3 "Variation 03"
          /wNWYXJpYXRpb24gMDM=
        >
        E 0 90 24 6c
        E 0 90 34 6c
        E 0 90 39 6c
        E 9 90 15 28
        E 111 80 24 00
        E 0 80 34 00
        E 0 80 39 00
        E 9 90 15 00
        E 831 90 3c 7e
        E 0 90 26 7e
        E 120 80 3c 00
        E 0 80 26 00
        E 360 90 23 7e
        E 0 90 3d 7e
        E 120 80 23 00
        E 0 80 3d 00
        E 360 90 23 7e
        e 0 90 3d 7f
        E 120 80 23 00
        e 0 80 3d 00
        e 360 90 3d 6f
        e 120 80 3d 00
        e 120 90 3d 7f
        e 120 80 3d 00
        E 120 90 26 7e
        E 0 90 3c 3b
        E 120 80 26 00
        E 0 80 3c 00
        E 360 90 23 7e
        E 0 90 3c 7e
        E 120 80 23 00
        E 0 80 3c 00
        E 360 90 3c 41
        E 120 80 3c 00
        E 240 90 23 7e
        E 120 80 23 00
        E 0 90 3d 4f
        E 120 80 3d 00
        E 360 90 26 7e
        E 0 90 3c 7e
        E 120 80 26 00
        E 0 80 3c 00
        E 360 90 23 7e
        E 0 90 3d 62
        E 120 80 23 00
        E 0 80 3d 00
        E 360 90 26 7e
        E 0 90 3c 7e
        E 120 80 26 00
        E 0 80 3c 00
        E 240 90 3e 7e
        E 120 80 3e 00
        E 0 90 24 7e
        E 0 90 39 7e
        E 0 90 37 7e
        E 120 80 24 00
        E 0 80 39 00
        E 0 80 37 00
        E 0 90 3e 7e
        E 120 80 3e 00
        E 1208 90 3e 2f
        E 120 90 3e 00
        E 339 90 24 5d
        E 19 90 3e 23
        E 102 90 24 00
        E 19 90 3e 00
        E 99 90 26 0d
        E 121 90 26 00
        E 6 90 26 12
        E 120 90 26 00
        E 1 90 24 6b
        E 24 90 3e 51
        E 97 90 24 00
        E 23 90 3e 00
        E 347 90 3e 1f
        E 120 90 3e 00
        E 120 90 26 16
        E 121 90 26 00
        E 122 90 3e 45
        E 121 90 3e 00
        E 356 90 26 78
        E 14 90 3e 76
        E 106 90 26 00
        E 14 90 3e 00
        E 97 90 26 38
        E 120 90 26 00
        E 140 90 3e 24
        E 120 90 3e 00
        E 357 90 3e 2a
        E 2 90 24 49
        E 118 90 3e 00
        E 3 90 24 00
        E 344 90 24 73
        E 18 90 3f 54
        E 102 90 24 00
        E 18 90 3f 00
        E 356 90 3e 20
        E 120 90 3e 00
        E 118 90 3e 13
        E 119 90 3e 00
        E 116 90 3f 59
        E 120 90 3f 00
        E 344 90 26 79
        E 11 90 3e 72
        E 109 90 26 00
        E 11 90 3e 00
        E 356 90 3f 2d
        E 120 90 3f 00
        E 341 90 24 5a
        E 14 90 3f 3b
        E 106 90 24 00
        E 14 90 3f 00
        E 361 90 24 74
        E 14 90 3f 4f
        E 106 90 24 00
        E 14 90 3f 00
        E 355 90 3e 2b
        E 120 90 3e 00
        E 124 90 26 18
        E 120 90 26 00
        E 114 90 3f 46
        E 119 90 3f 00
        E 361 90 26 79
        E 9 90 3f 74
        E 111 90 26 00
        E 9 90 3f 00
        E 358 90 3f 27
        E 120 90 3f 00
        E 353 90 26 30
        E 3 90 1a 76
        E 117 90 26 00
        E 3 90 1a 00
        E 356 90 24 74
        E 14 90 3f 3a
        E 106 90 24 00
        E 14 90 3f 00
        E 354 90 3e 2a
        E 120 90 3e 00
        E 124 90 3e 1c
        E 120 90 3e 00
        E 107 90 3f 40
        E 120 90 3f 00
        E 135 90 26 07
        E 120 90 26 00
        E 107 90 26 77
        E 12 90 3e 78
        E 108 90 26 00
        E 12 90 3e 00
        E 93 90 26 2d
        E 120 90 26 00
        E 127 90 3f 2d
        E 120 90 3f 00
        E 362 90 24 5d
        E 10 90 3f 37
        E 110 90 24 00
        E 10 90 3f 00
        E 120 90 26 12
        E 120 90 26 00
        E 101 90 24 76
        E 20 90 3e 49
        E 100 90 24 00
        E 20 90 3e 00
        E 359 90 3e 2a
        E 121 90 3e 00
        E 123 90 3f 22
        E 120 90 3f 00
        E 116 90 3e 56
        E 120 90 3e 00
        E 350 90 26 7c
        E 8 90 3e 74
        E 112 90 26 00
        E 8 90 3e 00
        E 355 90 26 40
        E 15 90 19 49
        E 105 90 26 00
        E 15 90 19 00
        E 827 b0 7b 00
        CCINTERP 32
        CHASE_CC_TAKEOFFS 1
        GUID {B0E45400-B4DF-4198-AB32-B66C174737D8}
        IGNTEMPO 0 120 4 4
        SRCCOLOR 1
        VELLANE -1 100 0
        CFGEDITVIEW -229.782585 0.168557 62 12 0 -1 0 0 0 0.5
        KEYSNAP 0
        TRACKSEL 0
        EVTFILTER 0 -1 -1 -1 -1 0 0 0 0 -1 -1 -1 -1 0 -1 0 -1 -1
        CFGEDIT 1 1 0 1 0 16 1 1 1 1 1 0.125 90 53 1854 760 0 0 0 0 0 0 0 1 0 0.5 0 0 1 64
      >
    >
    <ITEM
      POSITION 11
      SNAPOFFS 0
      LENGTH 3.5
      LOOP 1
      ALLTAKES 0
      FADEIN 1 0 0 1 0 0
      FADEOUT 1 0 0 1 0 0
      MUTE 0 0
      COLOR 18861968 R
      SEL 0
      IGUID {4755A8BE-331C-48B9-9E5D-ECDFEB86358F}
      IID 2
      NAME "Variation 03 - Variation_03.mid"
      VOLPAN 1 0 1 -1
      SOFFS 0 0
      PLAYRATE 1 1 0 -1 0 0.0025
      CHANMODE 0
      GUID {C7C4D2EB-D3CE-4203-AD4B-E706DA6B070F}
      <SOURCE MIDI
        HASDATA 1 960 QN
        CCINTERP 32
        POOLEDEVTS {8198717B-8B66-4362-A3CE-AB6600590456}
        <X 0 0 0 0 3 "Variation 03"
          /wNWYXJpYXRpb24gMDM=
        >
        E 0 90 24 6c
        E 0 90 34 6c
        E 0 90 39 6c
        E 9 90 15 28
        E 111 80 24 00
        E 0 80 34 00
        E 0 80 39 00
        E 9 90 15 00
        E 831 90 3c 7e
        E 0 90 26 7e
        E 120 80 3c 00
        E 0 80 26 00
        E 360 90 23 7e
        E 0 90 3d 7e
        E 120 80 23 00
        E 0 80 3d 00
        E 360 90 23 7e
        e 0 90 3d 7f
        E 120 80 23 00
        e 0 80 3d 00
        e 360 90 3d 6f
        e 120 80 3d 00
        e 120 90 3d 7f
        e 120 80 3d 00
        E 120 90 26 7e
        E 0 90 3c 3b
        E 120 80 26 00
        E 0 80 3c 00
        E 360 90 23 7e
        E 0 90 3c 7e
        E 120 80 23 00
        E 0 80 3c 00
        E 360 90 3c 41
        E 120 80 3c 00
        E 240 90 23 7e
        E 120 80 23 00
        E 0 90 3d 4f
        E 120 80 3d 00
        E 360 90 26 7e
        E 0 90 3c 7e
        E 120 80 26 00
        E 0 80 3c 00
        E 360 90 23 7e
        E 0 90 3d 62
        E 120 80 23 00
        E 0 80 3d 00
        E 360 90 26 7e
        E 0 90 3c 7e
        E 120 80 26 00
        E 0 80 3c 00
        E 240 90 3e 7e
        E 120 80 3e 00
        E 0 90 24 7e
        E 0 90 39 7e
        E 0 90 37 7e
        E 120 80 24 00
        E 0 80 39 00
        E 0 80 37 00
        E 0 90 3e 7e
        E 120 80 3e 00
        E 1208 90 3e 2f
        E 120 90 3e 00
        E 339 90 24 5d
        E 19 90 3e 23
        E 102 90 24 00
        E 19 90 3e 00
        E 99 90 26 0d
        E 121 90 26 00
        E 6 90 26 12
        E 120 90 26 00
        E 1 90 24 6b
        E 24 90 3e 51
        E 97 90 24 00
        E 23 90 3e 00
        E 347 90 3e 1f
        E 120 90 3e 00
        E 120 90 26 16
        E 121 90 26 00
        E 122 90 3e 45
        E 121 90 3e 00
        E 356 90 26 78
        E 14 90 3e 76
        E 106 90 26 00
        E 14 90 3e 00
        E 97 90 26 38
        E 120 90 26 00
        E 140 90 3e 24
        E 120 90 3e 00
        E 357 90 3e 2a
        E 2 90 24 49
        E 118 90 3e 00
        E 3 90 24 00
        E 344 90 24 73
        E 18 90 3f 54
        E 102 90 24 00
        E 18 90 3f 00
        E 356 90 3e 20
        E 120 90 3e 00
        E 118 90 3e 13
        E 119 90 3e 00
        E 116 90 3f 59
        E 120 90 3f 00
        E 344 90 26 79
        E 11 90 3e 72
        E 109 90 26 00
        E 11 90 3e 00
        E 356 90 3f 2d
        E 120 90 3f 00
        E 341 90 24 5a
        E 14 90 3f 3b
        E 106 90 24 00
        E 14 90 3f 00
        E 361 90 24 74
        E 14 90 3f 4f
        E 106 90 24 00
        E 14 90 3f 00
        E 355 90 3e 2b
        E 120 90 3e 00
        E 124 90 26 18
        E 120 90 26 00
        E 114 90 3f 46
        E 119 90 3f 00
        E 361 90 26 79
        E 9 90 3f 74
        E 111 90 26 00
        E 9 90 3f 00
        E 358 90 3f 27
        E 120 90 3f 00
        E 353 90 26 30
        E 3 90 1a 76
        E 117 90 26 00
        E 3 90 1a 00
        E 356 90 24 74
        E 14 90 3f 3a
        E 106 90 24 00
        E 14 90 3f 00
        E 354 90 3e 2a
        E 120 90 3e 00
        E 124 90 3e 1c
        E 120 90 3e 00
        E 107 90 3f 40
        E 120 90 3f 00
        E 135 90 26 07
        E 120 90 26 00
        E 107 90 26 77
        E 12 90 3e 78
        E 108 90 26 00
        E 12 90 3e 00
        E 93 90 26 2d
        E 120 90 26 00
        E 127 90 3f 2d
        E 120 90 3f 00
        E 362 90 24 5d
        E 10 90 3f 37
        E 110 90 24 00
        E 10 90 3f 00
        E 120 90 26 12
        E 120 90 26 00
        E 101 90 24 76
        E 20 90 3e 49
        E 100 90 24 00
        E 20 90 3e 00
        E 359 90 3e 2a
        E 121 90 3e 00
        E 123 90 3f 22
        E 120 90 3f 00
        E 116 90 3e 56
        E 120 90 3e 00
        E 350 90 26 7c
        E 8 90 3e 74
        E 112 90 26 00
        E 8 90 3e 00
        E 355 90 26 40
        E 15 90 19 49
        E 105 90 26 00
        E 15 90 19 00
        E 827 b0 7b 00
        CCINTERP 32
        CHASE_CC_TAKEOFFS 1
        GUID {B0E45400-B4DF-4198-AB32-B66C174737D8}
        IGNTEMPO 0 120 4 4
        SRCCOLOR 1
        VELLANE -1 100 0
        CFGEDITVIEW -745.928458 0.168557 62 12 0 -1 0 0 0 0.5
        KEYSNAP 0
        TRACKSEL 0
        EVTFILTER 0 -1 -1 -1 -1 0 0 0 0 -1 -1 -1 -1 0 -1 0 -1 -1
        CFGEDIT 1 1 0 1 0 16 1 1 1 1 1 0.125 90 53 1854 760 0 0 0 0 0 0 0 1 0 0.5 0 0 1 64
      >
    >
    <ITEM
      POSITION 14.5
      SNAPOFFS 0
      LENGTH 3.5
      LOOP 1
      ALLTAKES 0
      FADEIN 1 0 0 1 0 0
      FADEOUT 1 0 0 1 0 0
      MUTE 0 0
      COLOR 18861968 R
      SEL 0
      IGUID {639A5959-2313-4561-9ADB-73E9E0BFBBDB}
      IID 2
      NAME "Variation 03 - Variation_03.mid"
      VOLPAN 1 0 1 -1
      SOFFS 0 0
      PLAYRATE 1 1 0 -1 0 0.0025
      CHANMODE 0
      GUID {E4D5769C-7D6A-4982-8BDB-BA48589FB623}
      <SOURCE MIDI
        HASDATA 1 960 QN
        CCINTERP 32
        POOLEDEVTS {B3C783E2-05F2-4525-A531-CCA0EA57ACC9}
        <X 0 0 0 0 3 "Variation 03"
          /wNWYXJpYXRpb24gMDM=
        >
        E 0 90 24 6c
        E 0 90 34 6c
        E 0 90 39 6c
        E 9 90 15 28
        E 111 80 24 00
        E 0 80 34 00
        E 0 80 39 00
        E 9 90 15 00
        E 831 90 3c 7e
        E 0 90 26 7e
        E 120 80 3c 00
        E 0 80 26 00
        E 360 90 23 7e
        E 0 90 3d 7e
        E 120 80 23 00
        E 0 80 3d 00
        E 360 90 23 7e
        e 0 90 3d 7f
        E 120 80 23 00
        e 0 80 3d 00
        e 360 90 3d 6f
        e 120 80 3d 00
        e 120 90 3d 7f
        e 120 80 3d 00
        E 120 90 3c 3b
        E 0 90 23 70
        E 0 90 28 7e
        E 120 80 3c 00
        E 0 80 23 00
        E 0 80 28 00
        E 120 90 2d 7e
        E 120 80 2d 00
        E 120 90 30 7e
        E 120 80 30 00
        E 120 90 2c 7e
        E 120 80 2c 00
        E 120 90 2b 7e
        E 120 80 2b 00
        E 120 90 29 7e
        E 120 80 29 00
        E 120 90 29 7e
        E 120 80 29 00
        E 120 90 29 7e
        E 120 80 29 00
        E 120 90 26 7e
        E 0 90 3c 7e
        E 120 80 26 00
        E 0 80 3c 00
        E 360 90 23 7e
        E 0 90 3d 62
        E 120 80 23 00
        E 0 80 3d 00
        E 360 90 26 7e
        E 0 90 3c 7e
        E 120 80 26 00
        E 0 80 3c 00
        E 240 90 3e 7e
        E 120 80 3e 00
        E 0 90 24 7e
        E 0 90 39 7e
        E 0 90 37 7e
        E 120 80 24 00
        E 0 80 39 00
        E 0 80 37 00
        E 0 90 3e 7e
        E 120 80 3e 00
        E 1208 90 3e 2f
        E 120 90 3e 00
        E 339 90 24 5d
        E 19 90 3e 23
        E 102 90 24 00
        E 19 90 3e 00
        E 99 90 26 0d
        E 121 90 26 00
        E 6 90 26 12
        E 120 90 26 00
        E 1 90 24 6b
        E 24 90 3e 51
        E 97 90 24 00
        E 23 90 3e 00
        E 347 90 3e 1f
        E 120 90 3e 00
        E 120 90 26 16
        E 121 90 26 00
        E 122 90 3e 45
        E 121 90 3e 00
        E 356 90 26 78
        E 14 90 3e 76
        E 106 90 26 00
        E 14 90 3e 00
        E 97 90 26 38
        E 120 90 26 00
        E 140 90 3e 24
        E 120 90 3e 00
        E 357 90 3e 2a
        E 2 90 24 49
        E 118 90 3e 00
        E 3 90 24 00
        E 344 90 24 73
        E 18 90 3f 54
        E 102 90 24 00
        E 18 90 3f 00
        E 356 90 3e 20
        E 120 90 3e 00
        E 118 90 3e 13
        E 119 90 3e 00
        E 116 90 3f 59
        E 120 90 3f 00
        E 344 90 26 79
        E 11 90 3e 72
        E 109 90 26 00
        E 11 90 3e 00
        E 356 90 3f 2d
        E 120 90 3f 00
        E 341 90 24 5a
        E 14 90 3f 3b
        E 106 90 24 00
        E 14 90 3f 00
        E 361 90 24 74
        E 14 90 3f 4f
        E 106 90 24 00
        E 14 90 3f 00
        E 355 90 3e 2b
        E 120 90 3e 00
        E 124 90 26 18
        E 120 90 26 00
        E 114 90 3f 46
        E 119 90 3f 00
        E 361 90 26 79
        E 9 90 3f 74
        E 111 90 26 00
        E 9 90 3f 00
        E 358 90 3f 27
        E 120 90 3f 00
        E 353 90 26 30
        E 3 90 1a 76
        E 117 90 26 00
        E 3 90 1a 00
        E 356 90 24 74
        E 14 90 3f 3a
        E 106 90 24 00
        E 14 90 3f 00
        E 354 90 3e 2a
        E 120 90 3e 00
        E 124 90 3e 1c
        E 120 90 3e 00
        E 107 90 3f 40
        E 120 90 3f 00
        E 135 90 26 07
        E 120 90 26 00
        E 107 90 26 77
        E 12 90 3e 78
        E 108 90 26 00
        E 12 90 3e 00
        E 93 90 26 2d
        E 120 90 26 00
        E 127 90 3f 2d
        E 120 90 3f 00
        E 362 90 24 5d
        E 10 90 3f 37
        E 110 90 24 00
        E 10 90 3f 00
        E 120 90 26 12
        E 120 90 26 00
        E 101 90 24 76
        E 20 90 3e 49
        E 100 90 24 00
        E 20 90 3e 00
        E 359 90 3e 2a
        E 121 90 3e 00
        E 123 90 3f 22
        E 120 90 3f 00
        E 116 90 3e 56
        E 120 90 3e 00
        E 350 90 26 7c
        E 8 90 3e 74
        E 112 90 26 00
        E 8 90 3e 00
        E 355 90 26 40
        E 15 90 19 49
        E 105 90 26 00
        E 15 90 19 00
        E 827 b0 7b 00
        CCINTERP 32
        CHASE_CC_TAKEOFFS 1
        GUID {B0E45400-B4DF-4198-AB32-B66C174737D8}
        IGNTEMPO 0 120 4 4
        SRCCOLOR 1
        VELLANE -1 100 0
        CFGEDITVIEW -201.6 0.248624 62 12 0 -1 0 0 0 0.5
        KEYSNAP 0
        TRACKSEL 0
        EVTFILTER 0 -1 -1 -1 -1 0 0 0 0 -1 -1 -1 -1 0 -1 0 -1 -1
        CFGEDIT 1 1 0 1 0 16 1 1 1 1 1 0.125 90 53 1854 760 0 0 0 0 0 0 0 1 0 0.5 0 0 1 64
      >
    >
    <ITEM
      POSITION 18
      SNAPOFFS 0
      LENGTH 3.5
      LOOP 1
      ALLTAKES 0
      FADEIN 1 0 0 1 0 0
      FADEOUT 1 0 0 1 0 0
      MUTE 0 0
      COLOR 18861968 R
      SEL 0
      IGUID {53FA0E43-4B54-405D-888D-9474B9475D70}
      IID 2
      NAME "Variation 03 - Variation_03.mid"
      VOLPAN 1 0 1 -1
      SOFFS 0 0
      PLAYRATE 1 1 0 -1 0 0.0025
      CHANMODE 0
      GUID {B7B162A9-6FFC-44EC-A8AF-AD997C083813}
      <SOURCE MIDI
        HASDATA 1 960 QN
        CCINTERP 32
        POOLEDEVTS {EB808EBA-613C-4FE2-87FB-2B88591A2256}
        <X 0 0 0 0 3 "Variation 03"
          /wNWYXJpYXRpb24gMDM=
        >
        E 0 90 24 6c
        E 0 90 34 6c
        E 0 90 39 6c
        E 9 90 15 28
        E 111 80 24 00
        E 0 80 34 00
        E 0 80 39 00
        E 9 90 15 00
        E 831 90 3c 7e
        E 0 90 26 7e
        E 120 80 3c 00
        E 0 80 26 00
        E 360 90 23 7e
        E 0 90 3d 7e
        E 120 80 23 00
        E 0 80 3d 00
        E 360 90 23 7e
        e 0 90 3d 7f
        E 120 80 23 00
        e 0 80 3d 00
        e 360 90 3d 6f
        e 120 80 3d 00
        e 120 90 3d 7f
        e 120 80 3d 00
        E 120 90 26 7e
        E 0 90 3c 3b
        E 120 80 26 00
        E 0 80 3c 00
        E 360 90 23 7e
        E 0 90 3c 7e
        E 120 80 23 00
        E 0 80 3c 00
        E 360 90 3c 41
        E 120 80 3c 00
        E 240 90 23 7e
        E 120 80 23 00
        E 0 90 3d 4f
        E 120 80 3d 00
        E 360 90 26 7e
        E 0 90 3c 7e
        E 120 80 26 00
        E 0 80 3c 00
        E 360 90 23 7e
        E 0 90 3d 62
        E 120 80 23 00
        E 0 80 3d 00
        E 360 90 26 7e
        E 0 90 3c 7e
        E 120 80 26 00
        E 0 80 3c 00
        E 240 90 3e 7e
        E 120 80 3e 00
        E 0 90 24 7e
        E 0 90 39 7e
        E 0 90 37 7e
        E 120 80 24 00
        E 0 80 39 00
        E 0 80 37 00
        E 0 90 3e 7e
        E 120 80 3e 00
        E 1208 90 3e 2f
        E 120 90 3e 00
        E 339 90 24 5d
        E 19 90 3e 23
        E 102 90 24 00
        E 19 90 3e 00
        E 99 90 26 0d
        E 121 90 26 00
        E 6 90 26 12
        E 120 90 26 00
        E 1 90 24 6b
        E 24 90 3e 51
        E 97 90 24 00
        E 23 90 3e 00
        E 347 90 3e 1f
        E 120 90 3e 00
        E 120 90 26 16
        E 121 90 26 00
        E 122 90 3e 45
        E 121 90 3e 00
        E 356 90 26 78
        E 14 90 3e 76
        E 106 90 26 00
        E 14 90 3e 00
        E 97 90 26 38
        E 120 90 26 00
        E 140 90 3e 24
        E 120 90 3e 00
        E 357 90 3e 2a
        E 2 90 24 49
        E 118 90 3e 00
        E 3 90 24 00
        E 344 90 24 73
        E 18 90 3f 54
        E 102 90 24 00
        E 18 90 3f 00
        E 356 90 3e 20
        E 120 90 3e 00
        E 118 90 3e 13
        E 119 90 3e 00
        E 116 90 3f 59
        E 120 90 3f 00
        E 344 90 26 79
        E 11 90 3e 72
        E 109 90 26 00
        E 11 90 3e 00
        E 356 90 3f 2d
        E 120 90 3f 00
        E 341 90 24 5a
        E 14 90 3f 3b
        E 106 90 24 00
        E 14 90 3f 00
        E 361 90 24 74
        E 14 90 3f 4f
        E 106 90 24 00
        E 14 90 3f 00
        E 355 90 3e 2b
        E 120 90 3e 00
        E 124 90 26 18
        E 120 90 26 00
        E 114 90 3f 46
        E 119 90 3f 00
        E 361 90 26 79
        E 9 90 3f 74
        E 111 90 26 00
        E 9 90 3f 00
        E 358 90 3f 27
        E 120 90 3f 00
        E 353 90 26 30
        E 3 90 1a 76
        E 117 90 26 00
        E 3 90 1a 00
        E 356 90 24 74
        E 14 90 3f 3a
        E 106 90 24 00
        E 14 90 3f 00
        E 354 90 3e 2a
        E 120 90 3e 00
        E 124 90 3e 1c
        E 120 90 3e 00
        E 107 90 3f 40
        E 120 90 3f 00
        E 135 90 26 07
        E 120 90 26 00
        E 107 90 26 77
        E 12 90 3e 78
        E 108 90 26 00
        E 12 90 3e 00
        E 93 90 26 2d
        E 120 90 26 00
        E 127 90 3f 2d
        E 120 90 3f 00
        E 362 90 24 5d
        E 10 90 3f 37
        E 110 90 24 00
        E 10 90 3f 00
        E 120 90 26 12
        E 120 90 26 00
        E 101 90 24 76
        E 20 90 3e 49
        E 100 90 24 00
        E 20 90 3e 00
        E 359 90 3e 2a
        E 121 90 3e 00
        E 123 90 3f 22
        E 120 90 3f 00
        E 116 90 3e 56
        E 120 90 3e 00
        E 350 90 26 7c
        E 8 90 3e 74
        E 112 90 26 00
        E 8 90 3e 00
        E 355 90 26 40
        E 15 90 19 49
        E 105 90 26 00
        E 15 90 19 00
        E 827 b0 7b 00
        CCINTERP 32
        CHASE_CC_TAKEOFFS 1
        GUID {B0E45400-B4DF-4198-AB32-B66C174737D8}
        IGNTEMPO 0 120 4 4
        SRCCOLOR 1
        VELLANE -1 100 0
        CFGEDITVIEW -235.900249 0.168557 62 12 0 -1 0 0 0 0.5
        KEYSNAP 0
        TRACKSEL 0
        EVTFILTER 0 -1 -1 -1 -1 0 0 0 0 -1 -1 -1 -1 0 -1 0 -1 -1
        CFGEDIT 1 1 0 1 0 16 1 1 1 1 1 0.125 90 53 1854 760 0 0 0 0 0 0 0 1 0 0.5 0 0 1 64
      >
    >
    <ITEM
      POSITION 21.5
      SNAPOFFS 0
      LENGTH 3.5
      LOOP 1
      ALLTAKES 0
      FADEIN 1 0 0 1 0 0
      FADEOUT 1 0 0 1 0 0
      MUTE 0 0
      COLOR 18861968 R
      SEL 0
      IGUID {FC7A5066-5D6A-4F43-B832-888424016BC9}
      IID 2
      NAME "Variation 03 - Variation_03.mid"
      VOLPAN 1 0 1 -1
      SOFFS 0 0
      PLAYRATE 1 1 0 -1 0 0.0025
      CHANMODE 0
      GUID {2E5736D4-127B-4C82-A61F-57B62B7B2BAD}
      <SOURCE MIDI
        HASDATA 1 960 QN
        CCINTERP 32
        POOLEDEVTS {BA12E8E0-35C5-4276-BA9B-7D1B09A5C51E}
        <X 0 0 0 0 3 "Variation 03"
          /wNWYXJpYXRpb24gMDM=
        >
        E 0 90 24 6c
        E 0 90 34 6c
        E 0 90 39 6c
        E 9 90 15 28
        E 111 80 24 00
        E 0 80 34 00
        E 0 80 39 00
        E 9 90 15 00
        E 831 90 3c 7e
        E 0 90 26 7e
        E 120 80 3c 00
        E 0 80 26 00
        E 360 90 23 7e
        E 0 90 3d 7e
        E 120 80 23 00
        E 0 80 3d 00
        E 360 90 23 7e
        e 0 90 3d 7f
        E 120 80 23 00
        e 0 80 3d 00
        e 360 90 3d 6f
        e 120 80 3d 00
        e 120 90 3d 7f
        e 120 80 3d 00
        E 120 90 26 7e
        E 0 90 3c 3b
        E 120 80 26 00
        E 0 80 3c 00
        E 360 90 23 7e
        E 0 90 3c 7e
        E 120 80 23 00
        E 0 80 3c 00
        E 360 90 3c 41
        E 120 80 3c 00
        E 240 90 23 7e
        E 120 80 23 00
        E 0 90 3d 4f
        E 120 80 3d 00
        E 360 90 26 7e
        E 0 90 3c 7e
        E 120 80 26 00
        E 0 80 3c 00
        E 360 90 23 7e
        E 0 90 3d 62
        E 120 80 23 00
        E 0 80 3d 00
        E 360 90 26 7e
        E 0 90 3c 7e
        E 120 80 26 00
        E 0 80 3c 00
        E 240 90 3e 7e
        E 120 80 3e 00
        E 0 90 24 7e
        E 0 90 39 7e
        E 0 90 37 7e
        E 120 80 24 00
        E 0 80 39 00
        E 0 80 37 00
        E 0 90 3e 7e
        E 120 80 3e 00
        E 1208 90 3e 2f
        E 120 90 3e 00
        E 339 90 24 5d
        E 19 90 3e 23
        E 102 90 24 00
        E 19 90 3e 00
        E 99 90 26 0d
        E 121 90 26 00
        E 6 90 26 12
        E 120 90 26 00
        E 1 90 24 6b
        E 24 90 3e 51
        E 97 90 24 00
        E 23 90 3e 00
        E 347 90 3e 1f
        E 120 90 3e 00
        E 120 90 26 16
        E 121 90 26 00
        E 122 90 3e 45
        E 121 90 3e 00
        E 356 90 26 78
        E 14 90 3e 76
        E 106 90 26 00
        E 14 90 3e 00
        E 97 90 26 38
        E 120 90 26 00
        E 140 90 3e 24
        E 120 90 3e 00
        E 357 90 3e 2a
        E 2 90 24 49
        E 118 90 3e 00
        E 3 90 24 00
        E 344 90 24 73
        E 18 90 3f 54
        E 102 90 24 00
        E 18 90 3f 00
        E 356 90 3e 20
        E 120 90 3e 00
        E 118 90 3e 13
        E 119 90 3e 00
        E 116 90 3f 59
        E 120 90 3f 00
        E 344 90 26 79
        E 11 90 3e 72
        E 109 90 26 00
        E 11 90 3e 00
        E 356 90 3f 2d
        E 120 90 3f 00
        E 341 90 24 5a
        E 14 90 3f 3b
        E 106 90 24 00
        E 14 90 3f 00
        E 361 90 24 74
        E 14 90 3f 4f
        E 106 90 24 00
        E 14 90 3f 00
        E 355 90 3e 2b
        E 120 90 3e 00
        E 124 90 26 18
        E 120 90 26 00
        E 114 90 3f 46
        E 119 90 3f 00
        E 361 90 26 79
        E 9 90 3f 74
        E 111 90 26 00
        E 9 90 3f 00
        E 358 90 3f 27
        E 120 90 3f 00
        E 353 90 26 30
        E 3 90 1a 76
        E 117 90 26 00
        E 3 90 1a 00
        E 356 90 24 74
        E 14 90 3f 3a
        E 106 90 24 00
        E 14 90 3f 00
        E 354 90 3e 2a
        E 120 90 3e 00
        E 124 90 3e 1c
        E 120 90 3e 00
        E 107 90 3f 40
        E 120 90 3f 00
        E 135 90 26 07
        E 120 90 26 00
        E 107 90 26 77
        E 12 90 3e 78
        E 108 90 26 00
        E 12 90 3e 00
        E 93 90 26 2d
        E 120 90 26 00
        E 127 90 3f 2d
        E 120 90 3f 00
        E 362 90 24 5d
        E 10 90 3f 37
        E 110 90 24 00
        E 10 90 3f 00
        E 120 90 26 12
        E 120 90 26 00
        E 101 90 24 76
        E 20 90 3e 49
        E 100 90 24 00
        E 20 90 3e 00
        E 359 90 3e 2a
        E 121 90 3e 00
        E 123 90 3f 22
        E 120 90 3f 00
        E 116 90 3e 56
        E 120 90 3e 00
        E 350 90 26 7c
        E 8 90 3e 74
        E 112 90 26 00
        E 8 90 3e 00
        E 355 90 26 40
        E 15 90 19 49
        E 105 90 26 00
        E 15 90 19 00
        E 827 b0 7b 00
        CCINTERP 32
        CHASE_CC_TAKEOFFS 1
        GUID {B0E45400-B4DF-4198-AB32-B66C174737D8}
        IGNTEMPO 0 120 4 4
        SRCCOLOR 1
        VELLANE -1 100 0
        CFGEDITVIEW -229.782585 0.168557 62 12 0 -1 0 0 0 0.5
        KEYSNAP 0
        TRACKSEL 0
        EVTFILTER 0 -1 -1 -1 -1 0 0 0 0 -1 -1 -1 -1 0 -1 0 -1 -1
        CFGEDIT 1 1 0 1 0 16 1 1 1 1 1 0.125 90 53 1854 760 0 0 0 0 0 0 0 1 0 0.5 0 0 1 64
      >
    >
    <ITEM
      POSITION 25
      SNAPOFFS 0
      LENGTH 3.5
      LOOP 1
      ALLTAKES 0
      FADEIN 1 0 0 1 0 0
      FADEOUT 1 0 0 1 0 0
      MUTE 0 0
      COLOR 18861968 R
      SEL 0
      IGUID {DF1ECFFF-DA99-47C0-AA9D-21331A3337A0}
      IID 2
      NAME "Variation 03 - Variation_03.mid"
      VOLPAN 1 0 1 -1
      SOFFS 0 0
      PLAYRATE 1 1 0 -1 0 0.0025
      CHANMODE 0
      GUID {5002ECE4-0D32-4239-94B3-3CA73B5CC739}
      <SOURCE MIDI
        HASDATA 1 960 QN
        CCINTERP 32
        POOLEDEVTS {E6EC2901-D93D-4357-866A-E396B637F31E}
        <X 0 0 0 0 3 "Variation 03"
          /wNWYXJpYXRpb24gMDM=
        >
        E 0 90 24 6c
        E 0 90 34 6c
        E 0 90 39 6c
        E 9 90 15 28
        E 111 80 24 00
        E 0 80 34 00
        E 0 80 39 00
        E 9 90 15 00
        E 831 90 3c 7e
        E 0 90 26 7e
        E 120 80 3c 00
        E 0 80 26 00
        E 360 90 23 7e
        E 0 90 3d 7e
        E 120 80 23 00
        E 0 80 3d 00
        E 360 90 23 7e
        e 0 90 3d 7f
        E 120 80 23 00
        e 0 80 3d 00
        e 360 90 3d 6f
        e 120 80 3d 00
        e 120 90 3d 7f
        e 120 80 3d 00
        E 120 90 26 7e
        E 0 90 3c 3b
        E 120 80 26 00
        E 0 80 3c 00
        E 360 90 23 7e
        E 0 90 3c 7e
        E 120 80 23 00
        E 0 80 3c 00
        E 360 90 3c 41
        E 120 80 3c 00
        E 240 90 23 7e
        E 120 80 23 00
        E 0 90 3d 4f
        E 120 80 3d 00
        E 360 90 26 7e
        E 0 90 3c 7e
        E 120 80 26 00
        E 0 80 3c 00
        E 360 90 23 7e
        E 0 90 3d 62
        E 120 80 23 00
        E 0 80 3d 00
        E 360 90 26 7e
        E 0 90 3c 7e
        E 120 80 26 00
        E 0 80 3c 00
        E 240 90 3e 7e
        E 120 80 3e 00
        E 0 90 24 7e
        E 0 90 39 7e
        E 0 90 37 7e
        E 120 80 24 00
        E 0 80 39 00
        E 0 80 37 00
        E 0 90 3e 7e
        E 120 80 3e 00
        E 1208 90 3e 2f
        E 120 90 3e 00
        E 339 90 24 5d
        E 19 90 3e 23
        E 102 90 24 00
        E 19 90 3e 00
        E 99 90 26 0d
        E 121 90 26 00
        E 6 90 26 12
        E 120 90 26 00
        E 1 90 24 6b
        E 24 90 3e 51
        E 97 90 24 00
        E 23 90 3e 00
        E 347 90 3e 1f
        E 120 90 3e 00
        E 120 90 26 16
        E 121 90 26 00
        E 122 90 3e 45
        E 121 90 3e 00
        E 356 90 26 78
        E 14 90 3e 76
        E 106 90 26 00
        E 14 90 3e 00
        E 97 90 26 38
        E 120 90 26 00
        E 140 90 3e 24
        E 120 90 3e 00
        E 357 90 3e 2a
        E 2 90 24 49
        E 118 90 3e 00
        E 3 90 24 00
        E 344 90 24 73
        E 18 90 3f 54
        E 102 90 24 00
        E 18 90 3f 00
        E 356 90 3e 20
        E 120 90 3e 00
        E 118 90 3e 13
        E 119 90 3e 00
        E 116 90 3f 59
        E 120 90 3f 00
        E 344 90 26 79
        E 11 90 3e 72
        E 109 90 26 00
        E 11 90 3e 00
        E 356 90 3f 2d
        E 120 90 3f 00
        E 341 90 24 5a
        E 14 90 3f 3b
        E 106 90 24 00
        E 14 90 3f 00
        E 361 90 24 74
        E 14 90 3f 4f
        E 106 90 24 00
        E 14 90 3f 00
        E 355 90 3e 2b
        E 120 90 3e 00
        E 124 90 26 18
        E 120 90 26 00
        E 114 90 3f 46
        E 119 90 3f 00
        E 361 90 26 79
        E 9 90 3f 74
        E 111 90 26 00
        E 9 90 3f 00
        E 358 90 3f 27
        E 120 90 3f 00
        E 353 90 26 30
        E 3 90 1a 76
        E 117 90 26 00
        E 3 90 1a 00
        E 356 90 24 74
        E 14 90 3f 3a
        E 106 90 24 00
        E 14 90 3f 00
        E 354 90 3e 2a
        E 120 90 3e 00
        E 124 90 3e 1c
        E 120 90 3e 00
        E 107 90 3f 40
        E 120 90 3f 00
        E 135 90 26 07
        E 120 90 26 00
        E 107 90 26 77
        E 12 90 3e 78
        E 108 90 26 00
        E 12 90 3e 00
        E 93 90 26 2d
        E 120 90 26 00
        E 127 90 3f 2d
        E 120 90 3f 00
        E 362 90 24 5d
        E 10 90 3f 37
        E 110 90 24 00
        E 10 90 3f 00
        E 120 90 26 12
        E 120 90 26 00
        E 101 90 24 76
        E 20 90 3e 49
        E 100 90 24 00
        E 20 90 3e 00
        E 359 90 3e 2a
        E 121 90 3e 00
        E 123 90 3f 22
        E 120 90 3f 00
        E 116 90 3e 56
        E 120 90 3e 00
        E 350 90 26 7c
        E 8 90 3e 74
        E 112 90 26 00
        E 8 90 3e 00
        E 355 90 26 40
        E 15 90 19 49
        E 105 90 26 00
        E 15 90 19 00
        E 827 b0 7b 00
        CCINTERP 32
        CHASE_CC_TAKEOFFS 1
        GUID {B0E45400-B4DF-4198-AB32-B66C174737D8}
        IGNTEMPO 0 120 4 4
        SRCCOLOR 1
        VELLANE -1 100 0
        CFGEDITVIEW -745.928458 0.168557 62 12 0 -1 0 0 0 0.5
        KEYSNAP 0
        TRACKSEL 0
        EVTFILTER 0 -1 -1 -1 -1 0 0 0 0 -1 -1 -1 -1 0 -1 0 -1 -1
        CFGEDIT 1 1 0 1 0 16 1 1 1 1 1 0.125 90 53 1854 760 0 0 0 0 0 0 0 1 0 0.5 0 0 1 64
      >
    >
    <ITEM
      POSITION 28.5
      SNAPOFFS 0
      LENGTH 3.5
      LOOP 1
      ALLTAKES 0
      FADEIN 1 0 0 1 0 0
      FADEOUT 1 0 0 1 0 0
      MUTE 0 0
      COLOR 18861968 R
      SEL 0
      IGUID {D96876D3-85A3-4F85-8019-C7C25FC8E626}
      IID 2
      NAME "Variation 03 - Variation_03.mid"
      VOLPAN 1 0 1 -1
      SOFFS 0 0
      PLAYRATE 1 1 0 -1 0 0.0025
      CHANMODE 0
      GUID {9B475BF6-914E-4CF5-89BB-31998846A39D}
      <SOURCE MIDI
        HASDATA 1 960 QN
        CCINTERP 32
        POOLEDEVTS {23AE6B86-C5A0-4FB3-BC73-750D0C4687E8}
        <X 0 0 0 0 3 "Variation 03"
          /wNWYXJpYXRpb24gMDM=
        >
        E 0 90 24 6c
        E 0 90 34 6c
        E 0 90 39 6c
        E 9 90 15 28
        E 111 80 24 00
        E 0 80 34 00
        E 0 80 39 00
        E 9 90 15 00
        E 831 90 3c 7e
        E 0 90 26 7e
        E 120 80 3c 00
        E 0 80 26 00
        E 360 90 23 7e
        E 0 90 3d 7e
        E 120 80 23 00
        E 0 80 3d 00
        E 360 90 23 7e
        e 0 90 3d 7f
        E 120 80 23 00
        e 0 80 3d 00
        e 360 90 3d 6f
        e 120 80 3d 00
        e 120 90 3d 7f
        e 120 80 3d 00
        E 120 90 3c 3b
        E 0 90 23 70
        E 0 90 28 7e
        E 120 80 3c 00
        E 0 80 23 00
        E 0 80 28 00
        E 120 90 2d 7e
        E 120 80 2d 00
        E 120 90 30 7e
        E 120 80 30 00
        E 120 90 2c 7e
        E 120 80 2c 00
        E 120 90 2b 7e
        E 120 80 2b 00
        E 120 90 29 7e
        E 120 80 29 00
        E 120 90 29 7e
        E 120 80 29 00
        E 120 90 29 7e
        E 120 80 29 00
        E 120 90 26 7e
        E 0 90 3c 7e
        E 120 80 26 00
        E 0 80 3c 00
        E 360 90 23 7e
        E 0 90 3d 62
        E 120 80 23 00
        E 0 80 3d 00
        E 360 90 26 7e
        E 0 90 3c 7e
        E 120 80 26 00
        E 0 80 3c 00
        E 240 90 3e 7e
        E 120 80 3e 00
        E 0 90 24 7e
        E 0 90 39 7e
        E 0 90 37 7e
        E 120 80 24 00
        E 0 80 39 00
        E 0 80 37 00
        E 0 90 3e 7e
        E 120 80 3e 00
        E 1208 90 3e 2f
        E 120 90 3e 00
        E 339 90 24 5d
        E 19 90 3e 23
        E 102 90 24 00
        E 19 90 3e 00
        E 99 90 26 0d
        E 121 90 26 00
        E 6 90 26 12
        E 120 90 26 00
        E 1 90 24 6b
        E 24 90 3e 51
        E 97 90 24 00
        E 23 90 3e 00
        E 347 90 3e 1f
        E 120 90 3e 00
        E 120 90 26 16
        E 121 90 26 00
        E 122 90 3e 45
        E 121 90 3e 00
        E 356 90 26 78
        E 14 90 3e 76
        E 106 90 26 00
        E 14 90 3e 00
        E 97 90 26 38
        E 120 90 26 00
        E 140 90 3e 24
        E 120 90 3e 00
        E 357 90 3e 2a
        E 2 90 24 49
        E 118 90 3e 00
        E 3 90 24 00
        E 344 90 24 73
        E 18 90 3f 54
        E 102 90 24 00
        E 18 90 3f 00
        E 356 90 3e 20
        E 120 90 3e 00
        E 118 90 3e 13
        E 119 90 3e 00
        E 116 90 3f 59
        E 120 90 3f 00
        E 344 90 26 79
        E 11 90 3e 72
        E 109 90 26 00
        E 11 90 3e 00
        E 356 90 3f 2d
        E 120 90 3f 00
        E 341 90 24 5a
        E 14 90 3f 3b
        E 106 90 24 00
        E 14 90 3f 00
        E 361 90 24 74
        E 14 90 3f 4f
        E 106 90 24 00
        E 14 90 3f 00
        E 355 90 3e 2b
        E 120 90 3e 00
        E 124 90 26 18
        E 120 90 26 00
        E 114 90 3f 46
        E 119 90 3f 00
        E 361 90 26 79
        E 9 90 3f 74
        E 111 90 26 00
        E 9 90 3f 00
        E 358 90 3f 27
        E 120 90 3f 00
        E 353 90 26 30
        E 3 90 1a 76
        E 117 90 26 00
        E 3 90 1a 00
        E 356 90 24 74
        E 14 90 3f 3a
        E 106 90 24 00
        E 14 90 3f 00
        E 354 90 3e 2a
        E 120 90 3e 00
        E 124 90 3e 1c
        E 120 90 3e 00
        E 107 90 3f 40
        E 120 90 3f 00
        E 135 90 26 07
        E 120 90 26 00
        E 107 90 26 77
        E 12 90 3e 78
        E 108 90 26 00
        E 12 90 3e 00
        E 93 90 26 2d
        E 120 90 26 00
        E 127 90 3f 2d
        E 120 90 3f 00
        E 362 90 24 5d
        E 10 90 3f 37
        E 110 90 24 00
        E 10 90 3f 00
        E 120 90 26 12
        E 120 90 26 00
        E 101 90 24 76
        E 20 90 3e 49
        E 100 90 24 00
        E 20 90 3e 00
        E 359 90 3e 2a
        E 121 90 3e 00
        E 123 90 3f 22
        E 120 90 3f 00
        E 116 90 3e 56
        E 120 90 3e 00
        E 350 90 26 7c
        E 8 90 3e 74
        E 112 90 26 00
        E 8 90 3e 00
        E 355 90 26 40
        E 15 90 19 49
        E 105 90 26 00
        E 15 90 19 00
        E 827 b0 7b 00
        CCINTERP 32
        CHASE_CC_TAKEOFFS 1
        GUID {B0E45400-B4DF-4198-AB32-B66C174737D8}
        IGNTEMPO 0 120 4 4
        SRCCOLOR 1
        VELLANE -1 100 0
        CFGEDITVIEW -201.6 0.248624 62 12 0 -1 0 0 0 0.5
        KEYSNAP 0
        TRACKSEL 0
        EVTFILTER 0 -1 -1 -1 -1 0 0 0 0 -1 -1 -1 -1 0 -1 0 -1 -1
        CFGEDIT 1 1 0 1 0 16 1 1 1 1 1 0.125 90 53 1854 760 0 0 0 0 0 0 0 1 0 0.5 0 0 1 64
      >
    >
    <ITEM
      POSITION 32
      SNAPOFFS 0
      LENGTH 3.5
      LOOP 1
      ALLTAKES 0
      FADEIN 1 0 0 1 0 0
      FADEOUT 1 0 0 1 0 0
      MUTE 0 0
      COLOR 26337038 R
      SEL 0
      IGUID {F5912EBD-9F6D-4F05-8E72-A578F2C35D99}
      IID 2
      NAME "Variation 03 - Variation_03.mid"
      VOLPAN 1 0 1 -1
      SOFFS 0 0
      PLAYRATE 1 1 0 -1 0 0.0025
      CHANMODE 0
      GUID {16DA57EB-6237-4C8F-93B2-0C39FFE40FF8}
      <SOURCE MIDI
        HASDATA 1 960 QN
        CCINTERP 32
        POOLEDEVTS {B86F179B-3F55-4235-95EE-3C5A46987A51}
        <X 0 0 0 0 3 "Variation 03"
          /wNWYXJpYXRpb24gMDM=
        >
        E 0 90 24 6c
        E 0 90 34 6c
        E 0 90 39 6c
        E 9 90 15 28
        E 111 80 24 00
        E 0 80 34 00
        E 0 80 39 00
        E 9 90 15 00
        E 831 90 3c 7e
        E 0 90 26 7e
        E 120 80 3c 00
        E 0 80 26 00
        E 360 90 23 7e
        E 120 80 23 00
        E 360 90 23 7e
        e 0 90 35 7e
        E 120 80 23 00
        e 0 80 35 00
        E 360 90 23 7f
        e 0 90 35 7e
        E 120 80 23 00
        e 0 80 35 00
        e 120 90 35 7e
        e 120 80 35 00
        E 120 90 26 7e
        E 120 80 26 00
        E 120 90 35 3c
        E 120 80 35 00
        E 120 90 23 7e
        E 120 80 23 00
        E 360 90 35 43
        E 120 80 35 00
        E 360 90 35 56
        E 120 80 35 00
        E 360 90 26 7e
        E 0 90 35 7e
        E 120 80 26 00
        E 0 80 35 00
        E 360 90 23 7e
        E 0 90 35 5d
        E 120 80 23 00
        E 0 80 35 00
        E 360 90 26 7e
        E 120 80 26 00
        E 360 90 24 7e
        E 0 90 38 7e
        E 0 90 37 7e
        E 0 90 34 7e
        E 120 80 24 00
        E 0 80 38 00
        E 0 80 37 00
        E 0 80 34 00
        E 1328 90 3e 2f
        E 120 90 3e 00
        E 339 90 24 5d
        E 19 90 3e 23
        E 102 90 24 00
        E 19 90 3e 00
        E 99 90 26 0d
        E 121 90 26 00
        E 6 90 26 12
        E 120 90 26 00
        E 1 90 24 6b
        E 24 90 3e 51
        E 97 90 24 00
        E 23 90 3e 00
        E 347 90 3e 1f
        E 120 90 3e 00
        E 120 90 26 16
        E 121 90 26 00
        E 122 90 3e 45
        E 121 90 3e 00
        E 356 90 26 78
        E 14 90 3e 76
        E 106 90 26 00
        E 14 90 3e 00
        E 97 90 26 38
        E 120 90 26 00
        E 140 90 3e 24
        E 120 90 3e 00
        E 357 90 3e 2a
        E 2 90 24 49
        E 118 90 3e 00
        E 3 90 24 00
        E 344 90 24 73
        E 18 90 3f 54
        E 102 90 24 00
        E 18 90 3f 00
        E 356 90 3e 20
        E 120 90 3e 00
        E 118 90 3e 13
        E 119 90 3e 00
        E 116 90 3f 59
        E 120 90 3f 00
        E 344 90 26 79
        E 11 90 3e 72
        E 109 90 26 00
        E 11 90 3e 00
        E 356 90 3f 2d
        E 120 90 3f 00
        E 341 90 24 5a
        E 14 90 3f 3b
        E 106 90 24 00
        E 14 90 3f 00
        E 361 90 24 74
        E 14 90 3f 4f
        E 106 90 24 00
        E 14 90 3f 00
        E 355 90 3e 2b
        E 120 90 3e 00
        E 124 90 26 18
        E 120 90 26 00
        E 114 90 3f 46
        E 119 90 3f 00
        E 361 90 26 79
        E 9 90 3f 74
        E 111 90 26 00
        E 9 90 3f 00
        E 358 90 3f 27
        E 120 90 3f 00
        E 353 90 26 30
        E 3 90 1a 76
        E 117 90 26 00
        E 3 90 1a 00
        E 356 90 24 74
        E 14 90 3f 3a
        E 106 90 24 00
        E 14 90 3f 00
        E 354 90 3e 2a
        E 120 90 3e 00
        E 124 90 3e 1c
        E 120 90 3e 00
        E 107 90 3f 40
        E 120 90 3f 00
        E 135 90 26 07
        E 120 90 26 00
        E 107 90 26 77
        E 12 90 3e 78
        E 108 90 26 00
        E 12 90 3e 00
        E 93 90 26 2d
        E 120 90 26 00
        E 127 90 3f 2d
        E 120 90 3f 00
        E 362 90 24 5d
        E 10 90 3f 37
        E 110 90 24 00
        E 10 90 3f 00
        E 120 90 26 12
        E 120 90 26 00
        E 101 90 24 76
        E 20 90 3e 49
        E 100 90 24 00
        E 20 90 3e 00
        E 359 90 3e 2a
        E 121 90 3e 00
        E 123 90 3f 22
        E 120 90 3f 00
        E 116 90 3e 56
        E 120 90 3e 00
        E 350 90 26 7c
        E 8 90 3e 74
        E 112 90 26 00
        E 8 90 3e 00
        E 355 90 26 40
        E 15 90 19 49
        E 105 90 26 00
        E 15 90 19 00
        E 827 b0 7b 00
        CCINTERP 32
        CHASE_CC_TAKEOFFS 1
        GUID {B0E45400-B4DF-4198-AB32-B66C174737D8}
        IGNTEMPO 0 120 4 4
        SRCCOLOR 1
        VELLANE -1 100 0
        CFGEDITVIEW -201.6 0.248624 62 12 0 -1 0 0 0 0.5
        KEYSNAP 0
        TRACKSEL 0
        EVTFILTER 0 -1 -1 -1 -1 0 0 0 0 -1 -1 -1 -1 0 -1 0 -1 -1
        CFGEDIT 1 1 0 1 0 16 1 1 1 1 1 0.125 90 53 1854 760 0 0 0 0 0 0 0 1 0 0.5 0 0 1 64
      >
    >
    <ITEM
      POSITION 35.5
      SNAPOFFS 0
      LENGTH 3.5
      LOOP 1
      ALLTAKES 0
      FADEIN 1 0 0 1 0 0
      FADEOUT 1 0 0 1 0 0
      MUTE 0 0
      COLOR 26337038 R
      SEL 0
      IGUID {FAC86518-1BFE-4906-BB10-F47EAD1D99C2}
      IID 2
      NAME "Variation 03 - Variation_03.mid"
      VOLPAN 1 0 1 -1
      SOFFS 0 0
      PLAYRATE 1 1 0 -1 0 0.0025
      CHANMODE 0
      GUID {C7AC566A-E740-4DB6-8BA4-5F8B350EE765}
      <SOURCE MIDI
        HASDATA 1 960 QN
        CCINTERP 32
        POOLEDEVTS {243BA3C2-F144-48AB-A0FE-B923A2C697C3}
        <X 0 0 0 0 3 "Variation 03"
          /wNWYXJpYXRpb24gMDM=
        >
        E 0 90 24 6c
        E 0 90 34 6c
        E 0 90 39 6c
        E 9 90 15 28
        E 111 80 24 00
        E 0 80 34 00
        E 0 80 39 00
        E 9 90 15 00
        E 831 90 3c 7e
        E 0 90 26 7e
        E 120 80 3c 00
        E 0 80 26 00
        E 360 90 23 7e
        E 120 80 23 00
        E 360 90 23 7e
        E 0 90 35 7e
        E 120 80 23 00
        E 0 80 35 00
        E 360 90 23 7f
        E 0 90 35 7e
        E 120 80 23 00
        E 0 80 35 00
        E 120 90 35 7e
        E 120 80 35 00
        E 120 90 26 7e
        E 120 80 26 00
        E 120 90 35 3c
        E 120 80 35 00
        E 120 90 23 7e
        E 120 80 23 00
        E 360 90 35 43
        E 120 80 35 00
        E 360 90 35 56
        E 120 80 35 00
        E 360 90 26 7e
        E 0 90 35 7e
        E 120 80 26 00
        E 0 80 35 00
        E 360 90 23 7e
        E 0 90 35 5d
        E 120 80 23 00
        E 0 80 35 00
        E 360 90 26 7e
        E 120 80 26 00
        E 1808 90 3e 2f
        E 120 90 3e 00
        E 339 90 24 5d
        E 19 90 3e 23
        E 102 90 24 00
        E 19 90 3e 00
        E 99 90 26 0d
        E 121 90 26 00
        E 6 90 26 12
        E 120 90 26 00
        E 1 90 24 6b
        E 24 90 3e 51
        E 97 90 24 00
        E 23 90 3e 00
        E 347 90 3e 1f
        E 120 90 3e 00
        E 120 90 26 16
        E 121 90 26 00
        E 122 90 3e 45
        E 121 90 3e 00
        E 356 90 26 78
        E 14 90 3e 76
        E 106 90 26 00
        E 14 90 3e 00
        E 97 90 26 38
        E 120 90 26 00
        E 140 90 3e 24
        E 120 90 3e 00
        E 357 90 3e 2a
        E 2 90 24 49
        E 118 90 3e 00
        E 3 90 24 00
        E 344 90 24 73
        E 18 90 3f 54
        E 102 90 24 00
        E 18 90 3f 00
        E 356 90 3e 20
        E 120 90 3e 00
        E 118 90 3e 13
        E 119 90 3e 00
        E 116 90 3f 59
        E 120 90 3f 00
        E 344 90 26 79
        E 11 90 3e 72
        E 109 90 26 00
        E 11 90 3e 00
        E 356 90 3f 2d
        E 120 90 3f 00
        E 341 90 24 5a
        E 14 90 3f 3b
        E 106 90 24 00
        E 14 90 3f 00
        E 361 90 24 74
        E 14 90 3f 4f
        E 106 90 24 00
        E 14 90 3f 00
        E 355 90 3e 2b
        E 120 90 3e 00
        E 124 90 26 18
        E 120 90 26 00
        E 114 90 3f 46
        E 119 90 3f 00
        E 361 90 26 79
        E 9 90 3f 74
        E 111 90 26 00
        E 9 90 3f 00
        E 358 90 3f 27
        E 120 90 3f 00
        E 353 90 26 30
        E 3 90 1a 76
        E 117 90 26 00
        E 3 90 1a 00
        E 356 90 24 74
        E 14 90 3f 3a
        E 106 90 24 00
        E 14 90 3f 00
        E 354 90 3e 2a
        E 120 90 3e 00
        E 124 90 3e 1c
        E 120 90 3e 00
        E 107 90 3f 40
        E 120 90 3f 00
        E 135 90 26 07
        E 120 90 26 00
        E 107 90 26 77
        E 12 90 3e 78
        E 108 90 26 00
        E 12 90 3e 00
        E 93 90 26 2d
        E 120 90 26 00
        E 127 90 3f 2d
        E 120 90 3f 00
        E 362 90 24 5d
        E 10 90 3f 37
        E 110 90 24 00
        E 10 90 3f 00
        E 120 90 26 12
        E 120 90 26 00
        E 101 90 24 76
        E 20 90 3e 49
        E 100 90 24 00
        E 20 90 3e 00
        E 359 90 3e 2a
        E 121 90 3e 00
        E 123 90 3f 22
        E 120 90 3f 00
        E 116 90 3e 56
        E 120 90 3e 00
        E 350 90 26 7c
        E 8 90 3e 74
        E 112 90 26 00
        E 8 90 3e 00
        E 355 90 26 40
        E 15 90 19 49
        E 105 90 26 00
        E 15 90 19 00
        E 827 b0 7b 00
        CCINTERP 32
        CHASE_CC_TAKEOFFS 1
        GUID {B0E45400-B4DF-4198-AB32-B66C174737D8}
        IGNTEMPO 0 120 4 4
        SRCCOLOR 1
        VELLANE -1 100 0
        CFGEDITVIEW -201.6 0.248624 62 12 0 -1 0 0 0 0.5
        KEYSNAP 0
        TRACKSEL 0
        EVTFILTER 0 -1 -1 -1 -1 0 0 0 0 -1 -1 -1 -1 0 -1 0 -1 -1
        CFGEDIT 1 1 0 1 0 16 1 1 1 1 1 0.125 90 53 1854 760 0 0 0 0 0 0 0 1 0 0.5 0 0 1 64
      >
    >
    <ITEM
      POSITION 39
      SNAPOFFS 0
      LENGTH 3.5
      LOOP 1
      ALLTAKES 0
      FADEIN 1 0 0 1 0 0
      FADEOUT 1 0 0 1 0 0
      MUTE 0 0
      COLOR 26337038 R
      SEL 0
      IGUID {DC885E35-9230-4770-9CFB-52F4330B6ED2}
      IID 2
      NAME "Variation 03 - Variation_03.mid"
      VOLPAN 1 0 1 -1
      SOFFS 0 0
      PLAYRATE 1 1 0 -1 0 0.0025
      CHANMODE 0
      GUID {5CD377BE-2DBC-408F-9E6E-6BB0A019112C}
      <SOURCE MIDI
        HASDATA 1 960 QN
        CCINTERP 32
        POOLEDEVTS {C3B635D2-8E77-411C-8A45-BD842CAA0545}
        <X 0 0 0 0 3 "Variation 03"
          /wNWYXJpYXRpb24gMDM=
        >
        E 0 90 24 6c
        E 0 90 34 6c
        E 0 90 39 6c
        E 9 90 15 28
        E 111 80 24 00
        E 0 80 34 00
        E 0 80 39 00
        E 9 90 15 00
        E 831 90 3c 7e
        E 0 90 26 7e
        E 120 80 3c 00
        E 0 80 26 00
        E 360 90 23 7e
        E 120 80 23 00
        E 360 90 23 7e
        E 0 90 35 7e
        E 120 80 23 00
        E 0 80 35 00
        E 360 90 23 7f
        E 0 90 35 7e
        E 120 80 23 00
        E 0 80 35 00
        E 120 90 35 7e
        E 120 80 35 00
        E 120 90 26 7e
        E 120 80 26 00
        E 120 90 35 3c
        E 120 80 35 00
        E 120 90 23 7e
        E 120 80 23 00
        E 360 90 35 43
        E 120 80 35 00
        E 360 90 35 56
        E 120 80 35 00
        E 360 90 26 7e
        E 0 90 35 7e
        E 120 80 26 00
        E 0 80 35 00
        E 360 90 23 7e
        E 0 90 35 5d
        E 120 80 23 00
        E 0 80 35 00
        E 360 90 26 7e
        E 120 80 26 00
        E 360 90 24 7e
        E 0 90 38 7e
        E 0 90 37 7e
        e 0 90 34 7e
        E 120 80 24 00
        E 0 80 38 00
        E 0 80 37 00
        e 0 80 34 00
        E 1328 90 3e 2f
        E 120 90 3e 00
        E 339 90 24 5d
        E 19 90 3e 23
        E 102 90 24 00
        E 19 90 3e 00
        E 99 90 26 0d
        E 121 90 26 00
        E 6 90 26 12
        E 120 90 26 00
        E 1 90 24 6b
        E 24 90 3e 51
        E 97 90 24 00
        E 23 90 3e 00
        E 347 90 3e 1f
        E 120 90 3e 00
        E 120 90 26 16
        E 121 90 26 00
        E 122 90 3e 45
        E 121 90 3e 00
        E 356 90 26 78
        E 14 90 3e 76
        E 106 90 26 00
        E 14 90 3e 00
        E 97 90 26 38
        E 120 90 26 00
        E 140 90 3e 24
        E 120 90 3e 00
        E 357 90 3e 2a
        E 2 90 24 49
        E 118 90 3e 00
        E 3 90 24 00
        E 344 90 24 73
        E 18 90 3f 54
        E 102 90 24 00
        E 18 90 3f 00
        E 356 90 3e 20
        E 120 90 3e 00
        E 118 90 3e 13
        E 119 90 3e 00
        E 116 90 3f 59
        E 120 90 3f 00
        E 344 90 26 79
        E 11 90 3e 72
        E 109 90 26 00
        E 11 90 3e 00
        E 356 90 3f 2d
        E 120 90 3f 00
        E 341 90 24 5a
        E 14 90 3f 3b
        E 106 90 24 00
        E 14 90 3f 00
        E 361 90 24 74
        E 14 90 3f 4f
        E 106 90 24 00
        E 14 90 3f 00
        E 355 90 3e 2b
        E 120 90 3e 00
        E 124 90 26 18
        E 120 90 26 00
        E 114 90 3f 46
        E 119 90 3f 00
        E 361 90 26 79
        E 9 90 3f 74
        E 111 90 26 00
        E 9 90 3f 00
        E 358 90 3f 27
        E 120 90 3f 00
        E 353 90 26 30
        E 3 90 1a 76
        E 117 90 26 00
        E 3 90 1a 00
        E 356 90 24 74
        E 14 90 3f 3a
        E 106 90 24 00
        E 14 90 3f 00
        E 354 90 3e 2a
        E 120 90 3e 00
        E 124 90 3e 1c
        E 120 90 3e 00
        E 107 90 3f 40
        E 120 90 3f 00
        E 135 90 26 07
        E 120 90 26 00
        E 107 90 26 77
        E 12 90 3e 78
        E 108 90 26 00
        E 12 90 3e 00
        E 93 90 26 2d
        E 120 90 26 00
        E 127 90 3f 2d
        E 120 90 3f 00
        E 362 90 24 5d
        E 10 90 3f 37
        E 110 90 24 00
        E 10 90 3f 00
        E 120 90 26 12
        E 120 90 26 00
        E 101 90 24 76
        E 20 90 3e 49
        E 100 90 24 00
        E 20 90 3e 00
        E 359 90 3e 2a
        E 121 90 3e 00
        E 123 90 3f 22
        E 120 90 3f 00
        E 116 90 3e 56
        E 120 90 3e 00
        E 350 90 26 7c
        E 8 90 3e 74
        E 112 90 26 00
        E 8 90 3e 00
        E 355 90 26 40
        E 15 90 19 49
        E 105 90 26 00
        E 15 90 19 00
        E 827 b0 7b 00
        CCINTERP 32
        CHASE_CC_TAKEOFFS 1
        GUID {B0E45400-B4DF-4198-AB32-B66C174737D8}
        IGNTEMPO 0 120 4 4
        SRCCOLOR 1
        VELLANE -1 100 0
        CFGEDITVIEW -46865.066667 0.248624 62 12 0 -1 0 0 0 0.5
        KEYSNAP 0
        TRACKSEL 0
        EVTFILTER 0 -1 -1 -1 -1 0 0 0 0 -1 -1 -1 -1 0 -1 0 -1 -1
        CFGEDIT 1 1 0 1 0 16 1 1 1 1 1 0.125 90 53 1854 760 0 0 0 0 0 0 0 1 0 0.5 0 0 1 64
      >
    >
    <ITEM
      POSITION 42.5
      SNAPOFFS 0
      LENGTH 3.5
      LOOP 1
      ALLTAKES 0
      FADEIN 1 0 0 1 0 0
      FADEOUT 1 0 0 1 0 0
      MUTE 0 0
      COLOR 26337038 R
      SEL 0
      IGUID {E3E5E70D-87B9-436E-A507-07BC615F1330}
      IID 2
      NAME "Variation 03 - Variation_03.mid"
      VOLPAN 1 0 1 -1
      SOFFS 0 0
      PLAYRATE 1 1 0 -1 0 0.0025
      CHANMODE 0
      GUID {B3B6F1AA-2656-4C4A-8805-DC73D92B7FF9}
      <SOURCE MIDI
        HASDATA 1 960 QN
        CCINTERP 32
        POOLEDEVTS {E48F2775-C2ED-460D-BC4E-FC58C8AD765E}
        <X 0 0 0 0 3 "Variation 03"
          /wNWYXJpYXRpb24gMDM=
        >
        E 0 90 24 6c
        E 0 90 34 6c
        E 0 90 39 6c
        E 9 90 15 28
        E 111 80 24 00
        E 0 80 34 00
        E 0 80 39 00
        E 9 90 15 00
        E 831 90 3c 7e
        E 0 90 26 7e
        E 120 80 3c 00
        E 0 80 26 00
        E 360 90 23 7e
        E 120 80 23 00
        E 360 90 23 7e
        E 0 90 35 7e
        E 120 80 23 00
        E 0 80 35 00
        E 120 90 2f 60
        E 120 80 2f 00
        E 0 90 2d 60
        E 120 80 2d 00
        E 0 90 2f 60
        E 120 80 2f 00
        E 0 90 2d 60
        E 120 80 2d 00
        E 0 90 2b 60
        E 120 80 2b 00
        E 120 90 2b 60
        E 120 80 2b 00
        E 120 90 29 60
        E 120 80 29 00
        E 0 90 29 60
        E 120 80 29 00
        E 0 90 29 60
        E 120 80 29 00
        e 120 90 29 60
        e 120 80 29 00
        E 120 90 35 43
        E 120 80 35 00
        E 360 90 35 56
        E 120 80 35 00
        E 360 90 26 7e
        E 0 90 35 7e
        E 120 80 26 00
        E 0 80 35 00
        E 360 90 23 7e
        E 0 90 35 5d
        E 120 80 23 00
        E 0 80 35 00
        E 360 90 26 7e
        E 120 80 26 00
        E 1808 90 3e 2f
        E 120 90 3e 00
        E 339 90 24 5d
        E 19 90 3e 23
        E 102 90 24 00
        E 19 90 3e 00
        E 99 90 26 0d
        E 121 90 26 00
        E 6 90 26 12
        E 120 90 26 00
        E 1 90 24 6b
        E 24 90 3e 51
        E 97 90 24 00
        E 23 90 3e 00
        E 347 90 3e 1f
        E 120 90 3e 00
        E 120 90 26 16
        E 121 90 26 00
        E 122 90 3e 45
        E 121 90 3e 00
        E 356 90 26 78
        E 14 90 3e 76
        E 106 90 26 00
        E 14 90 3e 00
        E 97 90 26 38
        E 120 90 26 00
        E 140 90 3e 24
        E 120 90 3e 00
        E 357 90 3e 2a
        E 2 90 24 49
        E 118 90 3e 00
        E 3 90 24 00
        E 344 90 24 73
        E 18 90 3f 54
        E 102 90 24 00
        E 18 90 3f 00
        E 356 90 3e 20
        E 120 90 3e 00
        E 118 90 3e 13
        E 119 90 3e 00
        E 116 90 3f 59
        E 120 90 3f 00
        E 344 90 26 79
        E 11 90 3e 72
        E 109 90 26 00
        E 11 90 3e 00
        E 356 90 3f 2d
        E 120 90 3f 00
        E 341 90 24 5a
        E 14 90 3f 3b
        E 106 90 24 00
        E 14 90 3f 00
        E 361 90 24 74
        E 14 90 3f 4f
        E 106 90 24 00
        E 14 90 3f 00
        E 355 90 3e 2b
        E 120 90 3e 00
        E 124 90 26 18
        E 120 90 26 00
        E 114 90 3f 46
        E 119 90 3f 00
        E 361 90 26 79
        E 9 90 3f 74
        E 111 90 26 00
        E 9 90 3f 00
        E 358 90 3f 27
        E 120 90 3f 00
        E 353 90 26 30
        E 3 90 1a 76
        E 117 90 26 00
        E 3 90 1a 00
        E 356 90 24 74
        E 14 90 3f 3a
        E 106 90 24 00
        E 14 90 3f 00
        E 354 90 3e 2a
        E 120 90 3e 00
        E 124 90 3e 1c
        E 120 90 3e 00
        E 107 90 3f 40
        E 120 90 3f 00
        E 135 90 26 07
        E 120 90 26 00
        E 107 90 26 77
        E 12 90 3e 78
        E 108 90 26 00
        E 12 90 3e 00
        E 93 90 26 2d
        E 120 90 26 00
        E 127 90 3f 2d
        E 120 90 3f 00
        E 362 90 24 5d
        E 10 90 3f 37
        E 110 90 24 00
        E 10 90 3f 00
        E 120 90 26 12
        E 120 90 26 00
        E 101 90 24 76
        E 20 90 3e 49
        E 100 90 24 00
        E 20 90 3e 00
        E 359 90 3e 2a
        E 121 90 3e 00
        E 123 90 3f 22
        E 120 90 3f 00
        E 116 90 3e 56
        E 120 90 3e 00
        E 350 90 26 7c
        E 8 90 3e 74
        E 112 90 26 00
        E 8 90 3e 00
        E 355 90 26 40
        E 15 90 19 49
        E 105 90 26 00
        E 15 90 19 00
        E 827 b0 7b 00
        CCINTERP 32
        CHASE_CC_TAKEOFFS 1
        GUID {B0E45400-B4DF-4198-AB32-B66C174737D8}
        IGNTEMPO 0 120 4 4
        SRCCOLOR 1
        VELLANE -1 100 0
        CFGEDITVIEW -53585.066667 0.248624 62 12 0 -1 0 0 0 0.5
        KEYSNAP 0
        TRACKSEL 0
        EVTFILTER 0 -1 -1 -1 -1 0 0 0 0 -1 -1 -1 -1 0 -1 0 -1 -1
        CFGEDIT 1 1 0 1 0 16 1 1 1 1 1 0.125 90 53 1854 760 0 0 0 0 0 0 0 1 0 0.5 0 0 1 64
      >
    >
    <ITEM
      POSITION 46
      SNAPOFFS 0
      LENGTH 2
      LOOP 1
      ALLTAKES 0
      FADEIN 1 0 0 1 0 0
      FADEOUT 1 0 0 1 0 0
      MUTE 0 0
      COLOR 28019170 R
      SEL 0
      IGUID {ADB8FFBD-B1D2-492F-9356-8B4D9CF3BE56}
      IID 2
      NAME "Variation 03 - Variation_03.mid"
      VOLPAN 1 0 1 -1
      SOFFS 0 0
      PLAYRATE 1 1 0 -1 0 0.0025
      CHANMODE 0
      GUID {B2B9C9C7-4BB3-41A5-BD46-2E41B21CF99A}
      <SOURCE MIDI
        HASDATA 1 960 QN
        CCINTERP 32
        POOLEDEVTS {6D324152-5B0F-4C5F-A225-B3A700FBCF88}
        <X 0 0 0 0 3 "Variation 03"
          /wNWYXJpYXRpb24gMDM=
        >
        E 0 90 3e 60
        E 120 80 3e 00
        E 840 90 3e 60
        E 120 80 3e 00
        E 840 90 3e 60
        E 120 80 3e 00
        e 840 90 3e 60
        e 120 80 3e 00
        E 4688 90 3e 2f
        E 120 90 3e 00
        E 339 90 24 5d
        E 19 90 3e 23
        E 102 90 24 00
        E 19 90 3e 00
        E 99 90 26 0d
        E 121 90 26 00
        E 6 90 26 12
        E 120 90 26 00
        E 1 90 24 6b
        E 24 90 3e 51
        E 97 90 24 00
        E 23 90 3e 00
        E 347 90 3e 1f
        E 120 90 3e 00
        E 120 90 26 16
        E 121 90 26 00
        E 122 90 3e 45
        E 121 90 3e 00
        E 356 90 26 78
        E 14 90 3e 76
        E 106 90 26 00
        E 14 90 3e 00
        E 97 90 26 38
        E 120 90 26 00
        E 140 90 3e 24
        E 120 90 3e 00
        E 357 90 3e 2a
        E 2 90 24 49
        E 118 90 3e 00
        E 3 90 24 00
        E 344 90 24 73
        E 18 90 3f 54
        E 102 90 24 00
        E 18 90 3f 00
        E 356 90 3e 20
        E 120 90 3e 00
        E 118 90 3e 13
        E 119 90 3e 00
        E 116 90 3f 59
        E 120 90 3f 00
        E 344 90 26 79
        E 11 90 3e 72
        E 109 90 26 00
        E 11 90 3e 00
        E 356 90 3f 2d
        E 120 90 3f 00
        E 341 90 24 5a
        E 14 90 3f 3b
        E 106 90 24 00
        E 14 90 3f 00
        E 361 90 24 74
        E 14 90 3f 4f
        E 106 90 24 00
        E 14 90 3f 00
        E 355 90 3e 2b
        E 120 90 3e 00
        E 124 90 26 18
        E 120 90 26 00
        E 114 90 3f 46
        E 119 90 3f 00
        E 361 90 26 79
        E 9 90 3f 74
        E 111 90 26 00
        E 9 90 3f 00
        E 358 90 3f 27
        E 120 90 3f 00
        E 353 90 26 30
        E 3 90 1a 76
        E 117 90 26 00
        E 3 90 1a 00
        E 356 90 24 74
        E 14 90 3f 3a
        E 106 90 24 00
        E 14 90 3f 00
        E 354 90 3e 2a
        E 120 90 3e 00
        E 124 90 3e 1c
        E 120 90 3e 00
        E 107 90 3f 40
        E 120 90 3f 00
        E 135 90 26 07
        E 120 90 26 00
        E 107 90 26 77
        E 12 90 3e 78
        E 108 90 26 00
        E 12 90 3e 00
        E 93 90 26 2d
        E 120 90 26 00
        E 127 90 3f 2d
        E 120 90 3f 00
        E 362 90 24 5d
        E 10 90 3f 37
        E 110 90 24 00
        E 10 90 3f 00
        E 120 90 26 12
        E 120 90 26 00
        E 101 90 24 76
        E 20 90 3e 49
        E 100 90 24 00
        E 20 90 3e 00
        E 359 90 3e 2a
        E 121 90 3e 00
        E 123 90 3f 22
        E 120 90 3f 00
        E 116 90 3e 56
        E 120 90 3e 00
        E 350 90 26 7c
        E 8 90 3e 74
        E 112 90 26 00
        E 8 90 3e 00
        E 355 90 26 40
        E 15 90 19 49
        E 105 90 26 00
        E 15 90 19 00
        E 827 b0 7b 00
        CCINTERP 32
        CHASE_CC_TAKEOFFS 1
        GUID {B0E45400-B4DF-4198-AB32-B66C174737D8}
        IGNTEMPO 0 120 4 4
        SRCCOLOR 1
        VELLANE -1 100 0
        CFGEDITVIEW -235.900249 0.168557 62 12 0 -1 0 0 0 0.5
        KEYSNAP 0
        TRACKSEL 0
        EVTFILTER 0 -1 -1 -1 -1 0 0 0 0 -1 -1 -1 -1 0 -1 0 -1 -1
        CFGEDIT 1 1 0 1 0 16 1 1 1 1 1 0.125 90 53 1854 760 0 0 0 0 0 0 0 1 0 0.5 0 0 1 64
      >
    >
    <ITEM
      POSITION 48
      SNAPOFFS 0
      LENGTH 2
      LOOP 1
      ALLTAKES 0
      FADEIN 1 0 0 1 0 0
      FADEOUT 1 0 0 1 0 0
      MUTE 0 0
      COLOR 28019170 R
      SEL 0
      IGUID {06C4CA0B-241D-4648-92DA-7BA021EFAB60}
      IID 2
      NAME "Variation 03 - Variation_03.mid"
      VOLPAN 1 0 1 -1
      SOFFS 0 0
      PLAYRATE 1 1 0 -1 0 0.0025
      CHANMODE 0
      GUID {A6107EDC-BFA0-4495-9E84-7E96BA3BA48A}
      <SOURCE MIDI
        HASDATA 1 960 QN
        CCINTERP 32
        POOLEDEVTS {5B2B3204-004F-4E07-A1A8-3176C6C57207}
        <X 0 0 0 0 3 "Variation 03"
          /wNWYXJpYXRpb24gMDM=
        >
        E 0 90 3e 60
        E 120 80 3e 00
        E 840 90 3e 60
        E 120 80 3e 00
        E 840 90 3e 60
        E 120 80 3e 00
        e 840 90 3e 60
        e 120 80 3e 00
        E 4688 90 3e 2f
        E 120 90 3e 00
        E 339 90 24 5d
        E 19 90 3e 23
        E 102 90 24 00
        E 19 90 3e 00
        E 99 90 26 0d
        E 121 90 26 00
        E 6 90 26 12
        E 120 90 26 00
        E 1 90 24 6b
        E 24 90 3e 51
        E 97 90 24 00
        E 23 90 3e 00
        E 347 90 3e 1f
        E 120 90 3e 00
        E 120 90 26 16
        E 121 90 26 00
        E 122 90 3e 45
        E 121 90 3e 00
        E 356 90 26 78
        E 14 90 3e 76
        E 106 90 26 00
        E 14 90 3e 00
        E 97 90 26 38
        E 120 90 26 00
        E 140 90 3e 24
        E 120 90 3e 00
        E 357 90 3e 2a
        E 2 90 24 49
        E 118 90 3e 00
        E 3 90 24 00
        E 344 90 24 73
        E 18 90 3f 54
        E 102 90 24 00
        E 18 90 3f 00
        E 356 90 3e 20
        E 120 90 3e 00
        E 118 90 3e 13
        E 119 90 3e 00
        E 116 90 3f 59
        E 120 90 3f 00
        E 344 90 26 79
        E 11 90 3e 72
        E 109 90 26 00
        E 11 90 3e 00
        E 356 90 3f 2d
        E 120 90 3f 00
        E 341 90 24 5a
        E 14 90 3f 3b
        E 106 90 24 00
        E 14 90 3f 00
        E 361 90 24 74
        E 14 90 3f 4f
        E 106 90 24 00
        E 14 90 3f 00
        E 355 90 3e 2b
        E 120 90 3e 00
        E 124 90 26 18
        E 120 90 26 00
        E 114 90 3f 46
        E 119 90 3f 00
        E 361 90 26 79
        E 9 90 3f 74
        E 111 90 26 00
        E 9 90 3f 00
        E 358 90 3f 27
        E 120 90 3f 00
        E 353 90 26 30
        E 3 90 1a 76
        E 117 90 26 00
        E 3 90 1a 00
        E 356 90 24 74
        E 14 90 3f 3a
        E 106 90 24 00
        E 14 90 3f 00
        E 354 90 3e 2a
        E 120 90 3e 00
        E 124 90 3e 1c
        E 120 90 3e 00
        E 107 90 3f 40
        E 120 90 3f 00
        E 135 90 26 07
        E 120 90 26 00
        E 107 90 26 77
        E 12 90 3e 78
        E 108 90 26 00
        E 12 90 3e 00
        E 93 90 26 2d
        E 120 90 26 00
        E 127 90 3f 2d
        E 120 90 3f 00
        E 362 90 24 5d
        E 10 90 3f 37
        E 110 90 24 00
        E 10 90 3f 00
        E 120 90 26 12
        E 120 90 26 00
        E 101 90 24 76
        E 20 90 3e 49
        E 100 90 24 00
        E 20 90 3e 00
        E 359 90 3e 2a
        E 121 90 3e 00
        E 123 90 3f 22
        E 120 90 3f 00
        E 116 90 3e 56
        E 120 90 3e 00
        E 350 90 26 7c
        E 8 90 3e 74
        E 112 90 26 00
        E 8 90 3e 00
        E 355 90 26 40
        E 15 90 19 49
        E 105 90 26 00
        E 15 90 19 00
        E 827 b0 7b 00
        CCINTERP 32
        CHASE_CC_TAKEOFFS 1
        GUID {B0E45400-B4DF-4198-AB32-B66C174737D8}
        IGNTEMPO 0 120 4 4
        SRCCOLOR 1
        VELLANE -1 100 0
        CFGEDITVIEW -235.900249 0.168557 62 12 0 -1 0 0 0 0.5
        KEYSNAP 0
        TRACKSEL 0
        EVTFILTER 0 -1 -1 -1 -1 0 0 0 0 -1 -1 -1 -1 0 -1 0 -1 -1
        CFGEDIT 1 1 0 1 0 16 1 1 1 1 1 0.125 90 53 1854 760 0 0 0 0 0 0 0 1 0 0.5 0 0 1 64
      >
    >
    <ITEM
      POSITION 50
      SNAPOFFS 0
      LENGTH 2
      LOOP 1
      ALLTAKES 0
      FADEIN 1 0 0 1 0 0
      FADEOUT 1 0 0 1 0 0
      MUTE 0 0
      COLOR 28019170 R
      SEL 0
      IGUID {DDBCFD08-BC82-46B7-BC22-8078AF43166E}
      IID 2
      NAME "Variation 03 - Variation_03.mid"
      VOLPAN 1 0 1 -1
      SOFFS 0 0
      PLAYRATE 1 1 0 -1 0 0.0025
      CHANMODE 0
      GUID {A5C3B784-16FB-4B6C-BCDF-6FDACDFD7E71}
      <SOURCE MIDI
        HASDATA 1 960 QN
        CCINTERP 32
        POOLEDEVTS {12559CE1-DF92-4ECF-8BB6-7F8DF442E823}
        <X 0 0 0 0 3 "Variation 03"
          /wNWYXJpYXRpb24gMDM=
        >
        E 0 90 3e 60
        E 120 80 3e 00
        E 840 90 3e 60
        E 120 80 3e 00
        E 840 90 3e 60
        E 120 80 3e 00
        e 840 90 3e 60
        e 120 80 3e 00
        E 4688 90 3e 2f
        E 120 90 3e 00
        E 339 90 24 5d
        E 19 90 3e 23
        E 102 90 24 00
        E 19 90 3e 00
        E 99 90 26 0d
        E 121 90 26 00
        E 6 90 26 12
        E 120 90 26 00
        E 1 90 24 6b
        E 24 90 3e 51
        E 97 90 24 00
        E 23 90 3e 00
        E 347 90 3e 1f
        E 120 90 3e 00
        E 120 90 26 16
        E 121 90 26 00
        E 122 90 3e 45
        E 121 90 3e 00
        E 356 90 26 78
        E 14 90 3e 76
        E 106 90 26 00
        E 14 90 3e 00
        E 97 90 26 38
        E 120 90 26 00
        E 140 90 3e 24
        E 120 90 3e 00
        E 357 90 3e 2a
        E 2 90 24 49
        E 118 90 3e 00
        E 3 90 24 00
        E 344 90 24 73
        E 18 90 3f 54
        E 102 90 24 00
        E 18 90 3f 00
        E 356 90 3e 20
        E 120 90 3e 00
        E 118 90 3e 13
        E 119 90 3e 00
        E 116 90 3f 59
        E 120 90 3f 00
        E 344 90 26 79
        E 11 90 3e 72
        E 109 90 26 00
        E 11 90 3e 00
        E 356 90 3f 2d
        E 120 90 3f 00
        E 341 90 24 5a
        E 14 90 3f 3b
        E 106 90 24 00
        E 14 90 3f 00
        E 361 90 24 74
        E 14 90 3f 4f
        E 106 90 24 00
        E 14 90 3f 00
        E 355 90 3e 2b
        E 120 90 3e 00
        E 124 90 26 18
        E 120 90 26 00
        E 114 90 3f 46
        E 119 90 3f 00
        E 361 90 26 79
        E 9 90 3f 74
        E 111 90 26 00
        E 9 90 3f 00
        E 358 90 3f 27
        E 120 90 3f 00
        E 353 90 26 30
        E 3 90 1a 76
        E 117 90 26 00
        E 3 90 1a 00
        E 356 90 24 74
        E 14 90 3f 3a
        E 106 90 24 00
        E 14 90 3f 00
        E 354 90 3e 2a
        E 120 90 3e 00
        E 124 90 3e 1c
        E 120 90 3e 00
        E 107 90 3f 40
        E 120 90 3f 00
        E 135 90 26 07
        E 120 90 26 00
        E 107 90 26 77
        E 12 90 3e 78
        E 108 90 26 00
        E 12 90 3e 00
        E 93 90 26 2d
        E 120 90 26 00
        E 127 90 3f 2d
        E 120 90 3f 00
        E 362 90 24 5d
        E 10 90 3f 37
        E 110 90 24 00
        E 10 90 3f 00
        E 120 90 26 12
        E 120 90 26 00
        E 101 90 24 76
        E 20 90 3e 49
        E 100 90 24 00
        E 20 90 3e 00
        E 359 90 3e 2a
        E 121 90 3e 00
        E 123 90 3f 22
        E 120 90 3f 00
        E 116 90 3e 56
        E 120 90 3e 00
        E 350 90 26 7c
        E 8 90 3e 74
        E 112 90 26 00
        E 8 90 3e 00
        E 355 90 26 40
        E 15 90 19 49
        E 105 90 26 00
        E 15 90 19 00
        E 827 b0 7b 00
        CCINTERP 32
        CHASE_CC_TAKEOFFS 1
        GUID {B0E45400-B4DF-4198-AB32-B66C174737D8}
        IGNTEMPO 0 120 4 4
        SRCCOLOR 1
        VELLANE -1 100 0
        CFGEDITVIEW -235.900249 0.168557 62 12 0 -1 0 0 0 0.5
        KEYSNAP 0
        TRACKSEL 0
        EVTFILTER 0 -1 -1 -1 -1 0 0 0 0 -1 -1 -1 -1 0 -1 0 -1 -1
        CFGEDIT 1 1 0 1 0 16 1 1 1 1 1 0.125 90 53 1854 760 0 0 0 0 0 0 0 1 0 0.5 0 0 1 64
      >
    >
    <ITEM
      POSITION 52
      SNAPOFFS 0
      LENGTH 2
      LOOP 1
      ALLTAKES 0
      FADEIN 1 0 0 1 0 0
      FADEOUT 1 0 0 1 0 0
      MUTE 0 0
      COLOR 28019170 R
      SEL 0
      IGUID {B66FE670-788A-43E7-A981-C2D797D98FE2}
      IID 2
      NAME "Variation 03 - Variation_03.mid"
      VOLPAN 1 0 1 -1
      SOFFS 0 0
      PLAYRATE 1 1 0 -1 0 0.0025
      CHANMODE 0
      GUID {D5206E13-3A43-4CE9-8E40-0B5642CF1D08}
      <SOURCE MIDI
        HASDATA 1 960 QN
        CCINTERP 32
        POOLEDEVTS {2B15F020-0BA2-4E81-9C19-F56AAD93FE6A}
        <X 0 0 0 0 3 "Variation 03"
          /wNWYXJpYXRpb24gMDM=
        >
        E 0 90 3e 60
        E 120 80 3e 00
        E 840 90 3e 60
        E 120 80 3e 00
        E 840 90 3e 60
        E 120 80 3e 00
        e 840 90 3e 60
        e 120 80 3e 00
        E 4688 90 3e 2f
        E 120 90 3e 00
        E 339 90 24 5d
        E 19 90 3e 23
        E 102 90 24 00
        E 19 90 3e 00
        E 99 90 26 0d
        E 121 90 26 00
        E 6 90 26 12
        E 120 90 26 00
        E 1 90 24 6b
        E 24 90 3e 51
        E 97 90 24 00
        E 23 90 3e 00
        E 347 90 3e 1f
        E 120 90 3e 00
        E 120 90 26 16
        E 121 90 26 00
        E 122 90 3e 45
        E 121 90 3e 00
        E 356 90 26 78
        E 14 90 3e 76
        E 106 90 26 00
        E 14 90 3e 00
        E 97 90 26 38
        E 120 90 26 00
        E 140 90 3e 24
        E 120 90 3e 00
        E 357 90 3e 2a
        E 2 90 24 49
        E 118 90 3e 00
        E 3 90 24 00
        E 344 90 24 73
        E 18 90 3f 54
        E 102 90 24 00
        E 18 90 3f 00
        E 356 90 3e 20
        E 120 90 3e 00
        E 118 90 3e 13
        E 119 90 3e 00
        E 116 90 3f 59
        E 120 90 3f 00
        E 344 90 26 79
        E 11 90 3e 72
        E 109 90 26 00
        E 11 90 3e 00
        E 356 90 3f 2d
        E 120 90 3f 00
        E 341 90 24 5a
        E 14 90 3f 3b
        E 106 90 24 00
        E 14 90 3f 00
        E 361 90 24 74
        E 14 90 3f 4f
        E 106 90 24 00
        E 14 90 3f 00
        E 355 90 3e 2b
        E 120 90 3e 00
        E 124 90 26 18
        E 120 90 26 00
        E 114 90 3f 46
        E 119 90 3f 00
        E 361 90 26 79
        E 9 90 3f 74
        E 111 90 26 00
        E 9 90 3f 00
        E 358 90 3f 27
        E 120 90 3f 00
        E 353 90 26 30
        E 3 90 1a 76
        E 117 90 26 00
        E 3 90 1a 00
        E 356 90 24 74
        E 14 90 3f 3a
        E 106 90 24 00
        E 14 90 3f 00
        E 354 90 3e 2a
        E 120 90 3e 00
        E 124 90 3e 1c
        E 120 90 3e 00
        E 107 90 3f 40
        E 120 90 3f 00
        E 135 90 26 07
        E 120 90 26 00
        E 107 90 26 77
        E 12 90 3e 78
        E 108 90 26 00
        E 12 90 3e 00
        E 93 90 26 2d
        E 120 90 26 00
        E 127 90 3f 2d
        E 120 90 3f 00
        E 362 90 24 5d
        E 10 90 3f 37
        E 110 90 24 00
        E 10 90 3f 00
        E 120 90 26 12
        E 120 90 26 00
        E 101 90 24 76
        E 20 90 3e 49
        E 100 90 24 00
        E 20 90 3e 00
        E 359 90 3e 2a
        E 121 90 3e 00
        E 123 90 3f 22
        E 120 90 3f 00
        E 116 90 3e 56
        E 120 90 3e 00
        E 350 90 26 7c
        E 8 90 3e 74
        E 112 90 26 00
        E 8 90 3e 00
        E 355 90 26 40
        E 15 90 19 49
        E 105 90 26 00
        E 15 90 19 00
        E 827 b0 7b 00
        CCINTERP 32
        CHASE_CC_TAKEOFFS 1
        GUID {B0E45400-B4DF-4198-AB32-B66C174737D8}
        IGNTEMPO 0 120 4 4
        SRCCOLOR 1
        VELLANE -1 100 0
        CFGEDITVIEW -235.900249 0.168557 62 12 0 -1 0 0 0 0.5
        KEYSNAP 0
        TRACKSEL 0
        EVTFILTER 0 -1 -1 -1 -1 0 0 0 0 -1 -1 -1 -1 0 -1 0 -1 -1
        CFGEDIT 1 1 0 1 0 16 1 1 1 1 1 0.125 90 53 1854 760 0 0 0 0 0 0 0 1 0 0.5 0 0 1 64
      >
    >
    <ITEM
      POSITION 54
      SNAPOFFS 0
      LENGTH 2
      LOOP 1
      ALLTAKES 0
      FADEIN 1 0 0 1 0 0
      FADEOUT 1 0 0 1 0 0
      MUTE 0 0
      COLOR 28019170 R
      SEL 0
      IGUID {A6A55E5C-F997-441E-B037-A6C1D45669C9}
      IID 2
      NAME "Variation 03 - Variation_03.mid"
      VOLPAN 1 0 1 -1
      SOFFS 0 0
      PLAYRATE 1 1 0 -1 0 0.0025
      CHANMODE 0
      GUID {249AE377-184F-4309-9E37-748E2C440B28}
      <SOURCE MIDI
        HASDATA 1 960 QN
        CCINTERP 32
        POOLEDEVTS {78434605-CC9E-467A-82E9-35CAB37DA585}
        <X 0 0 0 0 3 "Variation 03"
          /wNWYXJpYXRpb24gMDM=
        >
        E 0 90 3e 60
        E 120 80 3e 00
        E 840 90 3e 60
        E 120 80 3e 00
        E 840 90 3e 60
        E 120 80 3e 00
        e 840 90 3e 60
        e 120 80 3e 00
        E 4688 90 3e 2f
        E 120 90 3e 00
        E 339 90 24 5d
        E 19 90 3e 23
        E 102 90 24 00
        E 19 90 3e 00
        E 99 90 26 0d
        E 121 90 26 00
        E 6 90 26 12
        E 120 90 26 00
        E 1 90 24 6b
        E 24 90 3e 51
        E 97 90 24 00
        E 23 90 3e 00
        E 347 90 3e 1f
        E 120 90 3e 00
        E 120 90 26 16
        E 121 90 26 00
        E 122 90 3e 45
        E 121 90 3e 00
        E 356 90 26 78
        E 14 90 3e 76
        E 106 90 26 00
        E 14 90 3e 00
        E 97 90 26 38
        E 120 90 26 00
        E 140 90 3e 24
        E 120 90 3e 00
        E 357 90 3e 2a
        E 2 90 24 49
        E 118 90 3e 00
        E 3 90 24 00
        E 344 90 24 73
        E 18 90 3f 54
        E 102 90 24 00
        E 18 90 3f 00
        E 356 90 3e 20
        E 120 90 3e 00
        E 118 90 3e 13
        E 119 90 3e 00
        E 116 90 3f 59
        E 120 90 3f 00
        E 344 90 26 79
        E 11 90 3e 72
        E 109 90 26 00
        E 11 90 3e 00
        E 356 90 3f 2d
        E 120 90 3f 00
        E 341 90 24 5a
        E 14 90 3f 3b
        E 106 90 24 00
        E 14 90 3f 00
        E 361 90 24 74
        E 14 90 3f 4f
        E 106 90 24 00
        E 14 90 3f 00
        E 355 90 3e 2b
        E 120 90 3e 00
        E 124 90 26 18
        E 120 90 26 00
        E 114 90 3f 46
        E 119 90 3f 00
        E 361 90 26 79
        E 9 90 3f 74
        E 111 90 26 00
        E 9 90 3f 00
        E 358 90 3f 27
        E 120 90 3f 00
        E 353 90 26 30
        E 3 90 1a 76
        E 117 90 26 00
        E 3 90 1a 00
        E 356 90 24 74
        E 14 90 3f 3a
        E 106 90 24 00
        E 14 90 3f 00
        E 354 90 3e 2a
        E 120 90 3e 00
        E 124 90 3e 1c
        E 120 90 3e 00
        E 107 90 3f 40
        E 120 90 3f 00
        E 135 90 26 07
        E 120 90 26 00
        E 107 90 26 77
        E 12 90 3e 78
        E 108 90 26 00
        E 12 90 3e 00
        E 93 90 26 2d
        E 120 90 26 00
        E 127 90 3f 2d
        E 120 90 3f 00
        E 362 90 24 5d
        E 10 90 3f 37
        E 110 90 24 00
        E 10 90 3f 00
        E 120 90 26 12
        E 120 90 26 00
        E 101 90 24 76
        E 20 90 3e 49
        E 100 90 24 00
        E 20 90 3e 00
        E 359 90 3e 2a
        E 121 90 3e 00
        E 123 90 3f 22
        E 120 90 3f 00
        E 116 90 3e 56
        E 120 90 3e 00
        E 350 90 26 7c
        E 8 90 3e 74
        E 112 90 26 00
        E 8 90 3e 00
        E 355 90 26 40
        E 15 90 19 49
        E 105 90 26 00
        E 15 90 19 00
        E 827 b0 7b 00
        CCINTERP 32
        CHASE_CC_TAKEOFFS 1
        GUID {B0E45400-B4DF-4198-AB32-B66C174737D8}
        IGNTEMPO 0 120 4 4
        SRCCOLOR 1
        VELLANE -1 100 0
        CFGEDITVIEW -4075.900249 0.168557 62 12 0 -1 0 0 0 0.5
        KEYSNAP 0
        TRACKSEL 0
        EVTFILTER 0 -1 -1 -1 -1 0 0 0 0 -1 -1 -1 -1 0 -1 0 -1 -1
        CFGEDIT 1 1 0 1 0 16 1 1 1 1 1 0.125 90 53 1854 760 0 0 0 0 0 0 0 1 0 0.5 0 0 1 64
      >
    >
    <ITEM
      POSITION 56
      SNAPOFFS 0
      LENGTH 2
      LOOP 1
      ALLTAKES 0
      FADEIN 1 0 0 1 0 0
      FADEOUT 1 0 0 1 0 0
      MUTE 0 0
      COLOR 28019170 R
      SEL 0
      IGUID {09A2121D-5F03-4EA7-8358-0CA42C0F1994}
      IID 2
      NAME "Variation 03 - Variation_03.mid"
      VOLPAN 1 0 1 -1
      SOFFS 0 0
      PLAYRATE 1 1 0 -1 0 0.0025
      CHANMODE 0
      GUID {17C1D9C9-D579-4614-874F-5D83F94B6F6B}
      <SOURCE MIDI
        HASDATA 1 960 QN
        CCINTERP 32
        POOLEDEVTS {9A496F9D-9ADD-4305-A110-04B538B91F85}
        <X 0 0 0 0 3 "Variation 03"
          /wNWYXJpYXRpb24gMDM=
        >
        E 0 90 3e 60
        E 120 80 3e 00
        E 840 90 3e 60
        E 120 80 3e 00
        E 840 90 3e 60
        E 120 80 3e 00
        e 840 90 3e 60
        e 120 80 3e 00
        E 4688 90 3e 2f
        E 120 90 3e 00
        E 339 90 24 5d
        E 19 90 3e 23
        E 102 90 24 00
        E 19 90 3e 00
        E 99 90 26 0d
        E 121 90 26 00
        E 6 90 26 12
        E 120 90 26 00
        E 1 90 24 6b
        E 24 90 3e 51
        E 97 90 24 00
        E 23 90 3e 00
        E 347 90 3e 1f
        E 120 90 3e 00
        E 120 90 26 16
        E 121 90 26 00
        E 122 90 3e 45
        E 121 90 3e 00
        E 356 90 26 78
        E 14 90 3e 76
        E 106 90 26 00
        E 14 90 3e 00
        E 97 90 26 38
        E 120 90 26 00
        E 140 90 3e 24
        E 120 90 3e 00
        E 357 90 3e 2a
        E 2 90 24 49
        E 118 90 3e 00
        E 3 90 24 00
        E 344 90 24 73
        E 18 90 3f 54
        E 102 90 24 00
        E 18 90 3f 00
        E 356 90 3e 20
        E 120 90 3e 00
        E 118 90 3e 13
        E 119 90 3e 00
        E 116 90 3f 59
        E 120 90 3f 00
        E 344 90 26 79
        E 11 90 3e 72
        E 109 90 26 00
        E 11 90 3e 00
        E 356 90 3f 2d
        E 120 90 3f 00
        E 341 90 24 5a
        E 14 90 3f 3b
        E 106 90 24 00
        E 14 90 3f 00
        E 361 90 24 74
        E 14 90 3f 4f
        E 106 90 24 00
        E 14 90 3f 00
        E 355 90 3e 2b
        E 120 90 3e 00
        E 124 90 26 18
        E 120 90 26 00
        E 114 90 3f 46
        E 119 90 3f 00
        E 361 90 26 79
        E 9 90 3f 74
        E 111 90 26 00
        E 9 90 3f 00
        E 358 90 3f 27
        E 120 90 3f 00
        E 353 90 26 30
        E 3 90 1a 76
        E 117 90 26 00
        E 3 90 1a 00
        E 356 90 24 74
        E 14 90 3f 3a
        E 106 90 24 00
        E 14 90 3f 00
        E 354 90 3e 2a
        E 120 90 3e 00
        E 124 90 3e 1c
        E 120 90 3e 00
        E 107 90 3f 40
        E 120 90 3f 00
        E 135 90 26 07
        E 120 90 26 00
        E 107 90 26 77
        E 12 90 3e 78
        E 108 90 26 00
        E 12 90 3e 00
        E 93 90 26 2d
        E 120 90 26 00
        E 127 90 3f 2d
        E 120 90 3f 00
        E 362 90 24 5d
        E 10 90 3f 37
        E 110 90 24 00
        E 10 90 3f 00
        E 120 90 26 12
        E 120 90 26 00
        E 101 90 24 76
        E 20 90 3e 49
        E 100 90 24 00
        E 20 90 3e 00
        E 359 90 3e 2a
        E 121 90 3e 00
        E 123 90 3f 22
        E 120 90 3f 00
        E 116 90 3e 56
        E 120 90 3e 00
        E 350 90 26 7c
        E 8 90 3e 74
        E 112 90 26 00
        E 8 90 3e 00
        E 355 90 26 40
        E 15 90 19 49
        E 105 90 26 00
        E 15 90 19 00
        E 827 b0 7b 00
        CCINTERP 32
        CHASE_CC_TAKEOFFS 1
        GUID {B0E45400-B4DF-4198-AB32-B66C174737D8}
        IGNTEMPO 0 120 4 4
        SRCCOLOR 1
        VELLANE -1 100 0
        CFGEDITVIEW -4075.900249 0.168557 62 12 0 -1 0 0 0 0.5
        KEYSNAP 0
        TRACKSEL 0
        EVTFILTER 0 -1 -1 -1 -1 0 0 0 0 -1 -1 -1 -1 0 -1 0 -1 -1
        CFGEDIT 1 1 0 1 0 16 1 1 1 1 1 0.125 90 53 1854 760 0 0 0 0 0 0 0 1 0 0.5 0 0 1 64
      >
    >
    <ITEM
      POSITION 58
      SNAPOFFS 0
      LENGTH 2
      LOOP 1
      ALLTAKES 0
      FADEIN 1 0 0 1 0 0
      FADEOUT 1 0 0 1 0 0
      MUTE 0 0
      COLOR 28019170 R
      SEL 0
      IGUID {25FC6980-79A6-44FB-B433-B63CD19EB3ED}
      IID 2
      NAME "Variation 03 - Variation_03.mid"
      VOLPAN 1 0 1 -1
      SOFFS 0 0
      PLAYRATE 1 1 0 -1 0 0.0025
      CHANMODE 0
      GUID {3F311F76-00FF-48AB-91AB-BF491C03D645}
      <SOURCE MIDI
        HASDATA 1 960 QN
        CCINTERP 32
        POOLEDEVTS {04107441-81E5-4770-94C7-1180EB26073B}
        <X 0 0 0 0 3 "Variation 03"
          /wNWYXJpYXRpb24gMDM=
        >
        E 0 90 3e 60
        E 120 80 3e 00
        E 840 90 3e 60
        E 120 80 3e 00
        E 840 90 3e 60
        E 120 80 3e 00
        e 840 90 3e 60
        e 120 80 3e 00
        E 4688 90 3e 2f
        E 120 90 3e 00
        E 339 90 24 5d
        E 19 90 3e 23
        E 102 90 24 00
        E 19 90 3e 00
        E 99 90 26 0d
        E 121 90 26 00
        E 6 90 26 12
        E 120 90 26 00
        E 1 90 24 6b
        E 24 90 3e 51
        E 97 90 24 00
        E 23 90 3e 00
        E 347 90 3e 1f
        E 120 90 3e 00
        E 120 90 26 16
        E 121 90 26 00
        E 122 90 3e 45
        E 121 90 3e 00
        E 356 90 26 78
        E 14 90 3e 76
        E 106 90 26 00
        E 14 90 3e 00
        E 97 90 26 38
        E 120 90 26 00
        E 140 90 3e 24
        E 120 90 3e 00
        E 357 90 3e 2a
        E 2 90 24 49
        E 118 90 3e 00
        E 3 90 24 00
        E 344 90 24 73
        E 18 90 3f 54
        E 102 90 24 00
        E 18 90 3f 00
        E 356 90 3e 20
        E 120 90 3e 00
        E 118 90 3e 13
        E 119 90 3e 00
        E 116 90 3f 59
        E 120 90 3f 00
        E 344 90 26 79
        E 11 90 3e 72
        E 109 90 26 00
        E 11 90 3e 00
        E 356 90 3f 2d
        E 120 90 3f 00
        E 341 90 24 5a
        E 14 90 3f 3b
        E 106 90 24 00
        E 14 90 3f 00
        E 361 90 24 74
        E 14 90 3f 4f
        E 106 90 24 00
        E 14 90 3f 00
        E 355 90 3e 2b
        E 120 90 3e 00
        E 124 90 26 18
        E 120 90 26 00
        E 114 90 3f 46
        E 119 90 3f 00
        E 361 90 26 79
        E 9 90 3f 74
        E 111 90 26 00
        E 9 90 3f 00
        E 358 90 3f 27
        E 120 90 3f 00
        E 353 90 26 30
        E 3 90 1a 76
        E 117 90 26 00
        E 3 90 1a 00
        E 356 90 24 74
        E 14 90 3f 3a
        E 106 90 24 00
        E 14 90 3f 00
        E 354 90 3e 2a
        E 120 90 3e 00
        E 124 90 3e 1c
        E 120 90 3e 00
        E 107 90 3f 40
        E 120 90 3f 00
        E 135 90 26 07
        E 120 90 26 00
        E 107 90 26 77
        E 12 90 3e 78
        E 108 90 26 00
        E 12 90 3e 00
        E 93 90 26 2d
        E 120 90 26 00
        E 127 90 3f 2d
        E 120 90 3f 00
        E 362 90 24 5d
        E 10 90 3f 37
        E 110 90 24 00
        E 10 90 3f 00
        E 120 90 26 12
        E 120 90 26 00
        E 101 90 24 76
        E 20 90 3e 49
        E 100 90 24 00
        E 20 90 3e 00
        E 359 90 3e 2a
        E 121 90 3e 00
        E 123 90 3f 22
        E 120 90 3f 00
        E 116 90 3e 56
        E 120 90 3e 00
        E 350 90 26 7c
        E 8 90 3e 74
        E 112 90 26 00
        E 8 90 3e 00
        E 355 90 26 40
        E 15 90 19 49
        E 105 90 26 00
        E 15 90 19 00
        E 827 b0 7b 00
        CCINTERP 32
        CHASE_CC_TAKEOFFS 1
        GUID {B0E45400-B4DF-4198-AB32-B66C174737D8}
        IGNTEMPO 0 120 4 4
        SRCCOLOR 1
        VELLANE -1 100 0
        CFGEDITVIEW -4075.900249 0.168557 62 12 0 -1 0 0 0 0.5
        KEYSNAP 0
        TRACKSEL 0
        EVTFILTER 0 -1 -1 -1 -1 0 0 0 0 -1 -1 -1 -1 0 -1 0 -1 -1
        CFGEDIT 1 1 0 1 0 16 1 1 1 1 1 0.125 90 53 1854 760 0 0 0 0 0 0 0 1 0 0.5 0 0 1 64
      >
    >
    <ITEM
      POSITION 60
      SNAPOFFS 0
      LENGTH 2
      LOOP 1
      ALLTAKES 0
      FADEIN 1 0 0 1 0 0
      FADEOUT 1 0 0 1 0 0
      MUTE 0 0
      COLOR 28019170 R
      SEL 0
      IGUID {85BD94A4-62DA-4E28-B171-D20F2FEA00ED}
      IID 2
      NAME "Variation 03 - Variation_03.mid"
      VOLPAN 1 0 1 -1
      SOFFS 0 0
      PLAYRATE 1 1 0 -1 0 0.0025
      CHANMODE 0
      GUID {BE7BAA82-BE56-45E9-A341-92778BAF1E02}
      <SOURCE MIDI
        HASDATA 1 960 QN
        CCINTERP 32
        POOLEDEVTS {0D813163-628F-4FDF-9EE2-985623AD31B9}
        <X 0 0 0 0 3 "Variation 03"
          /wNWYXJpYXRpb24gMDM=
        >
        E 0 90 3e 60
        E 120 80 3e 00
        E 840 90 3e 60
        E 120 80 3e 00
        E 840 90 3e 60
        E 120 80 3e 00
        e 840 90 3e 60
        e 120 80 3e 00
        E 4688 90 3e 2f
        E 120 90 3e 00
        E 339 90 24 5d
        E 19 90 3e 23
        E 102 90 24 00
        E 19 90 3e 00
        E 99 90 26 0d
        E 121 90 26 00
        E 6 90 26 12
        E 120 90 26 00
        E 1 90 24 6b
        E 24 90 3e 51
        E 97 90 24 00
        E 23 90 3e 00
        E 347 90 3e 1f
        E 120 90 3e 00
        E 120 90 26 16
        E 121 90 26 00
        E 122 90 3e 45
        E 121 90 3e 00
        E 356 90 26 78
        E 14 90 3e 76
        E 106 90 26 00
        E 14 90 3e 00
        E 97 90 26 38
        E 120 90 26 00
        E 140 90 3e 24
        E 120 90 3e 00
        E 357 90 3e 2a
        E 2 90 24 49
        E 118 90 3e 00
        E 3 90 24 00
        E 344 90 24 73
        E 18 90 3f 54
        E 102 90 24 00
        E 18 90 3f 00
        E 356 90 3e 20
        E 120 90 3e 00
        E 118 90 3e 13
        E 119 90 3e 00
        E 116 90 3f 59
        E 120 90 3f 00
        E 344 90 26 79
        E 11 90 3e 72
        E 109 90 26 00
        E 11 90 3e 00
        E 356 90 3f 2d
        E 120 90 3f 00
        E 341 90 24 5a
        E 14 90 3f 3b
        E 106 90 24 00
        E 14 90 3f 00
        E 361 90 24 74
        E 14 90 3f 4f
        E 106 90 24 00
        E 14 90 3f 00
        E 355 90 3e 2b
        E 120 90 3e 00
        E 124 90 26 18
        E 120 90 26 00
        E 114 90 3f 46
        E 119 90 3f 00
        E 361 90 26 79
        E 9 90 3f 74
        E 111 90 26 00
        E 9 90 3f 00
        E 358 90 3f 27
        E 120 90 3f 00
        E 353 90 26 30
        E 3 90 1a 76
        E 117 90 26 00
        E 3 90 1a 00
        E 356 90 24 74
        E 14 90 3f 3a
        E 106 90 24 00
        E 14 90 3f 00
        E 354 90 3e 2a
        E 120 90 3e 00
        E 124 90 3e 1c
        E 120 90 3e 00
        E 107 90 3f 40
        E 120 90 3f 00
        E 135 90 26 07
        E 120 90 26 00
        E 107 90 26 77
        E 12 90 3e 78
        E 108 90 26 00
        E 12 90 3e 00
        E 93 90 26 2d
        E 120 90 26 00
        E 127 90 3f 2d
        E 120 90 3f 00
        E 362 90 24 5d
        E 10 90 3f 37
        E 110 90 24 00
        E 10 90 3f 00
        E 120 90 26 12
        E 120 90 26 00
        E 101 90 24 76
        E 20 90 3e 49
        E 100 90 24 00
        E 20 90 3e 00
        E 359 90 3e 2a
        E 121 90 3e 00
        E 123 90 3f 22
        E 120 90 3f 00
        E 116 90 3e 56
        E 120 90 3e 00
        E 350 90 26 7c
        E 8 90 3e 74
        E 112 90 26 00
        E 8 90 3e 00
        E 355 90 26 40
        E 15 90 19 49
        E 105 90 26 00
        E 15 90 19 00
        E 827 b0 7b 00
        CCINTERP 32
        CHASE_CC_TAKEOFFS 1
        GUID {B0E45400-B4DF-4198-AB32-B66C174737D8}
        IGNTEMPO 0 120 4 4
        SRCCOLOR 1
        VELLANE -1 100 0
        CFGEDITVIEW -4075.900249 0.168557 62 12 0 -1 0 0 0 0.5
        KEYSNAP 0
        TRACKSEL 0
        EVTFILTER 0 -1 -1 -1 -1 0 0 0 0 -1 -1 -1 -1 0 -1 0 -1 -1
        CFGEDIT 1 1 0 1 0 16 1 1 1 1 1 0.125 90 53 1854 760 0 0 0 0 0 0 0 1 0 0.5 0 0 1 64
      >
    >
    <ITEM
      POSITION 62
      SNAPOFFS 0
      LENGTH 2
      LOOP 1
      ALLTAKES 0
      FADEIN 1 0 0 1 0 0
      FADEOUT 1 0 0 1 0 0
      MUTE 0 0
      COLOR 28019170 R
      SEL 0
      IGUID {7B9730C5-D280-40BA-B5BB-5BC3FBD7652B}
      IID 2
      NAME "Variation 03 - Variation_03.mid"
      VOLPAN 1 0 1 -1
      SOFFS 0 0
      PLAYRATE 1 1 0 -1 0 0.0025
      CHANMODE 0
      GUID {FAC5BD04-98A6-4E79-A5EA-8FA2FECC6251}
      <SOURCE MIDI
        HASDATA 1 960 QN
        CCINTERP 32
        POOLEDEVTS {7BF4A4A7-9D0F-405C-8444-CC5D42C4E473}
        <X 0 0 0 0 3 "Variation 03"
          /wNWYXJpYXRpb24gMDM=
        >
        E 0 90 3e 60
        E 120 80 3e 00
        E 840 90 3e 60
        E 120 80 3e 00
        E 840 90 3e 60
        E 120 80 3e 00
        e 840 90 3e 60
        e 120 80 3e 00
        E 4688 90 3e 2f
        E 120 90 3e 00
        E 339 90 24 5d
        E 19 90 3e 23
        E 102 90 24 00
        E 19 90 3e 00
        E 99 90 26 0d
        E 121 90 26 00
        E 6 90 26 12
        E 120 90 26 00
        E 1 90 24 6b
        E 24 90 3e 51
        E 97 90 24 00
        E 23 90 3e 00
        E 347 90 3e 1f
        E 120 90 3e 00
        E 120 90 26 16
        E 121 90 26 00
        E 122 90 3e 45
        E 121 90 3e 00
        E 356 90 26 78
        E 14 90 3e 76
        E 106 90 26 00
        E 14 90 3e 00
        E 97 90 26 38
        E 120 90 26 00
        E 140 90 3e 24
        E 120 90 3e 00
        E 357 90 3e 2a
        E 2 90 24 49
        E 118 90 3e 00
        E 3 90 24 00
        E 344 90 24 73
        E 18 90 3f 54
        E 102 90 24 00
        E 18 90 3f 00
        E 356 90 3e 20
        E 120 90 3e 00
        E 118 90 3e 13
        E 119 90 3e 00
        E 116 90 3f 59
        E 120 90 3f 00
        E 344 90 26 79
        E 11 90 3e 72
        E 109 90 26 00
        E 11 90 3e 00
        E 356 90 3f 2d
        E 120 90 3f 00
        E 341 90 24 5a
        E 14 90 3f 3b
        E 106 90 24 00
        E 14 90 3f 00
        E 361 90 24 74
        E 14 90 3f 4f
        E 106 90 24 00
        E 14 90 3f 00
        E 355 90 3e 2b
        E 120 90 3e 00
        E 124 90 26 18
        E 120 90 26 00
        E 114 90 3f 46
        E 119 90 3f 00
        E 361 90 26 79
        E 9 90 3f 74
        E 111 90 26 00
        E 9 90 3f 00
        E 358 90 3f 27
        E 120 90 3f 00
        E 353 90 26 30
        E 3 90 1a 76
        E 117 90 26 00
        E 3 90 1a 00
        E 356 90 24 74
        E 14 90 3f 3a
        E 106 90 24 00
        E 14 90 3f 00
        E 354 90 3e 2a
        E 120 90 3e 00
        E 124 90 3e 1c
        E 120 90 3e 00
        E 107 90 3f 40
        E 120 90 3f 00
        E 135 90 26 07
        E 120 90 26 00
        E 107 90 26 77
        E 12 90 3e 78
        E 108 90 26 00
        E 12 90 3e 00
        E 93 90 26 2d
        E 120 90 26 00
        E 127 90 3f 2d
        E 120 90 3f 00
        E 362 90 24 5d
        E 10 90 3f 37
        E 110 90 24 00
        E 10 90 3f 00
        E 120 90 26 12
        E 120 90 26 00
        E 101 90 24 76
        E 20 90 3e 49
        E 100 90 24 00
        E 20 90 3e 00
        E 359 90 3e 2a
        E 121 90 3e 00
        E 123 90 3f 22
        E 120 90 3f 00
        E 116 90 3e 56
        E 120 90 3e 00
        E 350 90 26 7c
        E 8 90 3e 74
        E 112 90 26 00
        E 8 90 3e 00
        E 355 90 26 40
        E 15 90 19 49
        E 105 90 26 00
        E 15 90 19 00
        E 827 b0 7b 00
        CCINTERP 32
        CHASE_CC_TAKEOFFS 1
        GUID {B0E45400-B4DF-4198-AB32-B66C174737D8}
        IGNTEMPO 0 120 4 4
        SRCCOLOR 1
        VELLANE -1 100 0
        CFGEDITVIEW -4075.900249 0.168557 62 12 0 -1 0 0 0 0.5
        KEYSNAP 0
        TRACKSEL 0
        EVTFILTER 0 -1 -1 -1 -1 0 0 0 0 -1 -1 -1 -1 0 -1 0 -1 -1
        CFGEDIT 1 1 0 1 0 16 1 1 1 1 1 0.125 90 53 1854 760 0 0 0 0 0 0 0 1 0 0.5 0 0 1 64
      >
    >
    <ITEM
      POSITION 64
      SNAPOFFS 0
      LENGTH 2
      LOOP 1
      ALLTAKES 0
      FADEIN 1 0 0 1 0 0
      FADEOUT 1 0 0 1 0 0
      MUTE 0 0
      COLOR 28019170 R
      SEL 0
      IGUID {EA0B5C85-E87A-4CD7-B357-2700FED52C81}
      IID 2
      NAME "Variation 03 - Variation_03.mid"
      VOLPAN 1 0 1 -1
      SOFFS 0 0
      PLAYRATE 1 1 0 -1 0 0.0025
      CHANMODE 0
      GUID {BD9637E5-1DAC-4700-8B7D-C06F909F8ACC}
      <SOURCE MIDI
        HASDATA 1 960 QN
        CCINTERP 32
        POOLEDEVTS {0FE12B79-6B7B-477C-AD28-323EA3D4E47D}
        <X 0 0 0 0 3 "Variation 03"
          /wNWYXJpYXRpb24gMDM=
        >
        E 0 90 3e 60
        E 120 80 3e 00
        E 840 90 3e 60
        E 120 80 3e 00
        E 840 90 3e 60
        E 120 80 3e 00
        e 840 90 3e 60
        e 120 80 3e 00
        E 4688 90 3e 2f
        E 120 90 3e 00
        E 339 90 24 5d
        E 19 90 3e 23
        E 102 90 24 00
        E 19 90 3e 00
        E 99 90 26 0d
        E 121 90 26 00
        E 6 90 26 12
        E 120 90 26 00
        E 1 90 24 6b
        E 24 90 3e 51
        E 97 90 24 00
        E 23 90 3e 00
        E 347 90 3e 1f
        E 120 90 3e 00
        E 120 90 26 16
        E 121 90 26 00
        E 122 90 3e 45
        E 121 90 3e 00
        E 356 90 26 78
        E 14 90 3e 76
        E 106 90 26 00
        E 14 90 3e 00
        E 97 90 26 38
        E 120 90 26 00
        E 140 90 3e 24
        E 120 90 3e 00
        E 357 90 3e 2a
        E 2 90 24 49
        E 118 90 3e 00
        E 3 90 24 00
        E 344 90 24 73
        E 18 90 3f 54
        E 102 90 24 00
        E 18 90 3f 00
        E 356 90 3e 20
        E 120 90 3e 00
        E 118 90 3e 13
        E 119 90 3e 00
        E 116 90 3f 59
        E 120 90 3f 00
        E 344 90 26 79
        E 11 90 3e 72
        E 109 90 26 00
        E 11 90 3e 00
        E 356 90 3f 2d
        E 120 90 3f 00
        E 341 90 24 5a
        E 14 90 3f 3b
        E 106 90 24 00
        E 14 90 3f 00
        E 361 90 24 74
        E 14 90 3f 4f
        E 106 90 24 00
        E 14 90 3f 00
        E 355 90 3e 2b
        E 120 90 3e 00
        E 124 90 26 18
        E 120 90 26 00
        E 114 90 3f 46
        E 119 90 3f 00
        E 361 90 26 79
        E 9 90 3f 74
        E 111 90 26 00
        E 9 90 3f 00
        E 358 90 3f 27
        E 120 90 3f 00
        E 353 90 26 30
        E 3 90 1a 76
        E 117 90 26 00
        E 3 90 1a 00
        E 356 90 24 74
        E 14 90 3f 3a
        E 106 90 24 00
        E 14 90 3f 00
        E 354 90 3e 2a
        E 120 90 3e 00
        E 124 90 3e 1c
        E 120 90 3e 00
        E 107 90 3f 40
        E 120 90 3f 00
        E 135 90 26 07
        E 120 90 26 00
        E 107 90 26 77
        E 12 90 3e 78
        E 108 90 26 00
        E 12 90 3e 00
        E 93 90 26 2d
        E 120 90 26 00
        E 127 90 3f 2d
        E 120 90 3f 00
        E 362 90 24 5d
        E 10 90 3f 37
        E 110 90 24 00
        E 10 90 3f 00
        E 120 90 26 12
        E 120 90 26 00
        E 101 90 24 76
        E 20 90 3e 49
        E 100 90 24 00
        E 20 90 3e 00
        E 359 90 3e 2a
        E 121 90 3e 00
        E 123 90 3f 22
        E 120 90 3f 00
        E 116 90 3e 56
        E 120 90 3e 00
        E 350 90 26 7c
        E 8 90 3e 74
        E 112 90 26 00
        E 8 90 3e 00
        E 355 90 26 40
        E 15 90 19 49
        E 105 90 26 00
        E 15 90 19 00
        E 827 b0 7b 00
        CCINTERP 32
        CHASE_CC_TAKEOFFS 1
        GUID {B0E45400-B4DF-4198-AB32-B66C174737D8}
        IGNTEMPO 0 120 4 4
        SRCCOLOR 1
        VELLANE -1 100 0
        CFGEDITVIEW -4075.900249 0.168557 62 12 0 -1 0 0 0 0.5
        KEYSNAP 0
        TRACKSEL 0
        EVTFILTER 0 -1 -1 -1 -1 0 0 0 0 -1 -1 -1 -1 0 -1 0 -1 -1
        CFGEDIT 1 1 0 1 0 16 1 1 1 1 1 0.125 90 53 1854 760 0 0 0 0 0 0 0 1 0 0.5 0 0 1 64
      >
    >
    <ITEM
      POSITION 66
      SNAPOFFS 0
      LENGTH 2
      LOOP 1
      ALLTAKES 0
      FADEIN 1 0 0 1 0 0
      FADEOUT 1 0 0 1 0 0
      MUTE 0 0
      COLOR 28019170 R
      SEL 0
      IGUID {08691A2B-2FE1-40FC-A106-D9559A7C048E}
      IID 2
      NAME "Variation 03 - Variation_03.mid"
      VOLPAN 1 0 1 -1
      SOFFS 0 0
      PLAYRATE 1 1 0 -1 0 0.0025
      CHANMODE 0
      GUID {0DFE7063-3E79-44C3-A27C-BF5725F9A613}
      <SOURCE MIDI
        HASDATA 1 960 QN
        CCINTERP 32
        POOLEDEVTS {421054A1-CDAC-4FE9-B476-687C1BB2440E}
        <X 0 0 0 0 3 "Variation 03"
          /wNWYXJpYXRpb24gMDM=
        >
        E 0 90 3e 60
        E 120 80 3e 00
        E 840 90 3e 60
        E 120 80 3e 00
        E 840 90 3e 60
        E 120 80 3e 00
        e 840 90 3e 60
        e 120 80 3e 00
        E 4688 90 3e 2f
        E 120 90 3e 00
        E 339 90 24 5d
        E 19 90 3e 23
        E 102 90 24 00
        E 19 90 3e 00
        E 99 90 26 0d
        E 121 90 26 00
        E 6 90 26 12
        E 120 90 26 00
        E 1 90 24 6b
        E 24 90 3e 51
        E 97 90 24 00
        E 23 90 3e 00
        E 347 90 3e 1f
        E 120 90 3e 00
        E 120 90 26 16
        E 121 90 26 00
        E 122 90 3e 45
        E 121 90 3e 00
        E 356 90 26 78
        E 14 90 3e 76
        E 106 90 26 00
        E 14 90 3e 00
        E 97 90 26 38
        E 120 90 26 00
        E 140 90 3e 24
        E 120 90 3e 00
        E 357 90 3e 2a
        E 2 90 24 49
        E 118 90 3e 00
        E 3 90 24 00
        E 344 90 24 73
        E 18 90 3f 54
        E 102 90 24 00
        E 18 90 3f 00
        E 356 90 3e 20
        E 120 90 3e 00
        E 118 90 3e 13
        E 119 90 3e 00
        E 116 90 3f 59
        E 120 90 3f 00
        E 344 90 26 79
        E 11 90 3e 72
        E 109 90 26 00
        E 11 90 3e 00
        E 356 90 3f 2d
        E 120 90 3f 00
        E 341 90 24 5a
        E 14 90 3f 3b
        E 106 90 24 00
        E 14 90 3f 00
        E 361 90 24 74
        E 14 90 3f 4f
        E 106 90 24 00
        E 14 90 3f 00
        E 355 90 3e 2b
        E 120 90 3e 00
        E 124 90 26 18
        E 120 90 26 00
        E 114 90 3f 46
        E 119 90 3f 00
        E 361 90 26 79
        E 9 90 3f 74
        E 111 90 26 00
        E 9 90 3f 00
        E 358 90 3f 27
        E 120 90 3f 00
        E 353 90 26 30
        E 3 90 1a 76
        E 117 90 26 00
        E 3 90 1a 00
        E 356 90 24 74
        E 14 90 3f 3a
        E 106 90 24 00
        E 14 90 3f 00
        E 354 90 3e 2a
        E 120 90 3e 00
        E 124 90 3e 1c
        E 120 90 3e 00
        E 107 90 3f 40
        E 120 90 3f 00
        E 135 90 26 07
        E 120 90 26 00
        E 107 90 26 77
        E 12 90 3e 78
        E 108 90 26 00
        E 12 90 3e 00
        E 93 90 26 2d
        E 120 90 26 00
        E 127 90 3f 2d
        E 120 90 3f 00
        E 362 90 24 5d
        E 10 90 3f 37
        E 110 90 24 00
        E 10 90 3f 00
        E 120 90 26 12
        E 120 90 26 00
        E 101 90 24 76
        E 20 90 3e 49
        E 100 90 24 00
        E 20 90 3e 00
        E 359 90 3e 2a
        E 121 90 3e 00
        E 123 90 3f 22
        E 120 90 3f 00
        E 116 90 3e 56
        E 120 90 3e 00
        E 350 90 26 7c
        E 8 90 3e 74
        E 112 90 26 00
        E 8 90 3e 00
        E 355 90 26 40
        E 15 90 19 49
        E 105 90 26 00
        E 15 90 19 00
        E 827 b0 7b 00
        CCINTERP 32
        CHASE_CC_TAKEOFFS 1
        GUID {B0E45400-B4DF-4198-AB32-B66C174737D8}
        IGNTEMPO 0 120 4 4
        SRCCOLOR 1
        VELLANE -1 100 0
        CFGEDITVIEW -4075.900249 0.168557 62 12 0 -1 0 0 0 0.5
        KEYSNAP 0
        TRACKSEL 0
        EVTFILTER 0 -1 -1 -1 -1 0 0 0 0 -1 -1 -1 -1 0 -1 0 -1 -1
        CFGEDIT 1 1 0 1 0 16 1 1 1 1 1 0.125 90 53 1854 760 0 0 0 0 0 0 0 1 0 0.5 0 0 1 64
      >
    >
    <ITEM
      POSITION 68
      SNAPOFFS 0
      LENGTH 2
      LOOP 1
      ALLTAKES 0
      FADEIN 1 0 0 1 0 0
      FADEOUT 1 0 0 1 0 0
      MUTE 0 0
      COLOR 28019170 R
      SEL 0
      IGUID {480FBF8B-E095-4B44-BA60-A6DD0F150DFC}
      IID 2
      NAME "Variation 03 - Variation_03.mid"
      VOLPAN 1 0 1 -1
      SOFFS 0 0
      PLAYRATE 1 1 0 -1 0 0.0025
      CHANMODE 0
      GUID {8297BE77-2B59-49BE-81FB-A229D5049D3A}
      <SOURCE MIDI
        HASDATA 1 960 QN
        CCINTERP 32
        POOLEDEVTS {D090F7C4-C287-4288-BF12-57F498DCFD82}
        <X 0 0 0 0 3 "Variation 03"
          /wNWYXJpYXRpb24gMDM=
        >
        E 0 90 3e 60
        E 120 80 3e 00
        E 840 90 3e 60
        E 120 80 3e 00
        E 840 90 3e 60
        E 120 80 3e 00
        e 840 90 3e 60
        e 120 80 3e 00
        E 4688 90 3e 2f
        E 120 90 3e 00
        E 339 90 24 5d
        E 19 90 3e 23
        E 102 90 24 00
        E 19 90 3e 00
        E 99 90 26 0d
        E 121 90 26 00
        E 6 90 26 12
        E 120 90 26 00
        E 1 90 24 6b
        E 24 90 3e 51
        E 97 90 24 00
        E 23 90 3e 00
        E 347 90 3e 1f
        E 120 90 3e 00
        E 120 90 26 16
        E 121 90 26 00
        E 122 90 3e 45
        E 121 90 3e 00
        E 356 90 26 78
        E 14 90 3e 76
        E 106 90 26 00
        E 14 90 3e 00
        E 97 90 26 38
        E 120 90 26 00
        E 140 90 3e 24
        E 120 90 3e 00
        E 357 90 3e 2a
        E 2 90 24 49
        E 118 90 3e 00
        E 3 90 24 00
        E 344 90 24 73
        E 18 90 3f 54
        E 102 90 24 00
        E 18 90 3f 00
        E 356 90 3e 20
        E 120 90 3e 00
        E 118 90 3e 13
        E 119 90 3e 00
        E 116 90 3f 59
        E 120 90 3f 00
        E 344 90 26 79
        E 11 90 3e 72
        E 109 90 26 00
        E 11 90 3e 00
        E 356 90 3f 2d
        E 120 90 3f 00
        E 341 90 24 5a
        E 14 90 3f 3b
        E 106 90 24 00
        E 14 90 3f 00
        E 361 90 24 74
        E 14 90 3f 4f
        E 106 90 24 00
        E 14 90 3f 00
        E 355 90 3e 2b
        E 120 90 3e 00
        E 124 90 26 18
        E 120 90 26 00
        E 114 90 3f 46
        E 119 90 3f 00
        E 361 90 26 79
        E 9 90 3f 74
        E 111 90 26 00
        E 9 90 3f 00
        E 358 90 3f 27
        E 120 90 3f 00
        E 353 90 26 30
        E 3 90 1a 76
        E 117 90 26 00
        E 3 90 1a 00
        E 356 90 24 74
        E 14 90 3f 3a
        E 106 90 24 00
        E 14 90 3f 00
        E 354 90 3e 2a
        E 120 90 3e 00
        E 124 90 3e 1c
        E 120 90 3e 00
        E 107 90 3f 40
        E 120 90 3f 00
        E 135 90 26 07
        E 120 90 26 00
        E 107 90 26 77
        E 12 90 3e 78
        E 108 90 26 00
        E 12 90 3e 00
        E 93 90 26 2d
        E 120 90 26 00
        E 127 90 3f 2d
        E 120 90 3f 00
        E 362 90 24 5d
        E 10 90 3f 37
        E 110 90 24 00
        E 10 90 3f 00
        E 120 90 26 12
        E 120 90 26 00
        E 101 90 24 76
        E 20 90 3e 49
        E 100 90 24 00
        E 20 90 3e 00
        E 359 90 3e 2a
        E 121 90 3e 00
        E 123 90 3f 22
        E 120 90 3f 00
        E 116 90 3e 56
        E 120 90 3e 00
        E 350 90 26 7c
        E 8 90 3e 74
        E 112 90 26 00
        E 8 90 3e 00
        E 355 90 26 40
        E 15 90 19 49
        E 105 90 26 00
        E 15 90 19 00
        E 827 b0 7b 00
        CCINTERP 32
        CHASE_CC_TAKEOFFS 1
        GUID {B0E45400-B4DF-4198-AB32-B66C174737D8}
        IGNTEMPO 0 120 4 4
        SRCCOLOR 1
        VELLANE -1 100 0
        CFGEDITVIEW -4075.900249 0.168557 62 12 0 -1 0 0 0 0.5
        KEYSNAP 0
        TRACKSEL 0
        EVTFILTER 0 -1 -1 -1 -1 0 0 0 0 -1 -1 -1 -1 0 -1 0 -1 -1
        CFGEDIT 1 1 0 1 0 16 1 1 1 1 1 0.125 90 53 1854 760 0 0 0 0 0 0 0 1 0 0.5 0 0 1 64
      >
    >
    <ITEM
      POSITION 70
      SNAPOFFS 0
      LENGTH 2
      LOOP 1
      ALLTAKES 0
      FADEIN 1 0 0 1 0 0
      FADEOUT 1 0 0 1 0 0
      MUTE 0 0
      COLOR 28019170 R
      SEL 0
      IGUID {B6F704BA-BD7A-4F9B-92DD-6871054ABA7C}
      IID 2
      NAME "Variation 03 - Variation_03.mid"
      VOLPAN 1 0 1 -1
      SOFFS 0 0
      PLAYRATE 1 1 0 -1 0 0.0025
      CHANMODE 0
      GUID {F97F8D3A-7FC6-43A2-A4D3-90FBDA33D991}
      <SOURCE MIDI
        HASDATA 1 960 QN
        CCINTERP 32
        POOLEDEVTS {BD2D1AC0-00BF-4208-8271-EB96A33C65D0}
        <X 0 0 0 0 3 "Variation 03"
          /wNWYXJpYXRpb24gMDM=
        >
        E 0 90 3e 60
        E 120 80 3e 00
        E 840 90 3e 60
        E 120 80 3e 00
        E 840 90 3e 60
        E 120 80 3e 00
        e 840 90 3e 60
        e 120 80 3e 00
        E 4688 90 3e 2f
        E 120 90 3e 00
        E 339 90 24 5d
        E 19 90 3e 23
        E 102 90 24 00
        E 19 90 3e 00
        E 99 90 26 0d
        E 121 90 26 00
        E 6 90 26 12
        E 120 90 26 00
        E 1 90 24 6b
        E 24 90 3e 51
        E 97 90 24 00
        E 23 90 3e 00
        E 347 90 3e 1f
        E 120 90 3e 00
        E 120 90 26 16
        E 121 90 26 00
        E 122 90 3e 45
        E 121 90 3e 00
        E 356 90 26 78
        E 14 90 3e 76
        E 106 90 26 00
        E 14 90 3e 00
        E 97 90 26 38
        E 120 90 26 00
        E 140 90 3e 24
        E 120 90 3e 00
        E 357 90 3e 2a
        E 2 90 24 49
        E 118 90 3e 00
        E 3 90 24 00
        E 344 90 24 73
        E 18 90 3f 54
        E 102 90 24 00
        E 18 90 3f 00
        E 356 90 3e 20
        E 120 90 3e 00
        E 118 90 3e 13
        E 119 90 3e 00
        E 116 90 3f 59
        E 120 90 3f 00
        E 344 90 26 79
        E 11 90 3e 72
        E 109 90 26 00
        E 11 90 3e 00
        E 356 90 3f 2d
        E 120 90 3f 00
        E 341 90 24 5a
        E 14 90 3f 3b
        E 106 90 24 00
        E 14 90 3f 00
        E 361 90 24 74
        E 14 90 3f 4f
        E 106 90 24 00
        E 14 90 3f 00
        E 355 90 3e 2b
        E 120 90 3e 00
        E 124 90 26 18
        E 120 90 26 00
        E 114 90 3f 46
        E 119 90 3f 00
        E 361 90 26 79
        E 9 90 3f 74
        E 111 90 26 00
        E 9 90 3f 00
        E 358 90 3f 27
        E 120 90 3f 00
        E 353 90 26 30
        E 3 90 1a 76
        E 117 90 26 00
        E 3 90 1a 00
        E 356 90 24 74
        E 14 90 3f 3a
        E 106 90 24 00
        E 14 90 3f 00
        E 354 90 3e 2a
        E 120 90 3e 00
        E 124 90 3e 1c
        E 120 90 3e 00
        E 107 90 3f 40
        E 120 90 3f 00
        E 135 90 26 07
        E 120 90 26 00
        E 107 90 26 77
        E 12 90 3e 78
        E 108 90 26 00
        E 12 90 3e 00
        E 93 90 26 2d
        E 120 90 26 00
        E 127 90 3f 2d
        E 120 90 3f 00
        E 362 90 24 5d
        E 10 90 3f 37
        E 110 90 24 00
        E 10 90 3f 00
        E 120 90 26 12
        E 120 90 26 00
        E 101 90 24 76
        E 20 90 3e 49
        E 100 90 24 00
        E 20 90 3e 00
        E 359 90 3e 2a
        E 121 90 3e 00
        E 123 90 3f 22
        E 120 90 3f 00
        E 116 90 3e 56
        E 120 90 3e 00
        E 350 90 26 7c
        E 8 90 3e 74
        E 112 90 26 00
        E 8 90 3e 00
        E 355 90 26 40
        E 15 90 19 49
        E 105 90 26 00
        E 15 90 19 00
        E 827 b0 7b 00
        CCINTERP 32
        CHASE_CC_TAKEOFFS 1
        GUID {B0E45400-B4DF-4198-AB32-B66C174737D8}
        IGNTEMPO 0 120 4 4
        SRCCOLOR 1
        VELLANE -1 100 0
        CFGEDITVIEW -4075.900249 0.168557 62 12 0 -1 0 0 0 0.5
        KEYSNAP 0
        TRACKSEL 0
        EVTFILTER 0 -1 -1 -1 -1 0 0 0 0 -1 -1 -1 -1 0 -1 0 -1 -1
        CFGEDIT 1 1 0 1 0 16 1 1 1 1 1 0.125 90 53 1854 760 0 0 0 0 0 0 0 1 0 0.5 0 0 1 64
      >
    >
    <ITEM
      POSITION 72
      SNAPOFFS 0
      LENGTH 2
      LOOP 1
      ALLTAKES 0
      FADEIN 1 0 0 1 0 0
      FADEOUT 1 0 0 1 0 0
      MUTE 0 0
      COLOR 28019170 R
      SEL 0
      IGUID {A20391DB-763E-4FF7-9950-8A175A46C39E}
      IID 2
      NAME "Variation 03 - Variation_03.mid"
      VOLPAN 1 0 1 -1
      SOFFS 0 0
      PLAYRATE 1 1 0 -1 0 0.0025
      CHANMODE 0
      GUID {CE78A943-274F-477C-AF32-A9885BAD28EF}
      <SOURCE MIDI
        HASDATA 1 960 QN
        CCINTERP 32
        POOLEDEVTS {C74778D5-A6E3-4E62-A55F-6C7A92115E82}
        <X 0 0 0 0 3 "Variation 03"
          /wNWYXJpYXRpb24gMDM=
        >
        E 0 90 3e 60
        E 120 80 3e 00
        E 840 90 3e 60
        E 120 80 3e 00
        E 840 90 3e 60
        E 120 80 3e 00
        e 840 90 3e 60
        e 120 80 3e 00
        E 4688 90 3e 2f
        E 120 90 3e 00
        E 339 90 24 5d
        E 19 90 3e 23
        E 102 90 24 00
        E 19 90 3e 00
        E 99 90 26 0d
        E 121 90 26 00
        E 6 90 26 12
        E 120 90 26 00
        E 1 90 24 6b
        E 24 90 3e 51
        E 97 90 24 00
        E 23 90 3e 00
        E 347 90 3e 1f
        E 120 90 3e 00
        E 120 90 26 16
        E 121 90 26 00
        E 122 90 3e 45
        E 121 90 3e 00
        E 356 90 26 78
        E 14 90 3e 76
        E 106 90 26 00
        E 14 90 3e 00
        E 97 90 26 38
        E 120 90 26 00
        E 140 90 3e 24
        E 120 90 3e 00
        E 357 90 3e 2a
        E 2 90 24 49
        E 118 90 3e 00
        E 3 90 24 00
        E 344 90 24 73
        E 18 90 3f 54
        E 102 90 24 00
        E 18 90 3f 00
        E 356 90 3e 20
        E 120 90 3e 00
        E 118 90 3e 13
        E 119 90 3e 00
        E 116 90 3f 59
        E 120 90 3f 00
        E 344 90 26 79
        E 11 90 3e 72
        E 109 90 26 00
        E 11 90 3e 00
        E 356 90 3f 2d
        E 120 90 3f 00
        E 341 90 24 5a
        E 14 90 3f 3b
        E 106 90 24 00
        E 14 90 3f 00
        E 361 90 24 74
        E 14 90 3f 4f
        E 106 90 24 00
        E 14 90 3f 00
        E 355 90 3e 2b
        E 120 90 3e 00
        E 124 90 26 18
        E 120 90 26 00
        E 114 90 3f 46
        E 119 90 3f 00
        E 361 90 26 79
        E 9 90 3f 74
        E 111 90 26 00
        E 9 90 3f 00
        E 358 90 3f 27
        E 120 90 3f 00
        E 353 90 26 30
        E 3 90 1a 76
        E 117 90 26 00
        E 3 90 1a 00
        E 356 90 24 74
        E 14 90 3f 3a
        E 106 90 24 00
        E 14 90 3f 00
        E 354 90 3e 2a
        E 120 90 3e 00
        E 124 90 3e 1c
        E 120 90 3e 00
        E 107 90 3f 40
        E 120 90 3f 00
        E 135 90 26 07
        E 120 90 26 00
        E 107 90 26 77
        E 12 90 3e 78
        E 108 90 26 00
        E 12 90 3e 00
        E 93 90 26 2d
        E 120 90 26 00
        E 127 90 3f 2d
        E 120 90 3f 00
        E 362 90 24 5d
        E 10 90 3f 37
        E 110 90 24 00
        E 10 90 3f 00
        E 120 90 26 12
        E 120 90 26 00
        E 101 90 24 76
        E 20 90 3e 49
        E 100 90 24 00
        E 20 90 3e 00
        E 359 90 3e 2a
        E 121 90 3e 00
        E 123 90 3f 22
        E 120 90 3f 00
        E 116 90 3e 56
        E 120 90 3e 00
        E 350 90 26 7c
        E 8 90 3e 74
        E 112 90 26 00
        E 8 90 3e 00
        E 355 90 26 40
        E 15 90 19 49
        E 105 90 26 00
        E 15 90 19 00
        E 827 b0 7b 00
        CCINTERP 32
        CHASE_CC_TAKEOFFS 1
        GUID {B0E45400-B4DF-4198-AB32-B66C174737D8}
        IGNTEMPO 0 120 4 4
        SRCCOLOR 1
        VELLANE -1 100 0
        CFGEDITVIEW -4075.900249 0.168557 62 12 0 -1 0 0 0 0.5
        KEYSNAP 0
        TRACKSEL 0
        EVTFILTER 0 -1 -1 -1 -1 0 0 0 0 -1 -1 -1 -1 0 -1 0 -1 -1
        CFGEDIT 1 1 0 1 0 16 1 1 1 1 1 0.125 90 53 1854 760 0 0 0 0 0 0 0 1 0 0.5 0 0 1 64
      >
    >
    <ITEM
      POSITION 74
      SNAPOFFS 0
      LENGTH 2
      LOOP 1
      ALLTAKES 0
      FADEIN 1 0 0 1 0 0
      FADEOUT 1 0 0 1 0 0
      MUTE 0 0
      COLOR 28019170 R
      SEL 0
      IGUID {A9F6636A-0C43-424C-8676-FE59DDAD52C4}
      IID 2
      NAME "Variation 03 - Variation_03.mid"
      VOLPAN 1 0 1 -1
      SOFFS 0 0
      PLAYRATE 1 1 0 -1 0 0.0025
      CHANMODE 0
      GUID {10659B08-7871-4E5B-8402-A2D1F58A5AB0}
      <SOURCE MIDI
        HASDATA 1 960 QN
        CCINTERP 32
        POOLEDEVTS {ADBFCA0E-8F17-4278-BBEA-A42348864EDF}
        <X 0 0 0 0 3 "Variation 03"
          /wNWYXJpYXRpb24gMDM=
        >
        E 0 90 3e 60
        E 120 80 3e 00
        E 840 90 3e 60
        E 120 80 3e 00
        E 840 90 3e 60
        E 120 80 3e 00
        e 840 90 3e 60
        e 120 80 3e 00
        E 4688 90 3e 2f
        E 120 90 3e 00
        E 339 90 24 5d
        E 19 90 3e 23
        E 102 90 24 00
        E 19 90 3e 00
        E 99 90 26 0d
        E 121 90 26 00
        E 6 90 26 12
        E 120 90 26 00
        E 1 90 24 6b
        E 24 90 3e 51
        E 97 90 24 00
        E 23 90 3e 00
        E 347 90 3e 1f
        E 120 90 3e 00
        E 120 90 26 16
        E 121 90 26 00
        E 122 90 3e 45
        E 121 90 3e 00
        E 356 90 26 78
        E 14 90 3e 76
        E 106 90 26 00
        E 14 90 3e 00
        E 97 90 26 38
        E 120 90 26 00
        E 140 90 3e 24
        E 120 90 3e 00
        E 357 90 3e 2a
        E 2 90 24 49
        E 118 90 3e 00
        E 3 90 24 00
        E 344 90 24 73
        E 18 90 3f 54
        E 102 90 24 00
        E 18 90 3f 00
        E 356 90 3e 20
        E 120 90 3e 00
        E 118 90 3e 13
        E 119 90 3e 00
        E 116 90 3f 59
        E 120 90 3f 00
        E 344 90 26 79
        E 11 90 3e 72
        E 109 90 26 00
        E 11 90 3e 00
        E 356 90 3f 2d
        E 120 90 3f 00
        E 341 90 24 5a
        E 14 90 3f 3b
        E 106 90 24 00
        E 14 90 3f 00
        E 361 90 24 74
        E 14 90 3f 4f
        E 106 90 24 00
        E 14 90 3f 00
        E 355 90 3e 2b
        E 120 90 3e 00
        E 124 90 26 18
        E 120 90 26 00
        E 114 90 3f 46
        E 119 90 3f 00
        E 361 90 26 79
        E 9 90 3f 74
        E 111 90 26 00
        E 9 90 3f 00
        E 358 90 3f 27
        E 120 90 3f 00
        E 353 90 26 30
        E 3 90 1a 76
        E 117 90 26 00
        E 3 90 1a 00
        E 356 90 24 74
        E 14 90 3f 3a
        E 106 90 24 00
        E 14 90 3f 00
        E 354 90 3e 2a
        E 120 90 3e 00
        E 124 90 3e 1c
        E 120 90 3e 00
        E 107 90 3f 40
        E 120 90 3f 00
        E 135 90 26 07
        E 120 90 26 00
        E 107 90 26 77
        E 12 90 3e 78
        E 108 90 26 00
        E 12 90 3e 00
        E 93 90 26 2d
        E 120 90 26 00
        E 127 90 3f 2d
        E 120 90 3f 00
        E 362 90 24 5d
        E 10 90 3f 37
        E 110 90 24 00
        E 10 90 3f 00
        E 120 90 26 12
        E 120 90 26 00
        E 101 90 24 76
        E 20 90 3e 49
        E 100 90 24 00
        E 20 90 3e 00
        E 359 90 3e 2a
        E 121 90 3e 00
        E 123 90 3f 22
        E 120 90 3f 00
        E 116 90 3e 56
        E 120 90 3e 00
        E 350 90 26 7c
        E 8 90 3e 74
        E 112 90 26 00
        E 8 90 3e 00
        E 355 90 26 40
        E 15 90 19 49
        E 105 90 26 00
        E 15 90 19 00
        E 827 b0 7b 00
        CCINTERP 32
        CHASE_CC_TAKEOFFS 1
        GUID {B0E45400-B4DF-4198-AB32-B66C174737D8}
        IGNTEMPO 0 120 4 4
        SRCCOLOR 1
        VELLANE -1 100 0
        CFGEDITVIEW -4075.900249 0.168557 62 12 0 -1 0 0 0 0.5
        KEYSNAP 0
        TRACKSEL 0
        EVTFILTER 0 -1 -1 -1 -1 0 0 0 0 -1 -1 -1 -1 0 -1 0 -1 -1
        CFGEDIT 1 1 0 1 0 16 1 1 1 1 1 0.125 90 53 1854 760 0 0 0 0 0 0 0 1 0 0.5 0 0 1 64
      >
    >
    <ITEM
      POSITION 76
      SNAPOFFS 0
      LENGTH 2
      LOOP 1
      ALLTAKES 0
      FADEIN 1 0 0 1 0 0
      FADEOUT 1 0 0 1 0 0
      MUTE 0 0
      COLOR 28019170 R
      SEL 0
      IGUID {02DD64FB-7374-4FD8-9A7A-DD169680703B}
      IID 2
      NAME "Variation 03 - Variation_03.mid"
      VOLPAN 1 0 1 -1
      SOFFS 0 0
      PLAYRATE 1 1 0 -1 0 0.0025
      CHANMODE 0
      GUID {17614050-CC82-49BA-AB65-824E0BCB8106}
      <SOURCE MIDI
        HASDATA 1 960 QN
        CCINTERP 32
        POOLEDEVTS {1406B6F2-E8A6-492D-92D0-847E6D18CE04}
        <X 0 0 0 0 3 "Variation 03"
          /wNWYXJpYXRpb24gMDM=
        >
        E 0 90 3e 60
        E 120 80 3e 00
        E 840 90 3e 60
        E 120 80 3e 00
        E 840 90 3e 60
        E 120 80 3e 00
        e 840 90 3e 60
        e 120 80 3e 00
        E 4688 90 3e 2f
        E 120 90 3e 00
        E 339 90 24 5d
        E 19 90 3e 23
        E 102 90 24 00
        E 19 90 3e 00
        E 99 90 26 0d
        E 121 90 26 00
        E 6 90 26 12
        E 120 90 26 00
        E 1 90 24 6b
        E 24 90 3e 51
        E 97 90 24 00
        E 23 90 3e 00
        E 347 90 3e 1f
        E 120 90 3e 00
        E 120 90 26 16
        E 121 90 26 00
        E 122 90 3e 45
        E 121 90 3e 00
        E 356 90 26 78
        E 14 90 3e 76
        E 106 90 26 00
        E 14 90 3e 00
        E 97 90 26 38
        E 120 90 26 00
        E 140 90 3e 24
        E 120 90 3e 00
        E 357 90 3e 2a
        E 2 90 24 49
        E 118 90 3e 00
        E 3 90 24 00
        E 344 90 24 73
        E 18 90 3f 54
        E 102 90 24 00
        E 18 90 3f 00
        E 356 90 3e 20
        E 120 90 3e 00
        E 118 90 3e 13
        E 119 90 3e 00
        E 116 90 3f 59
        E 120 90 3f 00
        E 344 90 26 79
        E 11 90 3e 72
        E 109 90 26 00
        E 11 90 3e 00
        E 356 90 3f 2d
        E 120 90 3f 00
        E 341 90 24 5a
        E 14 90 3f 3b
        E 106 90 24 00
        E 14 90 3f 00
        E 361 90 24 74
        E 14 90 3f 4f
        E 106 90 24 00
        E 14 90 3f 00
        E 355 90 3e 2b
        E 120 90 3e 00
        E 124 90 26 18
        E 120 90 26 00
        E 114 90 3f 46
        E 119 90 3f 00
        E 361 90 26 79
        E 9 90 3f 74
        E 111 90 26 00
        E 9 90 3f 00
        E 358 90 3f 27
        E 120 90 3f 00
        E 353 90 26 30
        E 3 90 1a 76
        E 117 90 26 00
        E 3 90 1a 00
        E 356 90 24 74
        E 14 90 3f 3a
        E 106 90 24 00
        E 14 90 3f 00
        E 354 90 3e 2a
        E 120 90 3e 00
        E 124 90 3e 1c
        E 120 90 3e 00
        E 107 90 3f 40
        E 120 90 3f 00
        E 135 90 26 07
        E 120 90 26 00
        E 107 90 26 77
        E 12 90 3e 78
        E 108 90 26 00
        E 12 90 3e 00
        E 93 90 26 2d
        E 120 90 26 00
        E 127 90 3f 2d
        E 120 90 3f 00
        E 362 90 24 5d
        E 10 90 3f 37
        E 110 90 24 00
        E 10 90 3f 00
        E 120 90 26 12
        E 120 90 26 00
        E 101 90 24 76
        E 20 90 3e 49
        E 100 90 24 00
        E 20 90 3e 00
        E 359 90 3e 2a
        E 121 90 3e 00
        E 123 90 3f 22
        E 120 90 3f 00
        E 116 90 3e 56
        E 120 90 3e 00
        E 350 90 26 7c
        E 8 90 3e 74
        E 112 90 26 00
        E 8 90 3e 00
        E 355 90 26 40
        E 15 90 19 49
        E 105 90 26 00
        E 15 90 19 00
        E 827 b0 7b 00
        CCINTERP 32
        CHASE_CC_TAKEOFFS 1
        GUID {B0E45400-B4DF-4198-AB32-B66C174737D8}
        IGNTEMPO 0 120 4 4
        SRCCOLOR 1
        VELLANE -1 100 0
        CFGEDITVIEW -4075.900249 0.168557 62 12 0 -1 0 0 0 0.5
        KEYSNAP 0
        TRACKSEL 0
        EVTFILTER 0 -1 -1 -1 -1 0 0 0 0 -1 -1 -1 -1 0 -1 0 -1 -1
        CFGEDIT 1 1 0 1 0 16 1 1 1 1 1 0.125 90 53 1854 760 0 0 0 0 0 0 0 1 0 0.5 0 0 1 64
      >
    >
    <ITEM
      POSITION 78
      SNAPOFFS 0
      LENGTH 3.5
      LOOP 1
      ALLTAKES 0
      FADEIN 1 0 0 1 0 0
      FADEOUT 1 0 0 1 0 0
      MUTE 0 0
      COLOR 26337038 R
      SEL 0
      IGUID {ED61FDF9-F3CA-477E-AF2B-0B59F5C17833}
      IID 2
      NAME "Variation 03 - Variation_03.mid"
      VOLPAN 1 0 1 -1
      SOFFS 0 0
      PLAYRATE 1 1 0 -1 0 0.0025
      CHANMODE 0
      GUID {E1B7C07F-9AF9-47A7-B275-871FA906D8D6}
      <SOURCE MIDI
        HASDATA 1 960 QN
        CCINTERP 32
        POOLEDEVTS {CFCB9CF1-0550-4DE6-98A8-7E771CE117CC}
        <X 0 0 0 0 3 "Variation 03"
          /wNWYXJpYXRpb24gMDM=
        >
        E 0 90 24 6c
        E 0 90 34 6c
        E 0 90 39 6c
        E 9 90 15 28
        E 111 80 24 00
        E 0 80 34 00
        E 0 80 39 00
        E 9 90 15 00
        E 831 90 3c 7e
        E 0 90 26 7e
        E 120 80 3c 00
        E 0 80 26 00
        E 360 90 23 7e
        E 120 80 23 00
        E 360 90 23 7e
        e 0 90 35 7e
        E 120 80 23 00
        e 0 80 35 00
        E 360 90 23 7f
        e 0 90 35 7e
        E 120 80 23 00
        e 0 80 35 00
        e 120 90 35 7e
        e 120 80 35 00
        E 120 90 26 7e
        E 120 80 26 00
        E 120 90 35 3c
        E 120 80 35 00
        E 120 90 23 7e
        E 120 80 23 00
        E 360 90 35 43
        E 120 80 35 00
        E 360 90 35 56
        E 120 80 35 00
        E 360 90 26 7e
        E 0 90 35 7e
        E 120 80 26 00
        E 0 80 35 00
        E 360 90 23 7e
        E 0 90 35 5d
        E 120 80 23 00
        E 0 80 35 00
        E 360 90 26 7e
        E 120 80 26 00
        E 360 90 24 7e
        E 0 90 38 7e
        E 0 90 37 7e
        E 0 90 34 7e
        E 120 80 24 00
        E 0 80 38 00
        E 0 80 37 00
        E 0 80 34 00
        E 1328 90 3e 2f
        E 120 90 3e 00
        E 339 90 24 5d
        E 19 90 3e 23
        E 102 90 24 00
        E 19 90 3e 00
        E 99 90 26 0d
        E 121 90 26 00
        E 6 90 26 12
        E 120 90 26 00
        E 1 90 24 6b
        E 24 90 3e 51
        E 97 90 24 00
        E 23 90 3e 00
        E 347 90 3e 1f
        E 120 90 3e 00
        E 120 90 26 16
        E 121 90 26 00
        E 122 90 3e 45
        E 121 90 3e 00
        E 356 90 26 78
        E 14 90 3e 76
        E 106 90 26 00
        E 14 90 3e 00
        E 97 90 26 38
        E 120 90 26 00
        E 140 90 3e 24
        E 120 90 3e 00
        E 357 90 3e 2a
        E 2 90 24 49
        E 118 90 3e 00
        E 3 90 24 00
        E 344 90 24 73
        E 18 90 3f 54
        E 102 90 24 00
        E 18 90 3f 00
        E 356 90 3e 20
        E 120 90 3e 00
        E 118 90 3e 13
        E 119 90 3e 00
        E 116 90 3f 59
        E 120 90 3f 00
        E 344 90 26 79
        E 11 90 3e 72
        E 109 90 26 00
        E 11 90 3e 00
        E 356 90 3f 2d
        E 120 90 3f 00
        E 341 90 24 5a
        E 14 90 3f 3b
        E 106 90 24 00
        E 14 90 3f 00
        E 361 90 24 74
        E 14 90 3f 4f
        E 106 90 24 00
        E 14 90 3f 00
        E 355 90 3e 2b
        E 120 90 3e 00
        E 124 90 26 18
        E 120 90 26 00
        E 114 90 3f 46
        E 119 90 3f 00
        E 361 90 26 79
        E 9 90 3f 74
        E 111 90 26 00
        E 9 90 3f 00
        E 358 90 3f 27
        E 120 90 3f 00
        E 353 90 26 30
        E 3 90 1a 76
        E 117 90 26 00
        E 3 90 1a 00
        E 356 90 24 74
        E 14 90 3f 3a
        E 106 90 24 00
        E 14 90 3f 00
        E 354 90 3e 2a
        E 120 90 3e 00
        E 124 90 3e 1c
        E 120 90 3e 00
        E 107 90 3f 40
        E 120 90 3f 00
        E 135 90 26 07
        E 120 90 26 00
        E 107 90 26 77
        E 12 90 3e 78
        E 108 90 26 00
        E 12 90 3e 00
        E 93 90 26 2d
        E 120 90 26 00
        E 127 90 3f 2d
        E 120 90 3f 00
        E 362 90 24 5d
        E 10 90 3f 37
        E 110 90 24 00
        E 10 90 3f 00
        E 120 90 26 12
        E 120 90 26 00
        E 101 90 24 76
        E 20 90 3e 49
        E 100 90 24 00
        E 20 90 3e 00
        E 359 90 3e 2a
        E 121 90 3e 00
        E 123 90 3f 22
        E 120 90 3f 00
        E 116 90 3e 56
        E 120 90 3e 00
        E 350 90 26 7c
        E 8 90 3e 74
        E 112 90 26 00
        E 8 90 3e 00
        E 355 90 26 40
        E 15 90 19 49
        E 105 90 26 00
        E 15 90 19 00
        E 827 b0 7b 00
        CCINTERP 32
        CHASE_CC_TAKEOFFS 1
        GUID {B0E45400-B4DF-4198-AB32-B66C174737D8}
        IGNTEMPO 0 120 4 4
        SRCCOLOR 1
        VELLANE -1 100 0
        CFGEDITVIEW -201.6 0.248624 62 12 0 -1 0 0 0 0.5
        KEYSNAP 0
        TRACKSEL 0
        EVTFILTER 0 -1 -1 -1 -1 0 0 0 0 -1 -1 -1 -1 0 -1 0 -1 -1
        CFGEDIT 1 1 0 1 0 16 1 1 1 1 1 0.125 90 53 1854 760 0 0 0 0 0 0 0 1 0 0.5 0 0 1 64
      >
    >
    <ITEM
      POSITION 81.5
      SNAPOFFS 0
      LENGTH 3.5
      LOOP 1
      ALLTAKES 0
      FADEIN 1 0 0 1 0 0
      FADEOUT 1 0 0 1 0 0
      MUTE 0 0
      COLOR 26337038 R
      SEL 0
      IGUID {BA2D9006-F0F3-4000-B801-D26BB4BC069F}
      IID 2
      NAME "Variation 03 - Variation_03.mid"
      VOLPAN 1 0 1 -1
      SOFFS 0 0
      PLAYRATE 1 1 0 -1 0 0.0025
      CHANMODE 0
      GUID {4FE2E27E-A570-4B9F-8FDF-5A44B7EEF98C}
      <SOURCE MIDI
        HASDATA 1 960 QN
        CCINTERP 32
        POOLEDEVTS {B9C102C3-1923-4F06-A07E-2FA1A12F1B2E}
        <X 0 0 0 0 3 "Variation 03"
          /wNWYXJpYXRpb24gMDM=
        >
        E 0 90 24 6c
        E 0 90 34 6c
        E 0 90 39 6c
        E 9 90 15 28
        E 111 80 24 00
        E 0 80 34 00
        E 0 80 39 00
        E 9 90 15 00
        E 831 90 3c 7e
        E 0 90 26 7e
        E 120 80 3c 00
        E 0 80 26 00
        E 360 90 23 7e
        E 120 80 23 00
        E 360 90 23 7e
        E 0 90 35 7e
        E 120 80 23 00
        E 0 80 35 00
        E 360 90 23 7f
        E 0 90 35 7e
        E 120 80 23 00
        E 0 80 35 00
        E 120 90 35 7e
        E 120 80 35 00
        E 120 90 26 7e
        E 120 80 26 00
        E 120 90 35 3c
        E 120 80 35 00
        E 120 90 23 7e
        E 120 80 23 00
        E 360 90 35 43
        E 120 80 35 00
        E 360 90 35 56
        E 120 80 35 00
        E 360 90 26 7e
        E 0 90 35 7e
        E 120 80 26 00
        E 0 80 35 00
        E 360 90 23 7e
        E 0 90 35 5d
        E 120 80 23 00
        E 0 80 35 00
        E 360 90 26 7e
        E 120 80 26 00
        E 1808 90 3e 2f
        E 120 90 3e 00
        E 339 90 24 5d
        E 19 90 3e 23
        E 102 90 24 00
        E 19 90 3e 00
        E 99 90 26 0d
        E 121 90 26 00
        E 6 90 26 12
        E 120 90 26 00
        E 1 90 24 6b
        E 24 90 3e 51
        E 97 90 24 00
        E 23 90 3e 00
        E 347 90 3e 1f
        E 120 90 3e 00
        E 120 90 26 16
        E 121 90 26 00
        E 122 90 3e 45
        E 121 90 3e 00
        E 356 90 26 78
        E 14 90 3e 76
        E 106 90 26 00
        E 14 90 3e 00
        E 97 90 26 38
        E 120 90 26 00
        E 140 90 3e 24
        E 120 90 3e 00
        E 357 90 3e 2a
        E 2 90 24 49
        E 118 90 3e 00
        E 3 90 24 00
        E 344 90 24 73
        E 18 90 3f 54
        E 102 90 24 00
        E 18 90 3f 00
        E 356 90 3e 20
        E 120 90 3e 00
        E 118 90 3e 13
        E 119 90 3e 00
        E 116 90 3f 59
        E 120 90 3f 00
        E 344 90 26 79
        E 11 90 3e 72
        E 109 90 26 00
        E 11 90 3e 00
        E 356 90 3f 2d
        E 120 90 3f 00
        E 341 90 24 5a
        E 14 90 3f 3b
        E 106 90 24 00
        E 14 90 3f 00
        E 361 90 24 74
        E 14 90 3f 4f
        E 106 90 24 00
        E 14 90 3f 00
        E 355 90 3e 2b
        E 120 90 3e 00
        E 124 90 26 18
        E 120 90 26 00
        E 114 90 3f 46
        E 119 90 3f 00
        E 361 90 26 79
        E 9 90 3f 74
        E 111 90 26 00
        E 9 90 3f 00
        E 358 90 3f 27
        E 120 90 3f 00
        E 353 90 26 30
        E 3 90 1a 76
        E 117 90 26 00
        E 3 90 1a 00
        E 356 90 24 74
        E 14 90 3f 3a
        E 106 90 24 00
        E 14 90 3f 00
        E 354 90 3e 2a
        E 120 90 3e 00
        E 124 90 3e 1c
        E 120 90 3e 00
        E 107 90 3f 40
        E 120 90 3f 00
        E 135 90 26 07
        E 120 90 26 00
        E 107 90 26 77
        E 12 90 3e 78
        E 108 90 26 00
        E 12 90 3e 00
        E 93 90 26 2d
        E 120 90 26 00
        E 127 90 3f 2d
        E 120 90 3f 00
        E 362 90 24 5d
        E 10 90 3f 37
        E 110 90 24 00
        E 10 90 3f 00
        E 120 90 26 12
        E 120 90 26 00
        E 101 90 24 76
        E 20 90 3e 49
        E 100 90 24 00
        E 20 90 3e 00
        E 359 90 3e 2a
        E 121 90 3e 00
        E 123 90 3f 22
        E 120 90 3f 00
        E 116 90 3e 56
        E 120 90 3e 00
        E 350 90 26 7c
        E 8 90 3e 74
        E 112 90 26 00
        E 8 90 3e 00
        E 355 90 26 40
        E 15 90 19 49
        E 105 90 26 00
        E 15 90 19 00
        E 827 b0 7b 00
        CCINTERP 32
        CHASE_CC_TAKEOFFS 1
        GUID {B0E45400-B4DF-4198-AB32-B66C174737D8}
        IGNTEMPO 0 120 4 4
        SRCCOLOR 1
        VELLANE -1 100 0
        CFGEDITVIEW -201.6 0.248624 62 12 0 -1 0 0 0 0.5
        KEYSNAP 0
        TRACKSEL 0
        EVTFILTER 0 -1 -1 -1 -1 0 0 0 0 -1 -1 -1 -1 0 -1 0 -1 -1
        CFGEDIT 1 1 0 1 0 16 1 1 1 1 1 0.125 90 53 1854 760 0 0 0 0 0 0 0 1 0 0.5 0 0 1 64
      >
    >
    <ITEM
      POSITION 85
      SNAPOFFS 0
      LENGTH 3.5
      LOOP 1
      ALLTAKES 0
      FADEIN 1 0 0 1 0 0
      FADEOUT 1 0 0 1 0 0
      MUTE 0 0
      COLOR 26337038 R
      SEL 0
      IGUID {6AEB8277-22F4-4113-98EA-4A5164397C74}
      IID 2
      NAME "Variation 03 - Variation_03.mid"
      VOLPAN 1 0 1 -1
      SOFFS 0 0
      PLAYRATE 1 1 0 -1 0 0.0025
      CHANMODE 0
      GUID {1DDC8EAA-78D1-4E44-AF54-82528307AA22}
      <SOURCE MIDI
        HASDATA 1 960 QN
        CCINTERP 32
        POOLEDEVTS {E375B910-E124-4E4A-8D03-C1C92690455A}
        <X 0 0 0 0 3 "Variation 03"
          /wNWYXJpYXRpb24gMDM=
        >
        E 0 90 24 6c
        E 0 90 34 6c
        E 0 90 39 6c
        E 9 90 15 28
        E 111 80 24 00
        E 0 80 34 00
        E 0 80 39 00
        E 9 90 15 00
        E 831 90 3c 7e
        E 0 90 26 7e
        E 120 80 3c 00
        E 0 80 26 00
        E 360 90 23 7e
        E 120 80 23 00
        E 360 90 23 7e
        E 0 90 35 7e
        E 120 80 23 00
        E 0 80 35 00
        E 360 90 23 7f
        E 0 90 35 7e
        E 120 80 23 00
        E 0 80 35 00
        E 120 90 35 7e
        E 120 80 35 00
        E 120 90 26 7e
        E 120 80 26 00
        E 120 90 35 3c
        E 120 80 35 00
        E 120 90 23 7e
        E 120 80 23 00
        E 360 90 35 43
        E 120 80 35 00
        E 360 90 35 56
        E 120 80 35 00
        E 360 90 26 7e
        E 0 90 35 7e
        E 120 80 26 00
        E 0 80 35 00
        E 360 90 23 7e
        E 0 90 35 5d
        E 120 80 23 00
        E 0 80 35 00
        E 360 90 26 7e
        E 120 80 26 00
        E 360 90 24 7e
        E 0 90 38 7e
        E 0 90 37 7e
        e 0 90 34 7e
        E 120 80 24 00
        E 0 80 38 00
        E 0 80 37 00
        e 0 80 34 00
        E 1328 90 3e 2f
        E 120 90 3e 00
        E 339 90 24 5d
        E 19 90 3e 23
        E 102 90 24 00
        E 19 90 3e 00
        E 99 90 26 0d
        E 121 90 26 00
        E 6 90 26 12
        E 120 90 26 00
        E 1 90 24 6b
        E 24 90 3e 51
        E 97 90 24 00
        E 23 90 3e 00
        E 347 90 3e 1f
        E 120 90 3e 00
        E 120 90 26 16
        E 121 90 26 00
        E 122 90 3e 45
        E 121 90 3e 00
        E 356 90 26 78
        E 14 90 3e 76
        E 106 90 26 00
        E 14 90 3e 00
        E 97 90 26 38
        E 120 90 26 00
        E 140 90 3e 24
        E 120 90 3e 00
        E 357 90 3e 2a
        E 2 90 24 49
        E 118 90 3e 00
        E 3 90 24 00
        E 344 90 24 73
        E 18 90 3f 54
        E 102 90 24 00
        E 18 90 3f 00
        E 356 90 3e 20
        E 120 90 3e 00
        E 118 90 3e 13
        E 119 90 3e 00
        E 116 90 3f 59
        E 120 90 3f 00
        E 344 90 26 79
        E 11 90 3e 72
        E 109 90 26 00
        E 11 90 3e 00
        E 356 90 3f 2d
        E 120 90 3f 00
        E 341 90 24 5a
        E 14 90 3f 3b
        E 106 90 24 00
        E 14 90 3f 00
        E 361 90 24 74
        E 14 90 3f 4f
        E 106 90 24 00
        E 14 90 3f 00
        E 355 90 3e 2b
        E 120 90 3e 00
        E 124 90 26 18
        E 120 90 26 00
        E 114 90 3f 46
        E 119 90 3f 00
        E 361 90 26 79
        E 9 90 3f 74
        E 111 90 26 00
        E 9 90 3f 00
        E 358 90 3f 27
        E 120 90 3f 00
        E 353 90 26 30
        E 3 90 1a 76
        E 117 90 26 00
        E 3 90 1a 00
        E 356 90 24 74
        E 14 90 3f 3a
        E 106 90 24 00
        E 14 90 3f 00
        E 354 90 3e 2a
        E 120 90 3e 00
        E 124 90 3e 1c
        E 120 90 3e 00
        E 107 90 3f 40
        E 120 90 3f 00
        E 135 90 26 07
        E 120 90 26 00
        E 107 90 26 77
        E 12 90 3e 78
        E 108 90 26 00
        E 12 90 3e 00
        E 93 90 26 2d
        E 120 90 26 00
        E 127 90 3f 2d
        E 120 90 3f 00
        E 362 90 24 5d
        E 10 90 3f 37
        E 110 90 24 00
        E 10 90 3f 00
        E 120 90 26 12
        E 120 90 26 00
        E 101 90 24 76
        E 20 90 3e 49
        E 100 90 24 00
        E 20 90 3e 00
        E 359 90 3e 2a
        E 121 90 3e 00
        E 123 90 3f 22
        E 120 90 3f 00
        E 116 90 3e 56
        E 120 90 3e 00
        E 350 90 26 7c
        E 8 90 3e 74
        E 112 90 26 00
        E 8 90 3e 00
        E 355 90 26 40
        E 15 90 19 49
        E 105 90 26 00
        E 15 90 19 00
        E 827 b0 7b 00
        CCINTERP 32
        CHASE_CC_TAKEOFFS 1
        GUID {B0E45400-B4DF-4198-AB32-B66C174737D8}
        IGNTEMPO 0 120 4 4
        SRCCOLOR 1
        VELLANE -1 100 0
        CFGEDITVIEW -46865.066667 0.248624 62 12 0 -1 0 0 0 0.5
        KEYSNAP 0
        TRACKSEL 0
        EVTFILTER 0 -1 -1 -1 -1 0 0 0 0 -1 -1 -1 -1 0 -1 0 -1 -1
        CFGEDIT 1 1 0 1 0 16 1 1 1 1 1 0.125 90 53 1854 760 0 0 0 0 0 0 0 1 0 0.5 0 0 1 64
      >
    >
    <ITEM
      POSITION 88.5
      SNAPOFFS 0
      LENGTH 3.5
      LOOP 1
      ALLTAKES 0
      FADEIN 1 0 0 1 0 0
      FADEOUT 1 0 0 1 0 0
      MUTE 0 0
      COLOR 26337038 R
      SEL 0
      IGUID {4221376B-E364-4D18-8BD4-4910CE9B9F52}
      IID 2
      NAME "Variation 03 - Variation_03.mid"
      VOLPAN 1 0 1 -1
      SOFFS 0 0
      PLAYRATE 1 1 0 -1 0 0.0025
      CHANMODE 0
      GUID {CC2AD69F-717C-4146-95DD-CEDED6C82591}
      <SOURCE MIDI
        HASDATA 1 960 QN
        CCINTERP 32
        POOLEDEVTS {A0D66FCA-9F3B-41C8-8E8A-BE8BE31E65C6}
        <X 0 0 0 0 3 "Variation 03"
          /wNWYXJpYXRpb24gMDM=
        >
        E 0 90 24 6c
        E 0 90 34 6c
        E 0 90 39 6c
        E 9 90 15 28
        E 111 80 24 00
        E 0 80 34 00
        E 0 80 39 00
        E 9 90 15 00
        E 831 90 3c 7e
        E 0 90 26 7e
        E 120 80 3c 00
        E 0 80 26 00
        E 360 90 23 7e
        E 120 80 23 00
        E 360 90 23 7e
        E 0 90 35 7e
        E 120 80 23 00
        E 0 80 35 00
        E 120 90 2f 60
        E 120 80 2f 00
        E 0 90 2d 60
        E 120 80 2d 00
        E 0 90 2f 60
        E 120 80 2f 00
        E 0 90 2d 60
        E 120 80 2d 00
        E 0 90 2b 60
        E 120 80 2b 00
        E 120 90 2b 60
        E 120 80 2b 00
        E 120 90 29 60
        E 120 80 29 00
        E 0 90 29 60
        E 120 80 29 00
        E 0 90 29 60
        E 120 80 29 00
        e 120 90 29 60
        e 120 80 29 00
        E 120 90 35 43
        E 120 80 35 00
        E 360 90 35 56
        E 120 80 35 00
        E 360 90 26 7e
        E 0 90 35 7e
        E 120 80 26 00
        E 0 80 35 00
        E 360 90 23 7e
        E 0 90 35 5d
        E 120 80 23 00
        E 0 80 35 00
        E 360 90 26 7e
        E 120 80 26 00
        E 1808 90 3e 2f
        E 120 90 3e 00
        E 339 90 24 5d
        E 19 90 3e 23
        E 102 90 24 00
        E 19 90 3e 00
        E 99 90 26 0d
        E 121 90 26 00
        E 6 90 26 12
        E 120 90 26 00
        E 1 90 24 6b
        E 24 90 3e 51
        E 97 90 24 00
        E 23 90 3e 00
        E 347 90 3e 1f
        E 120 90 3e 00
        E 120 90 26 16
        E 121 90 26 00
        E 122 90 3e 45
        E 121 90 3e 00
        E 356 90 26 78
        E 14 90 3e 76
        E 106 90 26 00
        E 14 90 3e 00
        E 97 90 26 38
        E 120 90 26 00
        E 140 90 3e 24
        E 120 90 3e 00
        E 357 90 3e 2a
        E 2 90 24 49
        E 118 90 3e 00
        E 3 90 24 00
        E 344 90 24 73
        E 18 90 3f 54
        E 102 90 24 00
        E 18 90 3f 00
        E 356 90 3e 20
        E 120 90 3e 00
        E 118 90 3e 13
        E 119 90 3e 00
        E 116 90 3f 59
        E 120 90 3f 00
        E 344 90 26 79
        E 11 90 3e 72
        E 109 90 26 00
        E 11 90 3e 00
        E 356 90 3f 2d
        E 120 90 3f 00
        E 341 90 24 5a
        E 14 90 3f 3b
        E 106 90 24 00
        E 14 90 3f 00
        E 361 90 24 74
        E 14 90 3f 4f
        E 106 90 24 00
        E 14 90 3f 00
        E 355 90 3e 2b
        E 120 90 3e 00
        E 124 90 26 18
        E 120 90 26 00
        E 114 90 3f 46
        E 119 90 3f 00
        E 361 90 26 79
        E 9 90 3f 74
        E 111 90 26 00
        E 9 90 3f 00
        E 358 90 3f 27
        E 120 90 3f 00
        E 353 90 26 30
        E 3 90 1a 76
        E 117 90 26 00
        E 3 90 1a 00
        E 356 90 24 74
        E 14 90 3f 3a
        E 106 90 24 00
        E 14 90 3f 00
        E 354 90 3e 2a
        E 120 90 3e 00
        E 124 90 3e 1c
        E 120 90 3e 00
        E 107 90 3f 40
        E 120 90 3f 00
        E 135 90 26 07
        E 120 90 26 00
        E 107 90 26 77
        E 12 90 3e 78
        E 108 90 26 00
        E 12 90 3e 00
        E 93 90 26 2d
        E 120 90 26 00
        E 127 90 3f 2d
        E 120 90 3f 00
        E 362 90 24 5d
        E 10 90 3f 37
        E 110 90 24 00
        E 10 90 3f 00
        E 120 90 26 12
        E 120 90 26 00
        E 101 90 24 76
        E 20 90 3e 49
        E 100 90 24 00
        E 20 90 3e 00
        E 359 90 3e 2a
        E 121 90 3e 00
        E 123 90 3f 22
        E 120 90 3f 00
        E 116 90 3e 56
        E 120 90 3e 00
        E 350 90 26 7c
        E 8 90 3e 74
        E 112 90 26 00
        E 8 90 3e 00
        E 355 90 26 40
        E 15 90 19 49
        E 105 90 26 00
        E 15 90 19 00
        E 827 b0 7b 00
        CCINTERP 32
        CHASE_CC_TAKEOFFS 1
        GUID {B0E45400-B4DF-4198-AB32-B66C174737D8}
        IGNTEMPO 0 120 4 4
        SRCCOLOR 1
        VELLANE -1 100 0
        CFGEDITVIEW -53585.066667 0.248624 62 12 0 -1 0 0 0 0.5
        KEYSNAP 0
        TRACKSEL 0
        EVTFILTER 0 -1 -1 -1 -1 0 0 0 0 -1 -1 -1 -1 0 -1 0 -1 -1
        CFGEDIT 1 1 0 1 0 16 1 1 1 1 1 0.125 90 53 1854 760 0 0 0 0 0 0 0 1 0 0.5 0 0 1 64
      >
    >
    <ITEM
      POSITION 92
      SNAPOFFS 0
      LENGTH 2
      LOOP 1
      ALLTAKES 0
      FADEIN 1 0 0 1 0 0
      FADEOUT 1 0 0 1 0 0
      MUTE 0 0
      COLOR 28019170 R
      SEL 0
      IGUID {851CA646-C414-4767-BB98-2DE56E55757F}
      IID 2
      NAME "Variation 03 - Variation_03.mid"
      VOLPAN 1 0 1 -1
      SOFFS 0 0
      PLAYRATE 1 1 0 -1 0 0.0025
      CHANMODE 0
      GUID {D0549856-BFF6-4FC6-A8FB-39D0924BFED2}
      <SOURCE MIDI
        HASDATA 1 960 QN
        CCINTERP 32
        POOLEDEVTS {63A3E018-A1BF-4751-9207-A0B87F1005D3}
        <X 0 0 0 0 3 "Variation 03"
          /wNWYXJpYXRpb24gMDM=
        >
        E 0 90 3e 60
        E 120 80 3e 00
        E 840 90 3e 60
        E 120 80 3e 00
        E 840 90 3e 60
        E 120 80 3e 00
        e 840 90 3e 60
        e 120 80 3e 00
        E 4688 90 3e 2f
        E 120 90 3e 00
        E 339 90 24 5d
        E 19 90 3e 23
        E 102 90 24 00
        E 19 90 3e 00
        E 99 90 26 0d
        E 121 90 26 00
        E 6 90 26 12
        E 120 90 26 00
        E 1 90 24 6b
        E 24 90 3e 51
        E 97 90 24 00
        E 23 90 3e 00
        E 347 90 3e 1f
        E 120 90 3e 00
        E 120 90 26 16
        E 121 90 26 00
        E 122 90 3e 45
        E 121 90 3e 00
        E 356 90 26 78
        E 14 90 3e 76
        E 106 90 26 00
        E 14 90 3e 00
        E 97 90 26 38
        E 120 90 26 00
        E 140 90 3e 24
        E 120 90 3e 00
        E 357 90 3e 2a
        E 2 90 24 49
        E 118 90 3e 00
        E 3 90 24 00
        E 344 90 24 73
        E 18 90 3f 54
        E 102 90 24 00
        E 18 90 3f 00
        E 356 90 3e 20
        E 120 90 3e 00
        E 118 90 3e 13
        E 119 90 3e 00
        E 116 90 3f 59
        E 120 90 3f 00
        E 344 90 26 79
        E 11 90 3e 72
        E 109 90 26 00
        E 11 90 3e 00
        E 356 90 3f 2d
        E 120 90 3f 00
        E 341 90 24 5a
        E 14 90 3f 3b
        E 106 90 24 00
        E 14 90 3f 00
        E 361 90 24 74
        E 14 90 3f 4f
        E 106 90 24 00
        E 14 90 3f 00
        E 355 90 3e 2b
        E 120 90 3e 00
        E 124 90 26 18
        E 120 90 26 00
        E 114 90 3f 46
        E 119 90 3f 00
        E 361 90 26 79
        E 9 90 3f 74
        E 111 90 26 00
        E 9 90 3f 00
        E 358 90 3f 27
        E 120 90 3f 00
        E 353 90 26 30
        E 3 90 1a 76
        E 117 90 26 00
        E 3 90 1a 00
        E 356 90 24 74
        E 14 90 3f 3a
        E 106 90 24 00
        E 14 90 3f 00
        E 354 90 3e 2a
        E 120 90 3e 00
        E 124 90 3e 1c
        E 120 90 3e 00
        E 107 90 3f 40
        E 120 90 3f 00
        E 135 90 26 07
        E 120 90 26 00
        E 107 90 26 77
        E 12 90 3e 78
        E 108 90 26 00
        E 12 90 3e 00
        E 93 90 26 2d
        E 120 90 26 00
        E 127 90 3f 2d
        E 120 90 3f 00
        E 362 90 24 5d
        E 10 90 3f 37
        E 110 90 24 00
        E 10 90 3f 00
        E 120 90 26 12
        E 120 90 26 00
        E 101 90 24 76
        E 20 90 3e 49
        E 100 90 24 00
        E 20 90 3e 00
        E 359 90 3e 2a
        E 121 90 3e 00
        E 123 90 3f 22
        E 120 90 3f 00
        E 116 90 3e 56
        E 120 90 3e 00
        E 350 90 26 7c
        E 8 90 3e 74
        E 112 90 26 00
        E 8 90 3e 00
        E 355 90 26 40
        E 15 90 19 49
        E 105 90 26 00
        E 15 90 19 00
        E 827 b0 7b 00
        CCINTERP 32
        CHASE_CC_TAKEOFFS 1
        GUID {B0E45400-B4DF-4198-AB32-B66C174737D8}
        IGNTEMPO 0 120 4 4
        SRCCOLOR 1
        VELLANE -1 100 0
        CFGEDITVIEW -4075.900249 0.168557 62 12 0 -1 0 0 0 0.5
        KEYSNAP 0
        TRACKSEL 0
        EVTFILTER 0 -1 -1 -1 -1 0 0 0 0 -1 -1 -1 -1 0 -1 0 -1 -1
        CFGEDIT 1 1 0 1 0 16 1 1 1 1 1 0.125 90 53 1854 760 0 0 0 0 0 0 0 1 0 0.5 0 0 1 64
      >
    >
    <ITEM
      POSITION 94
      SNAPOFFS 0
      LENGTH 2
      LOOP 1
      ALLTAKES 0
      FADEIN 1 0 0 1 0 0
      FADEOUT 1 0 0 1 0 0
      MUTE 0 0
      COLOR 28019170 R
      SEL 0
      IGUID {E4A94A7E-A7CE-4A68-9188-802223464240}
      IID 2
      NAME "Variation 03 - Variation_03.mid"
      VOLPAN 1 0 1 -1
      SOFFS 0 0
      PLAYRATE 1 1 0 -1 0 0.0025
      CHANMODE 0
      GUID {CDDB1E1D-8219-4A04-8F36-6CB3AAB33BD4}
      <SOURCE MIDI
        HASDATA 1 960 QN
        CCINTERP 32
        POOLEDEVTS {7D2875A7-307A-4D7C-84D7-5291602C9824}
        <X 0 0 0 0 3 "Variation 03"
          /wNWYXJpYXRpb24gMDM=
        >
        E 0 90 3e 60
        E 120 80 3e 00
        E 840 90 3e 60
        E 120 80 3e 00
        E 840 90 3e 60
        E 120 80 3e 00
        e 840 90 3e 60
        e 120 80 3e 00
        E 4688 90 3e 2f
        E 120 90 3e 00
        E 339 90 24 5d
        E 19 90 3e 23
        E 102 90 24 00
        E 19 90 3e 00
        E 99 90 26 0d
        E 121 90 26 00
        E 6 90 26 12
        E 120 90 26 00
        E 1 90 24 6b
        E 24 90 3e 51
        E 97 90 24 00
        E 23 90 3e 00
        E 347 90 3e 1f
        E 120 90 3e 00
        E 120 90 26 16
        E 121 90 26 00
        E 122 90 3e 45
        E 121 90 3e 00
        E 356 90 26 78
        E 14 90 3e 76
        E 106 90 26 00
        E 14 90 3e 00
        E 97 90 26 38
        E 120 90 26 00
        E 140 90 3e 24
        E 120 90 3e 00
        E 357 90 3e 2a
        E 2 90 24 49
        E 118 90 3e 00
        E 3 90 24 00
        E 344 90 24 73
        E 18 90 3f 54
        E 102 90 24 00
        E 18 90 3f 00
        E 356 90 3e 20
        E 120 90 3e 00
        E 118 90 3e 13
        E 119 90 3e 00
        E 116 90 3f 59
        E 120 90 3f 00
        E 344 90 26 79
        E 11 90 3e 72
        E 109 90 26 00
        E 11 90 3e 00
        E 356 90 3f 2d
        E 120 90 3f 00
        E 341 90 24 5a
        E 14 90 3f 3b
        E 106 90 24 00
        E 14 90 3f 00
        E 361 90 24 74
        E 14 90 3f 4f
        E 106 90 24 00
        E 14 90 3f 00
        E 355 90 3e 2b
        E 120 90 3e 00
        E 124 90 26 18
        E 120 90 26 00
        E 114 90 3f 46
        E 119 90 3f 00
        E 361 90 26 79
        E 9 90 3f 74
        E 111 90 26 00
        E 9 90 3f 00
        E 358 90 3f 27
        E 120 90 3f 00
        E 353 90 26 30
        E 3 90 1a 76
        E 117 90 26 00
        E 3 90 1a 00
        E 356 90 24 74
        E 14 90 3f 3a
        E 106 90 24 00
        E 14 90 3f 00
        E 354 90 3e 2a
        E 120 90 3e 00
        E 124 90 3e 1c
        E 120 90 3e 00
        E 107 90 3f 40
        E 120 90 3f 00
        E 135 90 26 07
        E 120 90 26 00
        E 107 90 26 77
        E 12 90 3e 78
        E 108 90 26 00
        E 12 90 3e 00
        E 93 90 26 2d
        E 120 90 26 00
        E 127 90 3f 2d
        E 120 90 3f 00
        E 362 90 24 5d
        E 10 90 3f 37
        E 110 90 24 00
        E 10 90 3f 00
        E 120 90 26 12
        E 120 90 26 00
        E 101 90 24 76
        E 20 90 3e 49
        E 100 90 24 00
        E 20 90 3e 00
        E 359 90 3e 2a
        E 121 90 3e 00
        E 123 90 3f 22
        E 120 90 3f 00
        E 116 90 3e 56
        E 120 90 3e 00
        E 350 90 26 7c
        E 8 90 3e 74
        E 112 90 26 00
        E 8 90 3e 00
        E 355 90 26 40
        E 15 90 19 49
        E 105 90 26 00
        E 15 90 19 00
        E 827 b0 7b 00
        CCINTERP 32
        CHASE_CC_TAKEOFFS 1
        GUID {B0E45400-B4DF-4198-AB32-B66C174737D8}
        IGNTEMPO 0 120 4 4
        SRCCOLOR 1
        VELLANE -1 100 0
        CFGEDITVIEW -4075.900249 0.168557 62 12 0 -1 0 0 0 0.5
        KEYSNAP 0
        TRACKSEL 0
        EVTFILTER 0 -1 -1 -1 -1 0 0 0 0 -1 -1 -1 -1 0 -1 0 -1 -1
        CFGEDIT 1 1 0 1 0 16 1 1 1 1 1 0.125 90 53 1854 760 0 0 0 0 0 0 0 1 0 0.5 0 0 1 64
      >
    >
    <ITEM
      POSITION 96
      SNAPOFFS 0
      LENGTH 4
      LOOP 1
      ALLTAKES 0
      FADEIN 1 0 0 1 0 0
      FADEOUT 1 0 0 1 0 0
      MUTE 0 0
      SEL 0
      IGUID {2EDE9B3D-2794-4ED1-9155-DDA48F5BFE49}
      IID 43
      NAME "Variation 03 - Variation_03-glued"
      VOLPAN 1 0 1 -1
      SOFFS 0 0
      PLAYRATE 1 1 0 -1 0 0.0025
      CHANMODE 0
      GUID {C451DEBC-D353-4509-94CC-C3965229F2BC}
      <SOURCE MIDI
        HASDATA 1 960 QN
        CCINTERP 32
        POOLEDEVTS {3B74339B-983D-4BF4-B151-9E8B64EA646C}
        <X 0 0 0 0 3 "Variation 03"
          /wNWYXJpYXRpb24gMDM=
        >
        E 0 90 3c 60
        E 0 90 3e 60
        E 120 80 3c 00
        E 0 80 3e 00
        E 120 90 3e 45
        E 120 80 3e 00
        E 120 90 3e 60
        E 120 80 3e 00
        E 120 90 3c 60
        E 120 80 3c 00
        E 360 90 3e 60
        E 120 80 3e 00
        E 120 90 3e 47
        E 120 80 3e 00
        E 120 90 3e 40
        E 120 80 3e 00
        E 120 90 3c 60
        E 120 80 3c 00
        E 120 90 3e 43
        E 120 80 3e 00
        E 120 90 3e 50
        E 120 80 3e 00
        E 120 90 3c 73
        E 120 80 3c 00
        E 120 90 3e 60
        E 120 80 3e 00
        E 120 90 3e 60
        E 120 80 3e 00
        E 120 90 3e 60
        E 120 80 3e 00
        E 120 90 3e 60
        E 120 80 3e 00
        <X 120 0 0 0 3 "Variation 03"
          /wNWYXJpYXRpb24gMDM=
        >
        E 0 90 3e 60
        E 120 80 3e 00
        E 120 90 3e 44
        E 120 80 3e 00
        E 120 90 3e 3a
        E 120 80 3e 00
        E 120 90 3e 60
        E 120 80 3e 00
        E 120 90 3c 60
        E 120 80 3c 00
        E 360 90 3c 60
        E 120 80 3c 00
        E 120 90 3e 60
        E 120 80 3e 00
        E 120 90 3e 60
        E 120 80 3e 00
        E 360 90 3c 60
        E 120 80 3c 00
        E 360 90 3e 60
        E 120 80 3e 00
        e 360 90 3e 60
        e 120 80 3e 00
        E 360 b0 7b 00
        CCINTERP 32
        CHASE_CC_TAKEOFFS 1
        GUID {19F8D552-3ACC-44B9-A6F7-42B94FB4CD99}
        IGNTEMPO 0 120 4 4
        SRCCOLOR 43
        VELLANE -1 100 0
        CFGEDITVIEW 0 0.089063 65 12 0 -1 0 0 0 0.5
        KEYSNAP 0
        TRACKSEL 0
        EVTFILTER 0 -1 -1 -1 -1 0 0 0 0 -1 -1 -1 -1 0 -1 0 -1 -1
        CFGEDIT 1 1 0 1 0 16 1 1 1 1 1 0.125 106 69 1854 760 0 0 0 0 0 0 0 1 0 0.5 0 0 1 64
      >
    >
    <ITEM
      POSITION 100
      SNAPOFFS 0
      LENGTH 2
      LOOP 1
      ALLTAKES 0
      FADEIN 1 0 0 1 0 0
      FADEOUT 1 0 0 1 0 0
      MUTE 0 0
      COLOR 28019170 R
      SEL 0
      IGUID {EC21A8F4-7EE4-4B0C-93AE-C70F407AC435}
      IID 2
      NAME "Variation 03 - Variation_03.mid"
      VOLPAN 1 0 1 -1
      SOFFS 0 0
      PLAYRATE 1 1 0 -1 0 0.0025
      CHANMODE 0
      GUID {E02F3B2F-70EE-430F-B247-95A5CC8FA3E4}
      <SOURCE MIDI
        HASDATA 1 960 QN
        CCINTERP 32
        POOLEDEVTS {3FD67FC9-939D-4184-9FB9-5B793DB3D8E4}
        <X 0 0 0 0 3 "Variation 03"
          /wNWYXJpYXRpb24gMDM=
        >
        E 0 90 3b 60
        E 0 90 39 60
        E 0 90 35 60
        E 0 90 34 60
        E 0 90 24 60
        E 120 80 3b 00
        E 0 80 39 00
        E 0 80 35 00
        E 0 80 34 00
        E 0 80 24 00
        E 360 90 3b 60
        E 0 90 39 60
        E 0 90 34 60
        E 0 90 24 60
        E 120 80 3b 00
        E 0 80 39 00
        E 0 80 34 00
        E 0 80 24 00
        E 360 90 3e 60
        E 120 80 3e 00
        E 840 90 3e 60
        E 120 80 3e 00
        E 840 90 3e 60
        E 120 80 3e 00
        E 4688 90 3e 2f
        E 120 90 3e 00
        E 339 90 24 5d
        E 19 90 3e 23
        E 102 90 24 00
        E 19 90 3e 00
        E 99 90 26 0d
        E 121 90 26 00
        E 6 90 26 12
        E 120 90 26 00
        E 1 90 24 6b
        E 24 90 3e 51
        E 97 90 24 00
        E 23 90 3e 00
        E 347 90 3e 1f
        E 120 90 3e 00
        E 120 90 26 16
        E 121 90 26 00
        E 122 90 3e 45
        E 121 90 3e 00
        E 356 90 26 78
        E 14 90 3e 76
        E 106 90 26 00
        E 14 90 3e 00
        E 97 90 26 38
        E 120 90 26 00
        E 140 90 3e 24
        E 120 90 3e 00
        E 357 90 3e 2a
        E 2 90 24 49
        E 118 90 3e 00
        E 3 90 24 00
        E 344 90 24 73
        E 18 90 3f 54
        E 102 90 24 00
        E 18 90 3f 00
        E 356 90 3e 20
        E 120 90 3e 00
        E 118 90 3e 13
        E 119 90 3e 00
        E 116 90 3f 59
        E 120 90 3f 00
        E 344 90 26 79
        E 11 90 3e 72
        E 109 90 26 00
        E 11 90 3e 00
        E 356 90 3f 2d
        E 120 90 3f 00
        E 341 90 24 5a
        E 14 90 3f 3b
        E 106 90 24 00
        E 14 90 3f 00
        E 361 90 24 74
        E 14 90 3f 4f
        E 106 90 24 00
        E 14 90 3f 00
        E 355 90 3e 2b
        E 120 90 3e 00
        E 124 90 26 18
        E 120 90 26 00
        E 114 90 3f 46
        E 119 90 3f 00
        E 361 90 26 79
        E 9 90 3f 74
        E 111 90 26 00
        E 9 90 3f 00
        E 358 90 3f 27
        E 120 90 3f 00
        E 353 90 26 30
        E 3 90 1a 76
        E 117 90 26 00
        E 3 90 1a 00
        E 356 90 24 74
        E 14 90 3f 3a
        E 106 90 24 00
        E 14 90 3f 00
        E 354 90 3e 2a
        E 120 90 3e 00
        E 124 90 3e 1c
        E 120 90 3e 00
        E 107 90 3f 40
        E 120 90 3f 00
        E 135 90 26 07
        E 120 90 26 00
        E 107 90 26 77
        E 12 90 3e 78
        E 108 90 26 00
        E 12 90 3e 00
        E 93 90 26 2d
        E 120 90 26 00
        E 127 90 3f 2d
        E 120 90 3f 00
        E 362 90 24 5d
        E 10 90 3f 37
        E 110 90 24 00
        E 10 90 3f 00
        E 120 90 26 12
        E 120 90 26 00
        E 101 90 24 76
        E 20 90 3e 49
        E 100 90 24 00
        E 20 90 3e 00
        E 359 90 3e 2a
        E 121 90 3e 00
        E 123 90 3f 22
        E 120 90 3f 00
        E 116 90 3e 56
        E 120 90 3e 00
        E 350 90 26 7c
        E 8 90 3e 74
        E 112 90 26 00
        E 8 90 3e 00
        E 355 90 26 40
        E 15 90 19 49
        E 105 90 26 00
        E 15 90 19 00
        E 827 b0 7b 00
        CCINTERP 32
        CHASE_CC_TAKEOFFS 1
        GUID {B0E45400-B4DF-4198-AB32-B66C174737D8}
        IGNTEMPO 0 120 4 4
        SRCCOLOR 1
        VELLANE -1 100 0
        CFGEDITVIEW -191869.64898 0.168557 62 12 0 -1 0 0 0 0.5
        KEYSNAP 0
        TRACKSEL 0
        EVTFILTER 0 -1 -1 -1 -1 0 0 0 0 -1 -1 -1 -1 0 -1 0 -1 -1
        CFGEDIT 1 1 0 1 0 16 1 1 1 1 1 0.125 90 53 1854 760 0 0 0 0 0 0 0 1 0 0.5 0 0 1 64
      >
    >
    <ITEM
      POSITION 102
      SNAPOFFS 0
      LENGTH 2
      LOOP 1
      ALLTAKES 0
      FADEIN 1 0 0 1 0 0
      FADEOUT 1 0 0 1 0 0
      MUTE 0 0
      COLOR 28019170 R
      SEL 0
      IGUID {C63BC6FA-4A34-47E5-A998-5053818F74D5}
      IID 2
      NAME "Variation 03 - Variation_03.mid"
      VOLPAN 1 0 1 -1
      SOFFS 0 0
      PLAYRATE 1 1 0 -1 0 0.0025
      CHANMODE 0
      GUID {DF3C4D50-EE5A-4603-9441-B1664F4B0E77}
      <SOURCE MIDI
        HASDATA 1 960 QN
        CCINTERP 32
        POOLEDEVTS {E723FB4A-5142-48CB-A600-F9F0052C9181}
        <X 0 0 0 0 3 "Variation 03"
          /wNWYXJpYXRpb24gMDM=
        >
        E 0 90 3b 60
        E 0 90 39 60
        E 0 90 35 60
        E 0 90 34 60
        E 0 90 24 60
        E 120 80 3b 00
        E 0 80 39 00
        E 0 80 35 00
        E 0 80 34 00
        E 0 80 24 00
        e 1320 90 3b 60
        e 0 90 39 60
        e 0 90 34 60
        e 0 90 24 60
        e 120 80 3b 00
        e 0 80 39 00
        e 0 80 34 00
        e 0 80 24 00
        E 360 90 3e 60
        E 120 80 3e 00
        E 840 90 3e 60
        E 120 80 3e 00
        E 4688 90 3e 2f
        E 120 90 3e 00
        E 339 90 24 5d
        E 19 90 3e 23
        E 102 90 24 00
        E 19 90 3e 00
        E 99 90 26 0d
        E 121 90 26 00
        E 6 90 26 12
        E 120 90 26 00
        E 1 90 24 6b
        E 24 90 3e 51
        E 97 90 24 00
        E 23 90 3e 00
        E 347 90 3e 1f
        E 120 90 3e 00
        E 120 90 26 16
        E 121 90 26 00
        E 122 90 3e 45
        E 121 90 3e 00
        E 356 90 26 78
        E 14 90 3e 76
        E 106 90 26 00
        E 14 90 3e 00
        E 97 90 26 38
        E 120 90 26 00
        E 140 90 3e 24
        E 120 90 3e 00
        E 357 90 3e 2a
        E 2 90 24 49
        E 118 90 3e 00
        E 3 90 24 00
        E 344 90 24 73
        E 18 90 3f 54
        E 102 90 24 00
        E 18 90 3f 00
        E 356 90 3e 20
        E 120 90 3e 00
        E 118 90 3e 13
        E 119 90 3e 00
        E 116 90 3f 59
        E 120 90 3f 00
        E 344 90 26 79
        E 11 90 3e 72
        E 109 90 26 00
        E 11 90 3e 00
        E 356 90 3f 2d
        E 120 90 3f 00
        E 341 90 24 5a
        E 14 90 3f 3b
        E 106 90 24 00
        E 14 90 3f 00
        E 361 90 24 74
        E 14 90 3f 4f
        E 106 90 24 00
        E 14 90 3f 00
        E 355 90 3e 2b
        E 120 90 3e 00
        E 124 90 26 18
        E 120 90 26 00
        E 114 90 3f 46
        E 119 90 3f 00
        E 361 90 26 79
        E 9 90 3f 74
        E 111 90 26 00
        E 9 90 3f 00
        E 358 90 3f 27
        E 120 90 3f 00
        E 353 90 26 30
        E 3 90 1a 76
        E 117 90 26 00
        E 3 90 1a 00
        E 356 90 24 74
        E 14 90 3f 3a
        E 106 90 24 00
        E 14 90 3f 00
        E 354 90 3e 2a
        E 120 90 3e 00
        E 124 90 3e 1c
        E 120 90 3e 00
        E 107 90 3f 40
        E 120 90 3f 00
        E 135 90 26 07
        E 120 90 26 00
        E 107 90 26 77
        E 12 90 3e 78
        E 108 90 26 00
        E 12 90 3e 00
        E 93 90 26 2d
        E 120 90 26 00
        E 127 90 3f 2d
        E 120 90 3f 00
        E 362 90 24 5d
        E 10 90 3f 37
        E 110 90 24 00
        E 10 90 3f 00
        E 120 90 26 12
        E 120 90 26 00
        E 101 90 24 76
        E 20 90 3e 49
        E 100 90 24 00
        E 20 90 3e 00
        E 359 90 3e 2a
        E 121 90 3e 00
        E 123 90 3f 22
        E 120 90 3f 00
        E 116 90 3e 56
        E 120 90 3e 00
        E 350 90 26 7c
        E 8 90 3e 74
        E 112 90 26 00
        E 8 90 3e 00
        E 355 90 26 40
        E 15 90 19 49
        E 105 90 26 00
        E 15 90 19 00
        E 827 b0 7b 00
        CCINTERP 32
        CHASE_CC_TAKEOFFS 1
        GUID {B0E45400-B4DF-4198-AB32-B66C174737D8}
        IGNTEMPO 0 120 4 4
        SRCCOLOR 1
        VELLANE -1 100 0
        CFGEDITVIEW -115.2 0.435092 62 12 0 -1 0 0 0 0.5
        KEYSNAP 0
        TRACKSEL 0
        EVTFILTER 0 -1 -1 -1 -1 0 0 0 0 -1 -1 -1 -1 0 -1 0 -1 -1
        CFGEDIT 1 1 0 1 0 16 1 1 1 1 1 0.125 90 53 1854 760 0 0 0 0 0 0 0 1 0 0.5 0 0 1 64
      >
    >
    <ITEM
      POSITION 104
      SNAPOFFS 0
      LENGTH 2
      LOOP 1
      ALLTAKES 0
      FADEIN 1 0 0 1 0 0
      FADEOUT 1 0 0 1 0 0
      MUTE 0 0
      COLOR 28019170 R
      SEL 0
      IGUID {CFC8F7D3-D8AC-4B1F-8220-BE33DEB5A2A5}
      IID 2
      NAME "Variation 03 - Variation_03.mid"
      VOLPAN 1 0 1 -1
      SOFFS 0 0
      PLAYRATE 1 1 0 -1 0 0.0025
      CHANMODE 0
      GUID {7F30F65A-6521-411C-93A3-560DE3522F6E}
      <SOURCE MIDI
        HASDATA 1 960 QN
        CCINTERP 32
        POOLEDEVTS {2B9D6999-02ED-44EF-95C3-BC776F164E4A}
        <X 0 0 0 0 3 "Variation 03"
          /wNWYXJpYXRpb24gMDM=
        >
        E 0 90 3b 60
        E 0 90 39 60
        E 0 90 35 60
        E 0 90 34 60
        E 0 90 24 60
        E 120 80 3b 00
        E 0 80 39 00
        E 0 80 35 00
        E 0 80 34 00
        E 0 80 24 00
        E 360 90 3b 60
        E 0 90 39 60
        E 0 90 34 60
        E 0 90 24 60
        E 120 80 3b 00
        E 0 80 39 00
        E 0 80 34 00
        E 0 80 24 00
        E 360 90 3e 60
        E 120 80 3e 00
        E 840 90 3e 60
        E 120 80 3e 00
        E 840 90 3e 60
        E 120 80 3e 00
        E 4688 90 3e 2f
        E 120 90 3e 00
        E 339 90 24 5d
        E 19 90 3e 23
        E 102 90 24 00
        E 19 90 3e 00
        E 99 90 26 0d
        E 121 90 26 00
        E 6 90 26 12
        E 120 90 26 00
        E 1 90 24 6b
        E 24 90 3e 51
        E 97 90 24 00
        E 23 90 3e 00
        E 347 90 3e 1f
        E 120 90 3e 00
        E 120 90 26 16
        E 121 90 26 00
        E 122 90 3e 45
        E 121 90 3e 00
        E 356 90 26 78
        E 14 90 3e 76
        E 106 90 26 00
        E 14 90 3e 00
        E 97 90 26 38
        E 120 90 26 00
        E 140 90 3e 24
        E 120 90 3e 00
        E 357 90 3e 2a
        E 2 90 24 49
        E 118 90 3e 00
        E 3 90 24 00
        E 344 90 24 73
        E 18 90 3f 54
        E 102 90 24 00
        E 18 90 3f 00
        E 356 90 3e 20
        E 120 90 3e 00
        E 118 90 3e 13
        E 119 90 3e 00
        E 116 90 3f 59
        E 120 90 3f 00
        E 344 90 26 79
        E 11 90 3e 72
        E 109 90 26 00
        E 11 90 3e 00
        E 356 90 3f 2d
        E 120 90 3f 00
        E 341 90 24 5a
        E 14 90 3f 3b
        E 106 90 24 00
        E 14 90 3f 00
        E 361 90 24 74
        E 14 90 3f 4f
        E 106 90 24 00
        E 14 90 3f 00
        E 355 90 3e 2b
        E 120 90 3e 00
        E 124 90 26 18
        E 120 90 26 00
        E 114 90 3f 46
        E 119 90 3f 00
        E 361 90 26 79
        E 9 90 3f 74
        E 111 90 26 00
        E 9 90 3f 00
        E 358 90 3f 27
        E 120 90 3f 00
        E 353 90 26 30
        E 3 90 1a 76
        E 117 90 26 00
        E 3 90 1a 00
        E 356 90 24 74
        E 14 90 3f 3a
        E 106 90 24 00
        E 14 90 3f 00
        E 354 90 3e 2a
        E 120 90 3e 00
        E 124 90 3e 1c
        E 120 90 3e 00
        E 107 90 3f 40
        E 120 90 3f 00
        E 135 90 26 07
        E 120 90 26 00
        E 107 90 26 77
        E 12 90 3e 78
        E 108 90 26 00
        E 12 90 3e 00
        E 93 90 26 2d
        E 120 90 26 00
        E 127 90 3f 2d
        E 120 90 3f 00
        E 362 90 24 5d
        E 10 90 3f 37
        E 110 90 24 00
        E 10 90 3f 00
        E 120 90 26 12
        E 120 90 26 00
        E 101 90 24 76
        E 20 90 3e 49
        E 100 90 24 00
        E 20 90 3e 00
        E 359 90 3e 2a
        E 121 90 3e 00
        E 123 90 3f 22
        E 120 90 3f 00
        E 116 90 3e 56
        E 120 90 3e 00
        E 350 90 26 7c
        E 8 90 3e 74
        E 112 90 26 00
        E 8 90 3e 00
        E 355 90 26 40
        E 15 90 19 49
        E 105 90 26 00
        E 15 90 19 00
        E 827 b0 7b 00
        CCINTERP 32
        CHASE_CC_TAKEOFFS 1
        GUID {B0E45400-B4DF-4198-AB32-B66C174737D8}
        IGNTEMPO 0 120 4 4
        SRCCOLOR 1
        VELLANE -1 100 0
        CFGEDITVIEW -191869.64898 0.168557 62 12 0 -1 0 0 0 0.5
        KEYSNAP 0
        TRACKSEL 0
        EVTFILTER 0 -1 -1 -1 -1 0 0 0 0 -1 -1 -1 -1 0 -1 0 -1 -1
        CFGEDIT 1 1 0 1 0 16 1 1 1 1 1 0.125 90 53 1854 760 0 0 0 0 0 0 0 1 0 0.5 0 0 1 64
      >
    >
    <ITEM
      POSITION 106
      SNAPOFFS 0
      LENGTH 2
      LOOP 1
      ALLTAKES 0
      FADEIN 1 0 0 1 0 0
      FADEOUT 1 0 0 1 0 0
      MUTE 0 0
      COLOR 28019170 R
      SEL 0
      IGUID {C4EE8630-DFA8-4560-8613-D679FB2E0FBB}
      IID 2
      NAME "Variation 03 - Variation_03.mid"
      VOLPAN 1 0 1 -1
      SOFFS 0 0
      PLAYRATE 1 1 0 -1 0 0.0025
      CHANMODE 0
      GUID {2AA864F1-E9EF-46A3-8E30-25F27E7FE6B8}
      <SOURCE MIDI
        HASDATA 1 960 QN
        CCINTERP 32
        POOLEDEVTS {613FFD02-0312-4007-ABF4-EC065329FBC5}
        <X 0 0 0 0 3 "Variation 03"
          /wNWYXJpYXRpb24gMDM=
        >
        E 0 90 3b 60
        E 0 90 39 60
        E 0 90 35 60
        E 0 90 34 60
        E 0 90 24 60
        E 120 80 3b 00
        E 0 80 39 00
        E 0 80 35 00
        E 0 80 34 00
        E 0 80 24 00
        E 840 90 2b 60
        e 0 90 28 7e
        E 120 80 2b 00
        e 0 80 28 00
        E 360 90 3b 60
        E 0 90 39 60
        E 0 90 34 60
        E 0 90 24 60
        E 120 80 3b 00
        E 0 80 39 00
        E 0 80 34 00
        E 0 80 24 00
        E 360 90 3e 60
        E 120 80 3e 00
        E 840 90 3e 60
        E 120 80 3e 00
        E 4688 90 3e 2f
        E 120 90 3e 00
        E 339 90 24 5d
        E 19 90 3e 23
        E 102 90 24 00
        E 19 90 3e 00
        E 99 90 26 0d
        E 121 90 26 00
        E 6 90 26 12
        E 120 90 26 00
        E 1 90 24 6b
        E 24 90 3e 51
        E 97 90 24 00
        E 23 90 3e 00
        E 347 90 3e 1f
        E 120 90 3e 00
        E 120 90 26 16
        E 121 90 26 00
        E 122 90 3e 45
        E 121 90 3e 00
        E 356 90 26 78
        E 14 90 3e 76
        E 106 90 26 00
        E 14 90 3e 00
        E 97 90 26 38
        E 120 90 26 00
        E 140 90 3e 24
        E 120 90 3e 00
        E 357 90 3e 2a
        E 2 90 24 49
        E 118 90 3e 00
        E 3 90 24 00
        E 344 90 24 73
        E 18 90 3f 54
        E 102 90 24 00
        E 18 90 3f 00
        E 356 90 3e 20
        E 120 90 3e 00
        E 118 90 3e 13
        E 119 90 3e 00
        E 116 90 3f 59
        E 120 90 3f 00
        E 344 90 26 79
        E 11 90 3e 72
        E 109 90 26 00
        E 11 90 3e 00
        E 356 90 3f 2d
        E 120 90 3f 00
        E 341 90 24 5a
        E 14 90 3f 3b
        E 106 90 24 00
        E 14 90 3f 00
        E 361 90 24 74
        E 14 90 3f 4f
        E 106 90 24 00
        E 14 90 3f 00
        E 355 90 3e 2b
        E 120 90 3e 00
        E 124 90 26 18
        E 120 90 26 00
        E 114 90 3f 46
        E 119 90 3f 00
        E 361 90 26 79
        E 9 90 3f 74
        E 111 90 26 00
        E 9 90 3f 00
        E 358 90 3f 27
        E 120 90 3f 00
        E 353 90 26 30
        E 3 90 1a 76
        E 117 90 26 00
        E 3 90 1a 00
        E 356 90 24 74
        E 14 90 3f 3a
        E 106 90 24 00
        E 14 90 3f 00
        E 354 90 3e 2a
        E 120 90 3e 00
        E 124 90 3e 1c
        E 120 90 3e 00
        E 107 90 3f 40
        E 120 90 3f 00
        E 135 90 26 07
        E 120 90 26 00
        E 107 90 26 77
        E 12 90 3e 78
        E 108 90 26 00
        E 12 90 3e 00
        E 93 90 26 2d
        E 120 90 26 00
        E 127 90 3f 2d
        E 120 90 3f 00
        E 362 90 24 5d
        E 10 90 3f 37
        E 110 90 24 00
        E 10 90 3f 00
        E 120 90 26 12
        E 120 90 26 00
        E 101 90 24 76
        E 20 90 3e 49
        E 100 90 24 00
        E 20 90 3e 00
        E 359 90 3e 2a
        E 121 90 3e 00
        E 123 90 3f 22
        E 120 90 3f 00
        E 116 90 3e 56
        E 120 90 3e 00
        E 350 90 26 7c
        E 8 90 3e 74
        E 112 90 26 00
        E 8 90 3e 00
        E 355 90 26 40
        E 15 90 19 49
        E 105 90 26 00
        E 15 90 19 00
        E 827 b0 7b 00
        CCINTERP 32
        CHASE_CC_TAKEOFFS 1
        GUID {B0E45400-B4DF-4198-AB32-B66C174737D8}
        IGNTEMPO 0 120 4 4
        SRCCOLOR 1
        VELLANE -1 100 0
        CFGEDITVIEW -119.989116 0.435092 62 12 0 -1 0 0 0 0.5
        KEYSNAP 0
        TRACKSEL 0
        EVTFILTER 0 -1 -1 -1 -1 0 0 0 0 -1 -1 -1 -1 0 -1 0 -1 -1
        CFGEDIT 1 1 0 1 0 16 1 1 1 1 1 0.125 90 53 1854 760 0 0 0 0 0 0 0 1 0 0.5 0 0 1 64
      >
    >
    <ITEM
      POSITION 108
      SNAPOFFS 0
      LENGTH 2
      LOOP 1
      ALLTAKES 0
      FADEIN 1 0 0 1 0 0
      FADEOUT 1 0 0 1 0 0
      MUTE 0 0
      COLOR 28019170 R
      SEL 0
      IGUID {C83B67F4-B2AC-4461-8A4E-EBB26FC48850}
      IID 2
      NAME "Variation 03 - Variation_03.mid"
      VOLPAN 1 0 1 -1
      SOFFS 0 0
      PLAYRATE 1 1 0 -1 0 0.0025
      CHANMODE 0
      GUID {2078D690-6F2B-4F00-9495-9BDA7D40ED79}
      <SOURCE MIDI
        HASDATA 1 960 QN
        CCINTERP 32
        POOLEDEVTS {9E3EE0EB-89F6-4488-B0E5-5DBBB953ED1E}
        <X 0 0 0 0 3 "Variation 03"
          /wNWYXJpYXRpb24gMDM=
        >
        E 0 90 3b 60
        E 0 90 39 60
        E 0 90 35 60
        E 0 90 34 60
        E 0 90 24 60
        E 120 80 3b 00
        E 0 80 39 00
        E 0 80 35 00
        E 0 80 34 00
        E 0 80 24 00
        E 360 90 3b 60
        E 0 90 39 60
        E 0 90 34 60
        E 0 90 24 60
        E 120 80 3b 00
        E 0 80 39 00
        E 0 80 34 00
        E 0 80 24 00
        E 360 90 3e 60
        E 120 80 3e 00
        E 840 90 3e 60
        E 120 80 3e 00
        E 840 90 3e 60
        E 120 80 3e 00
        E 4688 90 3e 2f
        E 120 90 3e 00
        E 339 90 24 5d
        E 19 90 3e 23
        E 102 90 24 00
        E 19 90 3e 00
        E 99 90 26 0d
        E 121 90 26 00
        E 6 90 26 12
        E 120 90 26 00
        E 1 90 24 6b
        E 24 90 3e 51
        E 97 90 24 00
        E 23 90 3e 00
        E 347 90 3e 1f
        E 120 90 3e 00
        E 120 90 26 16
        E 121 90 26 00
        E 122 90 3e 45
        E 121 90 3e 00
        E 356 90 26 78
        E 14 90 3e 76
        E 106 90 26 00
        E 14 90 3e 00
        E 97 90 26 38
        E 120 90 26 00
        E 140 90 3e 24
        E 120 90 3e 00
        E 357 90 3e 2a
        E 2 90 24 49
        E 118 90 3e 00
        E 3 90 24 00
        E 344 90 24 73
        E 18 90 3f 54
        E 102 90 24 00
        E 18 90 3f 00
        E 356 90 3e 20
        E 120 90 3e 00
        E 118 90 3e 13
        E 119 90 3e 00
        E 116 90 3f 59
        E 120 90 3f 00
        E 344 90 26 79
        E 11 90 3e 72
        E 109 90 26 00
        E 11 90 3e 00
        E 356 90 3f 2d
        E 120 90 3f 00
        E 341 90 24 5a
        E 14 90 3f 3b
        E 106 90 24 00
        E 14 90 3f 00
        E 361 90 24 74
        E 14 90 3f 4f
        E 106 90 24 00
        E 14 90 3f 00
        E 355 90 3e 2b
        E 120 90 3e 00
        E 124 90 26 18
        E 120 90 26 00
        E 114 90 3f 46
        E 119 90 3f 00
        E 361 90 26 79
        E 9 90 3f 74
        E 111 90 26 00
        E 9 90 3f 00
        E 358 90 3f 27
        E 120 90 3f 00
        E 353 90 26 30
        E 3 90 1a 76
        E 117 90 26 00
        E 3 90 1a 00
        E 356 90 24 74
        E 14 90 3f 3a
        E 106 90 24 00
        E 14 90 3f 00
        E 354 90 3e 2a
        E 120 90 3e 00
        E 124 90 3e 1c
        E 120 90 3e 00
        E 107 90 3f 40
        E 120 90 3f 00
        E 135 90 26 07
        E 120 90 26 00
        E 107 90 26 77
        E 12 90 3e 78
        E 108 90 26 00
        E 12 90 3e 00
        E 93 90 26 2d
        E 120 90 26 00
        E 127 90 3f 2d
        E 120 90 3f 00
        E 362 90 24 5d
        E 10 90 3f 37
        E 110 90 24 00
        E 10 90 3f 00
        E 120 90 26 12
        E 120 90 26 00
        E 101 90 24 76
        E 20 90 3e 49
        E 100 90 24 00
        E 20 90 3e 00
        E 359 90 3e 2a
        E 121 90 3e 00
        E 123 90 3f 22
        E 120 90 3f 00
        E 116 90 3e 56
        E 120 90 3e 00
        E 350 90 26 7c
        E 8 90 3e 74
        E 112 90 26 00
        E 8 90 3e 00
        E 355 90 26 40
        E 15 90 19 49
        E 105 90 26 00
        E 15 90 19 00
        E 827 b0 7b 00
        CCINTERP 32
        CHASE_CC_TAKEOFFS 1
        GUID {B0E45400-B4DF-4198-AB32-B66C174737D8}
        IGNTEMPO 0 120 4 4
        SRCCOLOR 1
        VELLANE -1 100 0
        CFGEDITVIEW -191869.64898 0.168557 62 12 0 -1 0 0 0 0.5
        KEYSNAP 0
        TRACKSEL 0
        EVTFILTER 0 -1 -1 -1 -1 0 0 0 0 -1 -1 -1 -1 0 -1 0 -1 -1
        CFGEDIT 1 1 0 1 0 16 1 1 1 1 1 0.125 90 53 1854 760 0 0 0 0 0 0 0 1 0 0.5 0 0 1 64
      >
    >
    <ITEM
      POSITION 110
      SNAPOFFS 0
      LENGTH 2
      LOOP 1
      ALLTAKES 0
      FADEIN 1 0 0 1 0 0
      FADEOUT 1 0 0 1 0 0
      MUTE 0 0
      COLOR 28019170 R
      SEL 0
      IGUID {78836A49-29D9-4FEB-82FB-966641C6ACBC}
      IID 2
      NAME "Variation 03 - Variation_03.mid"
      VOLPAN 1 0 1 -1
      SOFFS 0 0
      PLAYRATE 1 1 0 -1 0 0.0025
      CHANMODE 0
      GUID {3EC84234-6179-4E12-A183-29CAA99562A4}
      <SOURCE MIDI
        HASDATA 1 960 QN
        CCINTERP 32
        POOLEDEVTS {F9A6F2E4-B3A6-40E2-B824-5F4E19F7DBC5}
        <X 0 0 0 0 3 "Variation 03"
          /wNWYXJpYXRpb24gMDM=
        >
        E 0 90 3b 60
        E 0 90 39 60
        E 0 90 35 60
        E 0 90 34 60
        E 0 90 24 60
        E 120 80 3b 00
        E 0 80 39 00
        E 0 80 35 00
        E 0 80 34 00
        E 0 80 24 00
        e 1320 90 3b 60
        e 0 90 39 60
        e 0 90 34 60
        e 0 90 24 60
        e 120 80 3b 00
        e 0 80 39 00
        e 0 80 34 00
        e 0 80 24 00
        E 360 90 3e 60
        E 120 80 3e 00
        E 840 90 3e 60
        E 120 80 3e 00
        E 4688 90 3e 2f
        E 120 90 3e 00
        E 339 90 24 5d
        E 19 90 3e 23
        E 102 90 24 00
        E 19 90 3e 00
        E 99 90 26 0d
        E 121 90 26 00
        E 6 90 26 12
        E 120 90 26 00
        E 1 90 24 6b
        E 24 90 3e 51
        E 97 90 24 00
        E 23 90 3e 00
        E 347 90 3e 1f
        E 120 90 3e 00
        E 120 90 26 16
        E 121 90 26 00
        E 122 90 3e 45
        E 121 90 3e 00
        E 356 90 26 78
        E 14 90 3e 76
        E 106 90 26 00
        E 14 90 3e 00
        E 97 90 26 38
        E 120 90 26 00
        E 140 90 3e 24
        E 120 90 3e 00
        E 357 90 3e 2a
        E 2 90 24 49
        E 118 90 3e 00
        E 3 90 24 00
        E 344 90 24 73
        E 18 90 3f 54
        E 102 90 24 00
        E 18 90 3f 00
        E 356 90 3e 20
        E 120 90 3e 00
        E 118 90 3e 13
        E 119 90 3e 00
        E 116 90 3f 59
        E 120 90 3f 00
        E 344 90 26 79
        E 11 90 3e 72
        E 109 90 26 00
        E 11 90 3e 00
        E 356 90 3f 2d
        E 120 90 3f 00
        E 341 90 24 5a
        E 14 90 3f 3b
        E 106 90 24 00
        E 14 90 3f 00
        E 361 90 24 74
        E 14 90 3f 4f
        E 106 90 24 00
        E 14 90 3f 00
        E 355 90 3e 2b
        E 120 90 3e 00
        E 124 90 26 18
        E 120 90 26 00
        E 114 90 3f 46
        E 119 90 3f 00
        E 361 90 26 79
        E 9 90 3f 74
        E 111 90 26 00
        E 9 90 3f 00
        E 358 90 3f 27
        E 120 90 3f 00
        E 353 90 26 30
        E 3 90 1a 76
        E 117 90 26 00
        E 3 90 1a 00
        E 356 90 24 74
        E 14 90 3f 3a
        E 106 90 24 00
        E 14 90 3f 00
        E 354 90 3e 2a
        E 120 90 3e 00
        E 124 90 3e 1c
        E 120 90 3e 00
        E 107 90 3f 40
        E 120 90 3f 00
        E 135 90 26 07
        E 120 90 26 00
        E 107 90 26 77
        E 12 90 3e 78
        E 108 90 26 00
        E 12 90 3e 00
        E 93 90 26 2d
        E 120 90 26 00
        E 127 90 3f 2d
        E 120 90 3f 00
        E 362 90 24 5d
        E 10 90 3f 37
        E 110 90 24 00
        E 10 90 3f 00
        E 120 90 26 12
        E 120 90 26 00
        E 101 90 24 76
        E 20 90 3e 49
        E 100 90 24 00
        E 20 90 3e 00
        E 359 90 3e 2a
        E 121 90 3e 00
        E 123 90 3f 22
        E 120 90 3f 00
        E 116 90 3e 56
        E 120 90 3e 00
        E 350 90 26 7c
        E 8 90 3e 74
        E 112 90 26 00
        E 8 90 3e 00
        E 355 90 26 40
        E 15 90 19 49
        E 105 90 26 00
        E 15 90 19 00
        E 827 b0 7b 00
        CCINTERP 32
        CHASE_CC_TAKEOFFS 1
        GUID {B0E45400-B4DF-4198-AB32-B66C174737D8}
        IGNTEMPO 0 120 4 4
        SRCCOLOR 1
        VELLANE -1 100 0
        CFGEDITVIEW -115.2 0.435092 62 12 0 -1 0 0 0 0.5
        KEYSNAP 0
        TRACKSEL 0
        EVTFILTER 0 -1 -1 -1 -1 0 0 0 0 -1 -1 -1 -1 0 -1 0 -1 -1
        CFGEDIT 1 1 0 1 0 16 1 1 1 1 1 0.125 90 53 1854 760 0 0 0 0 0 0 0 1 0 0.5 0 0 1 64
      >
    >
    <ITEM
      POSITION 112
      SNAPOFFS 0
      LENGTH 2
      LOOP 1
      ALLTAKES 0
      FADEIN 1 0 0 1 0 0
      FADEOUT 1 0 0 1 0 0
      MUTE 0 0
      COLOR 28019170 R
      SEL 0
      IGUID {63984292-6671-4D7B-B5A5-80EEDF18BFC7}
      IID 2
      NAME "Variation 03 - Variation_03.mid"
      VOLPAN 1 0 1 -1
      SOFFS 0 0
      PLAYRATE 1 1 0 -1 0 0.0025
      CHANMODE 0
      GUID {2692E39B-4888-488E-AFEA-ED46D203B4F7}
      <SOURCE MIDI
        HASDATA 1 960 QN
        CCINTERP 32
        POOLEDEVTS {8D5F4A85-DCBA-4ADD-A4EB-F7C093402B69}
        <X 0 0 0 0 3 "Variation 03"
          /wNWYXJpYXRpb24gMDM=
        >
        E 0 90 3b 60
        E 0 90 39 60
        E 0 90 35 60
        E 0 90 34 60
        E 0 90 24 60
        E 120 80 3b 00
        E 0 80 39 00
        E 0 80 35 00
        E 0 80 34 00
        E 0 80 24 00
        E 360 90 3b 60
        E 0 90 39 60
        E 0 90 34 60
        E 0 90 24 60
        E 120 80 3b 00
        E 0 80 39 00
        E 0 80 34 00
        E 0 80 24 00
        E 360 90 3e 60
        E 120 80 3e 00
        E 840 90 3e 60
        E 120 80 3e 00
        E 840 90 3e 60
        E 120 80 3e 00
        E 4688 90 3e 2f
        E 120 90 3e 00
        E 339 90 24 5d
        E 19 90 3e 23
        E 102 90 24 00
        E 19 90 3e 00
        E 99 90 26 0d
        E 121 90 26 00
        E 6 90 26 12
        E 120 90 26 00
        E 1 90 24 6b
        E 24 90 3e 51
        E 97 90 24 00
        E 23 90 3e 00
        E 347 90 3e 1f
        E 120 90 3e 00
        E 120 90 26 16
        E 121 90 26 00
        E 122 90 3e 45
        E 121 90 3e 00
        E 356 90 26 78
        E 14 90 3e 76
        E 106 90 26 00
        E 14 90 3e 00
        E 97 90 26 38
        E 120 90 26 00
        E 140 90 3e 24
        E 120 90 3e 00
        E 357 90 3e 2a
        E 2 90 24 49
        E 118 90 3e 00
        E 3 90 24 00
        E 344 90 24 73
        E 18 90 3f 54
        E 102 90 24 00
        E 18 90 3f 00
        E 356 90 3e 20
        E 120 90 3e 00
        E 118 90 3e 13
        E 119 90 3e 00
        E 116 90 3f 59
        E 120 90 3f 00
        E 344 90 26 79
        E 11 90 3e 72
        E 109 90 26 00
        E 11 90 3e 00
        E 356 90 3f 2d
        E 120 90 3f 00
        E 341 90 24 5a
        E 14 90 3f 3b
        E 106 90 24 00
        E 14 90 3f 00
        E 361 90 24 74
        E 14 90 3f 4f
        E 106 90 24 00
        E 14 90 3f 00
        E 355 90 3e 2b
        E 120 90 3e 00
        E 124 90 26 18
        E 120 90 26 00
        E 114 90 3f 46
        E 119 90 3f 00
        E 361 90 26 79
        E 9 90 3f 74
        E 111 90 26 00
        E 9 90 3f 00
        E 358 90 3f 27
        E 120 90 3f 00
        E 353 90 26 30
        E 3 90 1a 76
        E 117 90 26 00
        E 3 90 1a 00
        E 356 90 24 74
        E 14 90 3f 3a
        E 106 90 24 00
        E 14 90 3f 00
        E 354 90 3e 2a
        E 120 90 3e 00
        E 124 90 3e 1c
        E 120 90 3e 00
        E 107 90 3f 40
        E 120 90 3f 00
        E 135 90 26 07
        E 120 90 26 00
        E 107 90 26 77
        E 12 90 3e 78
        E 108 90 26 00
        E 12 90 3e 00
        E 93 90 26 2d
        E 120 90 26 00
        E 127 90 3f 2d
        E 120 90 3f 00
        E 362 90 24 5d
        E 10 90 3f 37
        E 110 90 24 00
        E 10 90 3f 00
        E 120 90 26 12
        E 120 90 26 00
        E 101 90 24 76
        E 20 90 3e 49
        E 100 90 24 00
        E 20 90 3e 00
        E 359 90 3e 2a
        E 121 90 3e 00
        E 123 90 3f 22
        E 120 90 3f 00
        E 116 90 3e 56
        E 120 90 3e 00
        E 350 90 26 7c
        E 8 90 3e 74
        E 112 90 26 00
        E 8 90 3e 00
        E 355 90 26 40
        E 15 90 19 49
        E 105 90 26 00
        E 15 90 19 00
        E 827 b0 7b 00
        CCINTERP 32
        CHASE_CC_TAKEOFFS 1
        GUID {B0E45400-B4DF-4198-AB32-B66C174737D8}
        IGNTEMPO 0 120 4 4
        SRCCOLOR 1
        VELLANE -1 100 0
        CFGEDITVIEW -191869.64898 0.168557 62 12 0 -1 0 0 0 0.5
        KEYSNAP 0
        TRACKSEL 0
        EVTFILTER 0 -1 -1 -1 -1 0 0 0 0 -1 -1 -1 -1 0 -1 0 -1 -1
        CFGEDIT 1 1 0 1 0 16 1 1 1 1 1 0.125 90 53 1854 760 0 0 0 0 0 0 0 1 0 0.5 0 0 1 64
      >
    >
    <ITEM
      POSITION 114
      SNAPOFFS 0
      LENGTH 2
      LOOP 1
      ALLTAKES 0
      FADEIN 1 0 0 1 0 0
      FADEOUT 1 0 0 1 0 0
      MUTE 0 0
      COLOR 28019170 R
      SEL 0
      IGUID {3700C251-BE65-4F5E-AFFB-ABC655D23239}
      IID 2
      NAME "Variation 03 - Variation_03.mid"
      VOLPAN 1 0 1 -1
      SOFFS 0 0
      PLAYRATE 1 1 0 -1 0 0.0025
      CHANMODE 0
      GUID {00021F1F-D9FF-4CD9-8644-AC90E3C6EA9D}
      <SOURCE MIDI
        HASDATA 1 960 QN
        CCINTERP 32
        POOLEDEVTS {E7FABB45-EEE2-4248-AD5A-80C6709F9BF0}
        <X 0 0 0 0 3 "Variation 03"
          /wNWYXJpYXRpb24gMDM=
        >
        E 0 90 3e 60
        E 0 90 27 7f
        E 0 90 3b 7a
        E 120 80 3e 00
        E 0 80 27 00
        E 0 80 3b 00
        e 360 90 3c 4c
        e 120 80 3c 00
        E 0 90 24 7a
        E 120 80 24 00
        E 240 90 27 7f
        E 0 90 3e 60
        E 0 90 3a 7a
        E 120 80 27 00
        E 0 80 3e 00
        E 0 80 3a 00
        E 360 90 3c 4b
        E 120 80 3c 00
        E 0 90 24 7a
        E 120 80 24 00
        E 240 90 27 7f
        E 0 90 3e 60
        E 0 90 39 7a
        E 120 80 27 00
        E 0 80 3e 00
        E 0 80 39 00
        E 360 90 3c 3e
        E 120 80 3c 00
        E 360 90 3e 60
        E 0 90 27 7a
        E 0 90 38 7a
        E 120 80 3e 00
        E 0 80 27 00
        E 0 80 38 00
        E 240 90 29 7f
        E 120 80 29 00
        E 240 90 29 7f
        E 0 90 2b 7f
        E 120 80 29 00
        E 0 80 2b 00
        E 3968 90 3e 2f
        E 120 90 3e 00
        E 339 90 24 5d
        E 19 90 3e 23
        E 102 90 24 00
        E 19 90 3e 00
        E 99 90 26 0d
        E 121 90 26 00
        E 6 90 26 12
        E 120 90 26 00
        E 1 90 24 6b
        E 24 90 3e 51
        E 97 90 24 00
        E 23 90 3e 00
        E 347 90 3e 1f
        E 120 90 3e 00
        E 120 90 26 16
        E 121 90 26 00
        E 122 90 3e 45
        E 121 90 3e 00
        E 356 90 26 78
        E 14 90 3e 76
        E 106 90 26 00
        E 14 90 3e 00
        E 97 90 26 38
        E 120 90 26 00
        E 140 90 3e 24
        E 120 90 3e 00
        E 357 90 3e 2a
        E 2 90 24 49
        E 118 90 3e 00
        E 3 90 24 00
        E 344 90 24 73
        E 18 90 3f 54
        E 102 90 24 00
        E 18 90 3f 00
        E 356 90 3e 20
        E 120 90 3e 00
        E 118 90 3e 13
        E 119 90 3e 00
        E 116 90 3f 59
        E 120 90 3f 00
        E 344 90 26 79
        E 11 90 3e 72
        E 109 90 26 00
        E 11 90 3e 00
        E 356 90 3f 2d
        E 120 90 3f 00
        E 341 90 24 5a
        E 14 90 3f 3b
        E 106 90 24 00
        E 14 90 3f 00
        E 361 90 24 74
        E 14 90 3f 4f
        E 106 90 24 00
        E 14 90 3f 00
        E 355 90 3e 2b
        E 120 90 3e 00
        E 124 90 26 18
        E 120 90 26 00
        E 114 90 3f 46
        E 119 90 3f 00
        E 361 90 26 79
        E 9 90 3f 74
        E 111 90 26 00
        E 9 90 3f 00
        E 358 90 3f 27
        E 120 90 3f 00
        E 353 90 26 30
        E 3 90 1a 76
        E 117 90 26 00
        E 3 90 1a 00
        E 356 90 24 74
        E 14 90 3f 3a
        E 106 90 24 00
        E 14 90 3f 00
        E 354 90 3e 2a
        E 120 90 3e 00
        E 124 90 3e 1c
        E 120 90 3e 00
        E 107 90 3f 40
        E 120 90 3f 00
        E 135 90 26 07
        E 120 90 26 00
        E 107 90 26 77
        E 12 90 3e 78
        E 108 90 26 00
        E 12 90 3e 00
        E 93 90 26 2d
        E 120 90 26 00
        E 127 90 3f 2d
        E 120 90 3f 00
        E 362 90 24 5d
        E 10 90 3f 37
        E 110 90 24 00
        E 10 90 3f 00
        E 120 90 26 12
        E 120 90 26 00
        E 101 90 24 76
        E 20 90 3e 49
        E 100 90 24 00
        E 20 90 3e 00
        E 359 90 3e 2a
        E 121 90 3e 00
        E 123 90 3f 22
        E 120 90 3f 00
        E 116 90 3e 56
        E 120 90 3e 00
        E 350 90 26 7c
        E 8 90 3e 74
        E 112 90 26 00
        E 8 90 3e 00
        E 355 90 26 40
        E 15 90 19 49
        E 105 90 26 00
        E 15 90 19 00
        E 827 b0 7b 00
        CCINTERP 32
        CHASE_CC_TAKEOFFS 1
        GUID {B0E45400-B4DF-4198-AB32-B66C174737D8}
        IGNTEMPO 0 120 4 4
        SRCCOLOR 1
        VELLANE -1 100 0
        CFGEDITVIEW -214954.231293 0.184204 62 12 0 -1 0 0 0 0.5
        KEYSNAP 0
        TRACKSEL 0
        EVTFILTER 0 -1 -1 -1 -1 0 0 0 0 -1 -1 -1 -1 0 -1 0 -1 -1
        CFGEDIT 1 1 0 1 0 16 1 1 1 1 1 0.125 90 53 1854 760 0 0 0 0 0 0 0 1 0 0.5 0 0 1 64
      >
    >
    <ITEM
      POSITION 116
      SNAPOFFS 0
      LENGTH 2
      LOOP 1
      ALLTAKES 0
      FADEIN 1 0 0 1 0 0
      FADEOUT 1 0 0 1 0 0
      MUTE 0 0
      COLOR 27085204 R
      SEL 0
      IGUID {0B6424A0-CD3D-48CC-9FF6-BADBC5B8038D}
      IID 2
      NAME "Variation 03 - Variation_03.mid"
      VOLPAN 1 0 1 -1
      SOFFS 0 0
      PLAYRATE 1 1 0 -1 0 0.0025
      CHANMODE 0
      GUID {787BC319-B2E8-4E72-A7EF-09F7A57688C0}
      <SOURCE MIDI
        HASDATA 1 960 QN
        CCINTERP 32
        POOLEDEVTS {90C198C0-C165-4A3D-9EBA-3A4B72C4B277}
        <X 0 0 0 0 3 "Variation 03"
          /wNWYXJpYXRpb24gMDM=
        >
        E 0 90 3a 60
        E 0 90 24 60
        E 120 80 3a 00
        E 0 80 24 00
        E 840 90 3e 60
        E 0 90 26 60
        E 120 80 3e 00
        E 0 80 26 00
        E 840 90 3e 60
        E 0 90 24 60
        E 120 80 3e 00
        E 0 80 24 00
        E 360 90 24 60
        E 120 80 24 00
        E 360 90 3e 60
        E 0 90 26 60
        E 120 80 3e 00
        E 0 80 26 00
        E 840 90 26 60
        E 120 80 26 00
        E 3728 90 3e 2f
        E 120 90 3e 00
        E 339 90 24 5d
        E 19 90 3e 23
        E 102 90 24 00
        E 19 90 3e 00
        E 99 90 26 0d
        E 121 90 26 00
        E 6 90 26 12
        E 120 90 26 00
        E 1 90 24 6b
        E 24 90 3e 51
        E 97 90 24 00
        E 23 90 3e 00
        E 347 90 3e 1f
        E 120 90 3e 00
        E 120 90 26 16
        E 121 90 26 00
        E 122 90 3e 45
        E 121 90 3e 00
        E 356 90 26 78
        E 14 90 3e 76
        E 106 90 26 00
        E 14 90 3e 00
        E 97 90 26 38
        E 120 90 26 00
        E 140 90 3e 24
        E 120 90 3e 00
        E 357 90 3e 2a
        E 2 90 24 49
        E 118 90 3e 00
        E 3 90 24 00
        E 344 90 24 73
        E 18 90 3f 54
        E 102 90 24 00
        E 18 90 3f 00
        E 356 90 3e 20
        E 120 90 3e 00
        E 118 90 3e 13
        E 119 90 3e 00
        E 116 90 3f 59
        E 120 90 3f 00
        E 344 90 26 79
        E 11 90 3e 72
        E 109 90 26 00
        E 11 90 3e 00
        E 356 90 3f 2d
        E 120 90 3f 00
        E 341 90 24 5a
        E 14 90 3f 3b
        E 106 90 24 00
        E 14 90 3f 00
        E 361 90 24 74
        E 14 90 3f 4f
        E 106 90 24 00
        E 14 90 3f 00
        E 355 90 3e 2b
        E 120 90 3e 00
        E 124 90 26 18
        E 120 90 26 00
        E 114 90 3f 46
        E 119 90 3f 00
        E 361 90 26 79
        E 9 90 3f 74
        E 111 90 26 00
        E 9 90 3f 00
        E 358 90 3f 27
        E 120 90 3f 00
        E 353 90 26 30
        E 3 90 1a 76
        E 117 90 26 00
        E 3 90 1a 00
        E 356 90 24 74
        E 14 90 3f 3a
        E 106 90 24 00
        E 14 90 3f 00
        E 354 90 3e 2a
        E 120 90 3e 00
        E 124 90 3e 1c
        E 120 90 3e 00
        E 107 90 3f 40
        E 120 90 3f 00
        E 135 90 26 07
        E 120 90 26 00
        E 107 90 26 77
        E 12 90 3e 78
        E 108 90 26 00
        E 12 90 3e 00
        E 93 90 26 2d
        E 120 90 26 00
        E 127 90 3f 2d
        E 120 90 3f 00
        E 362 90 24 5d
        E 10 90 3f 37
        E 110 90 24 00
        E 10 90 3f 00
        E 120 90 26 12
        E 120 90 26 00
        E 101 90 24 76
        E 20 90 3e 49
        E 100 90 24 00
        E 20 90 3e 00
        E 359 90 3e 2a
        E 121 90 3e 00
        E 123 90 3f 22
        E 120 90 3f 00
        E 116 90 3e 56
        E 120 90 3e 00
        E 350 90 26 7c
        E 8 90 3e 74
        E 112 90 26 00
        E 8 90 3e 00
        E 355 90 26 40
        E 15 90 19 49
        E 105 90 26 00
        E 15 90 19 00
        E 827 b0 7b 00
        CCINTERP 32
        CHASE_CC_TAKEOFFS 1
        GUID {B0E45400-B4DF-4198-AB32-B66C174737D8}
        IGNTEMPO 0 120 4 4
        SRCCOLOR 1
        VELLANE -1 100 0
        CFGEDITVIEW -218749.64898 0.168557 62 12 0 -1 0 0 0 0.5
        KEYSNAP 0
        TRACKSEL 0
        EVTFILTER 0 -1 -1 -1 -1 0 0 0 0 -1 -1 -1 -1 0 -1 0 -1 -1
        CFGEDIT 1 1 0 1 0 16 1 1 1 1 1 0.125 90 53 1854 760 0 0 0 0 0 0 0 1 0 0.5 0 0 1 64
      >
    >
    <ITEM
      POSITION 118
      SNAPOFFS 0
      LENGTH 2
      LOOP 1
      ALLTAKES 0
      FADEIN 1 0 0 1 0 0
      FADEOUT 1 0 0 1 0 0
      MUTE 0 0
      COLOR 27085204 R
      SEL 0
      IGUID {42C39FEF-BC70-4F1C-9502-1583C62B44CA}
      IID 2
      NAME "Variation 03 - Variation_03.mid"
      VOLPAN 1 0 1 -1
      SOFFS 0 0
      PLAYRATE 1 1 0 -1 0 0.0025
      CHANMODE 0
      GUID {90277BEA-93C4-43DB-8A62-BCABECDC9B53}
      <SOURCE MIDI
        HASDATA 1 960 QN
        CCINTERP 32
        POOLEDEVTS {855F43F6-064C-463C-809E-14E912B0833C}
        <X 0 0 0 0 3 "Variation 03"
          /wNWYXJpYXRpb24gMDM=
        >
        E 0 90 3b 60
        E 0 90 39 60
        E 0 90 35 60
        E 0 90 34 60
        E 0 90 24 60
        E 120 80 3b 00
        E 0 80 39 00
        E 0 80 35 00
        E 0 80 34 00
        E 0 80 24 00
        E 840 90 2b 60
        E 0 90 28 7e
        E 120 80 2b 00
        E 0 80 28 00
        E 360 90 3b 60
        E 0 90 39 60
        E 0 90 34 60
        E 0 90 24 60
        E 120 80 3b 00
        E 0 80 39 00
        E 0 80 34 00
        E 0 80 24 00
        E 360 90 3e 60
        E 120 80 3e 00
        E 360 90 24 60
        E 120 80 24 00
        e 360 90 26 60
        e 120 80 26 00
        E 360 90 39 60
        E 0 90 24 60
        E 120 80 39 00
        E 0 80 24 00
        E 120 90 24 60
        E 0 90 3b 60
        E 120 80 24 00
        E 0 80 3b 00
        E 120 90 24 60
        E 0 90 38 60
        E 120 80 24 00
        E 0 80 38 00
        E 3728 90 3e 2f
        E 120 90 3e 00
        E 339 90 24 5d
        E 19 90 3e 23
        E 102 90 24 00
        E 19 90 3e 00
        E 99 90 26 0d
        E 121 90 26 00
        E 6 90 26 12
        E 120 90 26 00
        E 1 90 24 6b
        E 24 90 3e 51
        E 97 90 24 00
        E 23 90 3e 00
        E 347 90 3e 1f
        E 120 90 3e 00
        E 120 90 26 16
        E 121 90 26 00
        E 122 90 3e 45
        E 121 90 3e 00
        E 356 90 26 78
        E 14 90 3e 76
        E 106 90 26 00
        E 14 90 3e 00
        E 97 90 26 38
        E 120 90 26 00
        E 140 90 3e 24
        E 120 90 3e 00
        E 357 90 3e 2a
        E 2 90 24 49
        E 118 90 3e 00
        E 3 90 24 00
        E 344 90 24 73
        E 18 90 3f 54
        E 102 90 24 00
        E 18 90 3f 00
        E 356 90 3e 20
        E 120 90 3e 00
        E 118 90 3e 13
        E 119 90 3e 00
        E 116 90 3f 59
        E 120 90 3f 00
        E 344 90 26 79
        E 11 90 3e 72
        E 109 90 26 00
        E 11 90 3e 00
        E 356 90 3f 2d
        E 120 90 3f 00
        E 341 90 24 5a
        E 14 90 3f 3b
        E 106 90 24 00
        E 14 90 3f 00
        E 361 90 24 74
        E 14 90 3f 4f
        E 106 90 24 00
        E 14 90 3f 00
        E 355 90 3e 2b
        E 120 90 3e 00
        E 124 90 26 18
        E 120 90 26 00
        E 114 90 3f 46
        E 119 90 3f 00
        E 361 90 26 79
        E 9 90 3f 74
        E 111 90 26 00
        E 9 90 3f 00
        E 358 90 3f 27
        E 120 90 3f 00
        E 353 90 26 30
        E 3 90 1a 76
        E 117 90 26 00
        E 3 90 1a 00
        E 356 90 24 74
        E 14 90 3f 3a
        E 106 90 24 00
        E 14 90 3f 00
        E 354 90 3e 2a
        E 120 90 3e 00
        E 124 90 3e 1c
        E 120 90 3e 00
        E 107 90 3f 40
        E 120 90 3f 00
        E 135 90 26 07
        E 120 90 26 00
        E 107 90 26 77
        E 12 90 3e 78
        E 108 90 26 00
        E 12 90 3e 00
        E 93 90 26 2d
        E 120 90 26 00
        E 127 90 3f 2d
        E 120 90 3f 00
        E 362 90 24 5d
        E 10 90 3f 37
        E 110 90 24 00
        E 10 90 3f 00
        E 120 90 26 12
        E 120 90 26 00
        E 101 90 24 76
        E 20 90 3e 49
        E 100 90 24 00
        E 20 90 3e 00
        E 359 90 3e 2a
        E 121 90 3e 00
        E 123 90 3f 22
        E 120 90 3f 00
        E 116 90 3e 56
        E 120 90 3e 00
        E 350 90 26 7c
        E 8 90 3e 74
        E 112 90 26 00
        E 8 90 3e 00
        E 355 90 26 40
        E 15 90 19 49
        E 105 90 26 00
        E 15 90 19 00
        E 827 b0 7b 00
        CCINTERP 32
        CHASE_CC_TAKEOFFS 1
        GUID {B0E45400-B4DF-4198-AB32-B66C174737D8}
        IGNTEMPO 0 120 4 4
        SRCCOLOR 1
        VELLANE -1 100 0
        CFGEDITVIEW -222589.64898 0.435092 62 12 0 -1 0 0 0 0.5
        KEYSNAP 0
        TRACKSEL 0
        EVTFILTER 0 -1 -1 -1 -1 0 0 0 0 -1 -1 -1 -1 0 -1 0 -1 -1
        CFGEDIT 1 1 0 1 0 16 1 1 1 1 1 0.125 90 53 1854 760 0 0 0 0 0 0 0 1 0 0.5 0 0 1 64
      >
    >
    <ITEM
      POSITION 120
      SNAPOFFS 0
      LENGTH 2
      LOOP 1
      ALLTAKES 0
      FADEIN 1 0 0 1 0 0
      FADEOUT 1 0 0 1 0 0
      MUTE 0 0
      COLOR 27085204 R
      SEL 0
      IGUID {D4314DB2-7830-4432-8A60-94041F143BDC}
      IID 2
      NAME "Variation 03 - Variation_03.mid"
      VOLPAN 1 0 1 -1
      SOFFS 0 0
      PLAYRATE 1 1 0 -1 0 0.0025
      CHANMODE 0
      GUID {350373D8-4B4E-4ADE-B7A8-F82D17504DFA}
      <SOURCE MIDI
        HASDATA 1 960 QN
        CCINTERP 32
        POOLEDEVTS {D2B27115-C568-4AAC-BDFA-305B4D98B451}
        <X 0 0 0 0 3 "Variation 03"
          /wNWYXJpYXRpb24gMDM=
        >
        E 0 90 3a 60
        E 0 90 24 60
        E 120 80 3a 00
        E 0 80 24 00
        E 840 90 3e 60
        E 0 90 26 60
        E 120 80 3e 00
        E 0 80 26 00
        E 840 90 3e 60
        E 0 90 24 60
        E 120 80 3e 00
        E 0 80 24 00
        E 360 90 24 60
        E 120 80 24 00
        E 360 90 3e 60
        E 0 90 26 60
        E 120 80 3e 00
        E 0 80 26 00
        E 840 90 26 60
        E 120 80 26 00
        E 3728 90 3e 2f
        E 120 90 3e 00
        E 339 90 24 5d
        E 19 90 3e 23
        E 102 90 24 00
        E 19 90 3e 00
        E 99 90 26 0d
        E 121 90 26 00
        E 6 90 26 12
        E 120 90 26 00
        E 1 90 24 6b
        E 24 90 3e 51
        E 97 90 24 00
        E 23 90 3e 00
        E 347 90 3e 1f
        E 120 90 3e 00
        E 120 90 26 16
        E 121 90 26 00
        E 122 90 3e 45
        E 121 90 3e 00
        E 356 90 26 78
        E 14 90 3e 76
        E 106 90 26 00
        E 14 90 3e 00
        E 97 90 26 38
        E 120 90 26 00
        E 140 90 3e 24
        E 120 90 3e 00
        E 357 90 3e 2a
        E 2 90 24 49
        E 118 90 3e 00
        E 3 90 24 00
        E 344 90 24 73
        E 18 90 3f 54
        E 102 90 24 00
        E 18 90 3f 00
        E 356 90 3e 20
        E 120 90 3e 00
        E 118 90 3e 13
        E 119 90 3e 00
        E 116 90 3f 59
        E 120 90 3f 00
        E 344 90 26 79
        E 11 90 3e 72
        E 109 90 26 00
        E 11 90 3e 00
        E 356 90 3f 2d
        E 120 90 3f 00
        E 341 90 24 5a
        E 14 90 3f 3b
        E 106 90 24 00
        E 14 90 3f 00
        E 361 90 24 74
        E 14 90 3f 4f
        E 106 90 24 00
        E 14 90 3f 00
        E 355 90 3e 2b
        E 120 90 3e 00
        E 124 90 26 18
        E 120 90 26 00
        E 114 90 3f 46
        E 119 90 3f 00
        E 361 90 26 79
        E 9 90 3f 74
        E 111 90 26 00
        E 9 90 3f 00
        E 358 90 3f 27
        E 120 90 3f 00
        E 353 90 26 30
        E 3 90 1a 76
        E 117 90 26 00
        E 3 90 1a 00
        E 356 90 24 74
        E 14 90 3f 3a
        E 106 90 24 00
        E 14 90 3f 00
        E 354 90 3e 2a
        E 120 90 3e 00
        E 124 90 3e 1c
        E 120 90 3e 00
        E 107 90 3f 40
        E 120 90 3f 00
        E 135 90 26 07
        E 120 90 26 00
        E 107 90 26 77
        E 12 90 3e 78
        E 108 90 26 00
        E 12 90 3e 00
        E 93 90 26 2d
        E 120 90 26 00
        E 127 90 3f 2d
        E 120 90 3f 00
        E 362 90 24 5d
        E 10 90 3f 37
        E 110 90 24 00
        E 10 90 3f 00
        E 120 90 26 12
        E 120 90 26 00
        E 101 90 24 76
        E 20 90 3e 49
        E 100 90 24 00
        E 20 90 3e 00
        E 359 90 3e 2a
        E 121 90 3e 00
        E 123 90 3f 22
        E 120 90 3f 00
        E 116 90 3e 56
        E 120 90 3e 00
        E 350 90 26 7c
        E 8 90 3e 74
        E 112 90 26 00
        E 8 90 3e 00
        E 355 90 26 40
        E 15 90 19 49
        E 105 90 26 00
        E 15 90 19 00
        E 827 b0 7b 00
        CCINTERP 32
        CHASE_CC_TAKEOFFS 1
        GUID {B0E45400-B4DF-4198-AB32-B66C174737D8}
        IGNTEMPO 0 120 4 4
        SRCCOLOR 1
        VELLANE -1 100 0
        CFGEDITVIEW -218749.64898 0.168557 62 12 0 -1 0 0 0 0.5
        KEYSNAP 0
        TRACKSEL 0
        EVTFILTER 0 -1 -1 -1 -1 0 0 0 0 -1 -1 -1 -1 0 -1 0 -1 -1
        CFGEDIT 1 1 0 1 0 16 1 1 1 1 1 0.125 90 53 1854 760 0 0 0 0 0 0 0 1 0 0.5 0 0 1 64
      >
    >
    <ITEM
      POSITION 122
      SNAPOFFS 0
      LENGTH 2
      LOOP 1
      ALLTAKES 0
      FADEIN 1 0 0 1 0 0
      FADEOUT 1 0 0 1 0 0
      MUTE 0 0
      COLOR 27085204 R
      SEL 0
      IGUID {4D5096E2-A812-4830-9D7E-D54633EE5B85}
      IID 2
      NAME "Variation 03 - Variation_03.mid"
      VOLPAN 1 0 1 -1
      SOFFS 0 0
      PLAYRATE 1 1 0 -1 0 0.0025
      CHANMODE 0
      GUID {FDA1D5F1-99C7-4A11-BD3B-19EC07BCFB20}
      <SOURCE MIDI
        HASDATA 1 960 QN
        CCINTERP 32
        POOLEDEVTS {43A4464B-004F-4DDE-96B0-19302198B115}
        <X 0 0 0 0 3 "Variation 03"
          /wNWYXJpYXRpb24gMDM=
        >
        E 0 90 3b 60
        E 0 90 39 60
        E 0 90 35 60
        E 0 90 34 60
        E 0 90 24 60
        E 120 80 3b 00
        E 0 80 39 00
        E 0 80 35 00
        E 0 80 34 00
        E 0 80 24 00
        E 840 90 2b 60
        E 0 90 28 7e
        E 120 80 2b 00
        E 0 80 28 00
        E 360 90 3b 60
        E 0 90 39 60
        E 0 90 34 60
        E 0 90 24 60
        E 120 80 3b 00
        E 0 80 39 00
        E 0 80 34 00
        E 0 80 24 00
        E 360 90 3e 60
        E 120 80 3e 00
        E 360 90 24 60
        E 120 80 24 00
        e 360 90 26 60
        e 120 80 26 00
        E 360 90 39 60
        E 0 90 24 60
        E 120 80 39 00
        E 0 80 24 00
        E 120 90 24 60
        E 0 90 3b 60
        E 120 80 24 00
        E 0 80 3b 00
        E 120 90 24 60
        E 0 90 38 60
        E 120 80 24 00
        E 0 80 38 00
        E 3728 90 3e 2f
        E 120 90 3e 00
        E 339 90 24 5d
        E 19 90 3e 23
        E 102 90 24 00
        E 19 90 3e 00
        E 99 90 26 0d
        E 121 90 26 00
        E 6 90 26 12
        E 120 90 26 00
        E 1 90 24 6b
        E 24 90 3e 51
        E 97 90 24 00
        E 23 90 3e 00
        E 347 90 3e 1f
        E 120 90 3e 00
        E 120 90 26 16
        E 121 90 26 00
        E 122 90 3e 45
        E 121 90 3e 00
        E 356 90 26 78
        E 14 90 3e 76
        E 106 90 26 00
        E 14 90 3e 00
        E 97 90 26 38
        E 120 90 26 00
        E 140 90 3e 24
        E 120 90 3e 00
        E 357 90 3e 2a
        E 2 90 24 49
        E 118 90 3e 00
        E 3 90 24 00
        E 344 90 24 73
        E 18 90 3f 54
        E 102 90 24 00
        E 18 90 3f 00
        E 356 90 3e 20
        E 120 90 3e 00
        E 118 90 3e 13
        E 119 90 3e 00
        E 116 90 3f 59
        E 120 90 3f 00
        E 344 90 26 79
        E 11 90 3e 72
        E 109 90 26 00
        E 11 90 3e 00
        E 356 90 3f 2d
        E 120 90 3f 00
        E 341 90 24 5a
        E 14 90 3f 3b
        E 106 90 24 00
        E 14 90 3f 00
        E 361 90 24 74
        E 14 90 3f 4f
        E 106 90 24 00
        E 14 90 3f 00
        E 355 90 3e 2b
        E 120 90 3e 00
        E 124 90 26 18
        E 120 90 26 00
        E 114 90 3f 46
        E 119 90 3f 00
        E 361 90 26 79
        E 9 90 3f 74
        E 111 90 26 00
        E 9 90 3f 00
        E 358 90 3f 27
        E 120 90 3f 00
        E 353 90 26 30
        E 3 90 1a 76
        E 117 90 26 00
        E 3 90 1a 00
        E 356 90 24 74
        E 14 90 3f 3a
        E 106 90 24 00
        E 14 90 3f 00
        E 354 90 3e 2a
        E 120 90 3e 00
        E 124 90 3e 1c
        E 120 90 3e 00
        E 107 90 3f 40
        E 120 90 3f 00
        E 135 90 26 07
        E 120 90 26 00
        E 107 90 26 77
        E 12 90 3e 78
        E 108 90 26 00
        E 12 90 3e 00
        E 93 90 26 2d
        E 120 90 26 00
        E 127 90 3f 2d
        E 120 90 3f 00
        E 362 90 24 5d
        E 10 90 3f 37
        E 110 90 24 00
        E 10 90 3f 00
        E 120 90 26 12
        E 120 90 26 00
        E 101 90 24 76
        E 20 90 3e 49
        E 100 90 24 00
        E 20 90 3e 00
        E 359 90 3e 2a
        E 121 90 3e 00
        E 123 90 3f 22
        E 120 90 3f 00
        E 116 90 3e 56
        E 120 90 3e 00
        E 350 90 26 7c
        E 8 90 3e 74
        E 112 90 26 00
        E 8 90 3e 00
        E 355 90 26 40
        E 15 90 19 49
        E 105 90 26 00
        E 15 90 19 00
        E 827 b0 7b 00
        CCINTERP 32
        CHASE_CC_TAKEOFFS 1
        GUID {B0E45400-B4DF-4198-AB32-B66C174737D8}
        IGNTEMPO 0 120 4 4
        SRCCOLOR 1
        VELLANE -1 100 0
        CFGEDITVIEW -222589.64898 0.435092 62 12 0 -1 0 0 0 0.5
        KEYSNAP 0
        TRACKSEL 0
        EVTFILTER 0 -1 -1 -1 -1 0 0 0 0 -1 -1 -1 -1 0 -1 0 -1 -1
        CFGEDIT 1 1 0 1 0 16 1 1 1 1 1 0.125 90 53 1854 760 0 0 0 0 0 0 0 1 0 0.5 0 0 1 64
      >
    >
    <ITEM
      POSITION 124
      SNAPOFFS 0
      LENGTH 2
      LOOP 1
      ALLTAKES 0
      FADEIN 1 0 0 1 0 0
      FADEOUT 1 0 0 1 0 0
      MUTE 0 0
      COLOR 27085204 R
      SEL 0
      IGUID {E38A69A8-0FF9-4F99-AA37-50D6EB2B77C8}
      IID 2
      NAME "Variation 03 - Variation_03.mid"
      VOLPAN 1 0 1 -1
      SOFFS 0 0
      PLAYRATE 1 1 0 -1 0 0.0025
      CHANMODE 0
      GUID {704FB60E-097A-4305-8456-EC90BC126C16}
      <SOURCE MIDI
        HASDATA 1 960 QN
        CCINTERP 32
        POOLEDEVTS {19B6557F-CBFB-4C00-8417-7FF9AD592943}
        <X 0 0 0 0 3 "Variation 03"
          /wNWYXJpYXRpb24gMDM=
        >
        E 0 90 3a 60
        E 0 90 24 60
        E 120 80 3a 00
        E 0 80 24 00
        E 840 90 3e 60
        E 0 90 26 60
        E 120 80 3e 00
        E 0 80 26 00
        E 840 90 3e 60
        E 0 90 24 60
        E 120 80 3e 00
        E 0 80 24 00
        E 360 90 24 60
        E 120 80 24 00
        E 360 90 3e 60
        E 0 90 26 60
        E 120 80 3e 00
        E 0 80 26 00
        E 840 90 26 60
        E 120 80 26 00
        E 3728 90 3e 2f
        E 120 90 3e 00
        E 339 90 24 5d
        E 19 90 3e 23
        E 102 90 24 00
        E 19 90 3e 00
        E 99 90 26 0d
        E 121 90 26 00
        E 6 90 26 12
        E 120 90 26 00
        E 1 90 24 6b
        E 24 90 3e 51
        E 97 90 24 00
        E 23 90 3e 00
        E 347 90 3e 1f
        E 120 90 3e 00
        E 120 90 26 16
        E 121 90 26 00
        E 122 90 3e 45
        E 121 90 3e 00
        E 356 90 26 78
        E 14 90 3e 76
        E 106 90 26 00
        E 14 90 3e 00
        E 97 90 26 38
        E 120 90 26 00
        E 140 90 3e 24
        E 120 90 3e 00
        E 357 90 3e 2a
        E 2 90 24 49
        E 118 90 3e 00
        E 3 90 24 00
        E 344 90 24 73
        E 18 90 3f 54
        E 102 90 24 00
        E 18 90 3f 00
        E 356 90 3e 20
        E 120 90 3e 00
        E 118 90 3e 13
        E 119 90 3e 00
        E 116 90 3f 59
        E 120 90 3f 00
        E 344 90 26 79
        E 11 90 3e 72
        E 109 90 26 00
        E 11 90 3e 00
        E 356 90 3f 2d
        E 120 90 3f 00
        E 341 90 24 5a
        E 14 90 3f 3b
        E 106 90 24 00
        E 14 90 3f 00
        E 361 90 24 74
        E 14 90 3f 4f
        E 106 90 24 00
        E 14 90 3f 00
        E 355 90 3e 2b
        E 120 90 3e 00
        E 124 90 26 18
        E 120 90 26 00
        E 114 90 3f 46
        E 119 90 3f 00
        E 361 90 26 79
        E 9 90 3f 74
        E 111 90 26 00
        E 9 90 3f 00
        E 358 90 3f 27
        E 120 90 3f 00
        E 353 90 26 30
        E 3 90 1a 76
        E 117 90 26 00
        E 3 90 1a 00
        E 356 90 24 74
        E 14 90 3f 3a
        E 106 90 24 00
        E 14 90 3f 00
        E 354 90 3e 2a
        E 120 90 3e 00
        E 124 90 3e 1c
        E 120 90 3e 00
        E 107 90 3f 40
        E 120 90 3f 00
        E 135 90 26 07
        E 120 90 26 00
        E 107 90 26 77
        E 12 90 3e 78
        E 108 90 26 00
        E 12 90 3e 00
        E 93 90 26 2d
        E 120 90 26 00
        E 127 90 3f 2d
        E 120 90 3f 00
        E 362 90 24 5d
        E 10 90 3f 37
        E 110 90 24 00
        E 10 90 3f 00
        E 120 90 26 12
        E 120 90 26 00
        E 101 90 24 76
        E 20 90 3e 49
        E 100 90 24 00
        E 20 90 3e 00
        E 359 90 3e 2a
        E 121 90 3e 00
        E 123 90 3f 22
        E 120 90 3f 00
        E 116 90 3e 56
        E 120 90 3e 00
        E 350 90 26 7c
        E 8 90 3e 74
        E 112 90 26 00
        E 8 90 3e 00
        E 355 90 26 40
        E 15 90 19 49
        E 105 90 26 00
        E 15 90 19 00
        E 827 b0 7b 00
        CCINTERP 32
        CHASE_CC_TAKEOFFS 1
        GUID {B0E45400-B4DF-4198-AB32-B66C174737D8}
        IGNTEMPO 0 120 4 4
        SRCCOLOR 1
        VELLANE -1 100 0
        CFGEDITVIEW -218749.64898 0.168557 62 12 0 -1 0 0 0 0.5
        KEYSNAP 0
        TRACKSEL 0
        EVTFILTER 0 -1 -1 -1 -1 0 0 0 0 -1 -1 -1 -1 0 -1 0 -1 -1
        CFGEDIT 1 1 0 1 0 16 1 1 1 1 1 0.125 90 53 1854 760 0 0 0 0 0 0 0 1 0 0.5 0 0 1 64
      >
    >
    <ITEM
      POSITION 126
      SNAPOFFS 0
      LENGTH 2
      LOOP 1
      ALLTAKES 0
      FADEIN 1 0 0 1 0 0
      FADEOUT 1 0 0 1 0 0
      MUTE 0 0
      COLOR 27085204 R
      SEL 0
      IGUID {6AC869DE-18AA-42F0-B306-5FC3D8638EBC}
      IID 2
      NAME "Variation 03 - Variation_03.mid"
      VOLPAN 1 0 1 -1
      SOFFS 0 0
      PLAYRATE 1 1 0 -1 0 0.0025
      CHANMODE 0
      GUID {796E39ED-B020-43FC-BE6B-731BA79C2DA3}
      <SOURCE MIDI
        HASDATA 1 960 QN
        CCINTERP 32
        POOLEDEVTS {86B0D128-7E78-4335-BBCA-D54598AAFBB1}
        <X 0 0 0 0 3 "Variation 03"
          /wNWYXJpYXRpb24gMDM=
        >
        E 0 90 3b 60
        E 0 90 39 60
        E 0 90 35 60
        E 0 90 34 60
        E 0 90 24 60
        E 120 80 3b 00
        E 0 80 39 00
        E 0 80 35 00
        E 0 80 34 00
        E 0 80 24 00
        E 840 90 2b 60
        E 0 90 28 7e
        E 120 80 2b 00
        E 0 80 28 00
        E 360 90 3b 60
        E 0 90 39 60
        E 0 90 34 60
        E 0 90 24 60
        E 120 80 3b 00
        E 0 80 39 00
        E 0 80 34 00
        E 0 80 24 00
        E 360 90 3e 60
        E 120 80 3e 00
        E 360 90 24 60
        E 120 80 24 00
        e 360 90 26 60
        e 120 80 26 00
        E 360 90 39 60
        E 0 90 24 60
        E 120 80 39 00
        E 0 80 24 00
        E 120 90 24 60
        E 0 90 3b 60
        E 120 80 24 00
        E 0 80 3b 00
        E 120 90 24 60
        E 0 90 38 60
        E 120 80 24 00
        E 0 80 38 00
        E 3728 90 3e 2f
        E 120 90 3e 00
        E 339 90 24 5d
        E 19 90 3e 23
        E 102 90 24 00
        E 19 90 3e 00
        E 99 90 26 0d
        E 121 90 26 00
        E 6 90 26 12
        E 120 90 26 00
        E 1 90 24 6b
        E 24 90 3e 51
        E 97 90 24 00
        E 23 90 3e 00
        E 347 90 3e 1f
        E 120 90 3e 00
        E 120 90 26 16
        E 121 90 26 00
        E 122 90 3e 45
        E 121 90 3e 00
        E 356 90 26 78
        E 14 90 3e 76
        E 106 90 26 00
        E 14 90 3e 00
        E 97 90 26 38
        E 120 90 26 00
        E 140 90 3e 24
        E 120 90 3e 00
        E 357 90 3e 2a
        E 2 90 24 49
        E 118 90 3e 00
        E 3 90 24 00
        E 344 90 24 73
        E 18 90 3f 54
        E 102 90 24 00
        E 18 90 3f 00
        E 356 90 3e 20
        E 120 90 3e 00
        E 118 90 3e 13
        E 119 90 3e 00
        E 116 90 3f 59
        E 120 90 3f 00
        E 344 90 26 79
        E 11 90 3e 72
        E 109 90 26 00
        E 11 90 3e 00
        E 356 90 3f 2d
        E 120 90 3f 00
        E 341 90 24 5a
        E 14 90 3f 3b
        E 106 90 24 00
        E 14 90 3f 00
        E 361 90 24 74
        E 14 90 3f 4f
        E 106 90 24 00
        E 14 90 3f 00
        E 355 90 3e 2b
        E 120 90 3e 00
        E 124 90 26 18
        E 120 90 26 00
        E 114 90 3f 46
        E 119 90 3f 00
        E 361 90 26 79
        E 9 90 3f 74
        E 111 90 26 00
        E 9 90 3f 00
        E 358 90 3f 27
        E 120 90 3f 00
        E 353 90 26 30
        E 3 90 1a 76
        E 117 90 26 00
        E 3 90 1a 00
        E 356 90 24 74
        E 14 90 3f 3a
        E 106 90 24 00
        E 14 90 3f 00
        E 354 90 3e 2a
        E 120 90 3e 00
        E 124 90 3e 1c
        E 120 90 3e 00
        E 107 90 3f 40
        E 120 90 3f 00
        E 135 90 26 07
        E 120 90 26 00
        E 107 90 26 77
        E 12 90 3e 78
        E 108 90 26 00
        E 12 90 3e 00
        E 93 90 26 2d
        E 120 90 26 00
        E 127 90 3f 2d
        E 120 90 3f 00
        E 362 90 24 5d
        E 10 90 3f 37
        E 110 90 24 00
        E 10 90 3f 00
        E 120 90 26 12
        E 120 90 26 00
        E 101 90 24 76
        E 20 90 3e 49
        E 100 90 24 00
        E 20 90 3e 00
        E 359 90 3e 2a
        E 121 90 3e 00
        E 123 90 3f 22
        E 120 90 3f 00
        E 116 90 3e 56
        E 120 90 3e 00
        E 350 90 26 7c
        E 8 90 3e 74
        E 112 90 26 00
        E 8 90 3e 00
        E 355 90 26 40
        E 15 90 19 49
        E 105 90 26 00
        E 15 90 19 00
        E 827 b0 7b 00
        CCINTERP 32
        CHASE_CC_TAKEOFFS 1
        GUID {B0E45400-B4DF-4198-AB32-B66C174737D8}
        IGNTEMPO 0 120 4 4
        SRCCOLOR 1
        VELLANE -1 100 0
        CFGEDITVIEW -222589.64898 0.435092 62 12 0 -1 0 0 0 0.5
        KEYSNAP 0
        TRACKSEL 0
        EVTFILTER 0 -1 -1 -1 -1 0 0 0 0 -1 -1 -1 -1 0 -1 0 -1 -1
        CFGEDIT 1 1 0 1 0 16 1 1 1 1 1 0.125 90 53 1854 760 0 0 0 0 0 0 0 1 0 0.5 0 0 1 64
      >
    >
    <ITEM
      POSITION 128
      SNAPOFFS 0
      LENGTH 2
      LOOP 1
      ALLTAKES 0
      FADEIN 1 0 0 1 0 0
      FADEOUT 1 0 0 1 0 0
      MUTE 0 0
      COLOR 27085204 R
      SEL 0
      IGUID {7743500B-68EB-4494-A3B4-75C144E48C68}
      IID 2
      NAME "Variation 03 - Variation_03.mid"
      VOLPAN 1 0 1 -1
      SOFFS 0 0
      PLAYRATE 1 1 0 -1 0 0.0025
      CHANMODE 0
      GUID {E03C909C-1DD3-467F-A992-30BDE0916FA8}
      <SOURCE MIDI
        HASDATA 1 960 QN
        CCINTERP 32
        POOLEDEVTS {7CCC07D2-F47F-4037-B158-9805E57172FB}
        <X 0 0 0 0 3 "Variation 03"
          /wNWYXJpYXRpb24gMDM=
        >
        E 0 90 3a 60
        E 0 90 24 60
        E 120 80 3a 00
        E 0 80 24 00
        E 840 90 3e 60
        E 0 90 26 60
        E 120 80 3e 00
        E 0 80 26 00
        E 840 90 3e 60
        E 0 90 24 60
        E 120 80 3e 00
        E 0 80 24 00
        E 360 90 24 60
        E 120 80 24 00
        E 360 90 3e 60
        E 0 90 26 60
        E 120 80 3e 00
        E 0 80 26 00
        E 840 90 26 60
        E 120 80 26 00
        E 3728 90 3e 2f
        E 120 90 3e 00
        E 339 90 24 5d
        E 19 90 3e 23
        E 102 90 24 00
        E 19 90 3e 00
        E 99 90 26 0d
        E 121 90 26 00
        E 6 90 26 12
        E 120 90 26 00
        E 1 90 24 6b
        E 24 90 3e 51
        E 97 90 24 00
        E 23 90 3e 00
        E 347 90 3e 1f
        E 120 90 3e 00
        E 120 90 26 16
        E 121 90 26 00
        E 122 90 3e 45
        E 121 90 3e 00
        E 356 90 26 78
        E 14 90 3e 76
        E 106 90 26 00
        E 14 90 3e 00
        E 97 90 26 38
        E 120 90 26 00
        E 140 90 3e 24
        E 120 90 3e 00
        E 357 90 3e 2a
        E 2 90 24 49
        E 118 90 3e 00
        E 3 90 24 00
        E 344 90 24 73
        E 18 90 3f 54
        E 102 90 24 00
        E 18 90 3f 00
        E 356 90 3e 20
        E 120 90 3e 00
        E 118 90 3e 13
        E 119 90 3e 00
        E 116 90 3f 59
        E 120 90 3f 00
        E 344 90 26 79
        E 11 90 3e 72
        E 109 90 26 00
        E 11 90 3e 00
        E 356 90 3f 2d
        E 120 90 3f 00
        E 341 90 24 5a
        E 14 90 3f 3b
        E 106 90 24 00
        E 14 90 3f 00
        E 361 90 24 74
        E 14 90 3f 4f
        E 106 90 24 00
        E 14 90 3f 00
        E 355 90 3e 2b
        E 120 90 3e 00
        E 124 90 26 18
        E 120 90 26 00
        E 114 90 3f 46
        E 119 90 3f 00
        E 361 90 26 79
        E 9 90 3f 74
        E 111 90 26 00
        E 9 90 3f 00
        E 358 90 3f 27
        E 120 90 3f 00
        E 353 90 26 30
        E 3 90 1a 76
        E 117 90 26 00
        E 3 90 1a 00
        E 356 90 24 74
        E 14 90 3f 3a
        E 106 90 24 00
        E 14 90 3f 00
        E 354 90 3e 2a
        E 120 90 3e 00
        E 124 90 3e 1c
        E 120 90 3e 00
        E 107 90 3f 40
        E 120 90 3f 00
        E 135 90 26 07
        E 120 90 26 00
        E 107 90 26 77
        E 12 90 3e 78
        E 108 90 26 00
        E 12 90 3e 00
        E 93 90 26 2d
        E 120 90 26 00
        E 127 90 3f 2d
        E 120 90 3f 00
        E 362 90 24 5d
        E 10 90 3f 37
        E 110 90 24 00
        E 10 90 3f 00
        E 120 90 26 12
        E 120 90 26 00
        E 101 90 24 76
        E 20 90 3e 49
        E 100 90 24 00
        E 20 90 3e 00
        E 359 90 3e 2a
        E 121 90 3e 00
        E 123 90 3f 22
        E 120 90 3f 00
        E 116 90 3e 56
        E 120 90 3e 00
        E 350 90 26 7c
        E 8 90 3e 74
        E 112 90 26 00
        E 8 90 3e 00
        E 355 90 26 40
        E 15 90 19 49
        E 105 90 26 00
        E 15 90 19 00
        E 827 b0 7b 00
        CCINTERP 32
        CHASE_CC_TAKEOFFS 1
        GUID {B0E45400-B4DF-4198-AB32-B66C174737D8}
        IGNTEMPO 0 120 4 4
        SRCCOLOR 1
        VELLANE -1 100 0
        CFGEDITVIEW -218749.64898 0.168557 62 12 0 -1 0 0 0 0.5
        KEYSNAP 0
        TRACKSEL 0
        EVTFILTER 0 -1 -1 -1 -1 0 0 0 0 -1 -1 -1 -1 0 -1 0 -1 -1
        CFGEDIT 1 1 0 1 0 16 1 1 1 1 1 0.125 90 53 1854 760 0 0 0 0 0 0 0 1 0 0.5 0 0 1 64
      >
    >
    <ITEM
      POSITION 130
      SNAPOFFS 0
      LENGTH 2
      LOOP 1
      ALLTAKES 0
      FADEIN 1 0 0 1 0 0
      FADEOUT 1 0 0 1 0 0
      MUTE 0 0
      COLOR 27085204 R
      SEL 0
      IGUID {3CB30202-2EF2-495C-A7C1-25C3C76EE36D}
      IID 2
      NAME "Variation 03 - Variation_03.mid"
      VOLPAN 1 0 1 -1
      SOFFS 0 0
      PLAYRATE 1 1 0 -1 0 0.0025
      CHANMODE 0
      GUID {790D942C-6959-4C6E-BFD0-5DA066CA37EC}
      <SOURCE MIDI
        HASDATA 1 960 QN
        CCINTERP 32
        POOLEDEVTS {4CECE670-B0B0-42DE-A33A-6A837047AAD0}
        <X 0 0 0 0 3 "Variation 03"
          /wNWYXJpYXRpb24gMDM=
        >
        E 0 90 3b 60
        E 0 90 39 60
        E 0 90 35 60
        E 0 90 34 60
        E 0 90 24 60
        E 120 80 3b 00
        E 0 80 39 00
        E 0 80 35 00
        E 0 80 34 00
        E 0 80 24 00
        E 840 90 2b 60
        E 0 90 28 7e
        E 120 80 2b 00
        E 0 80 28 00
        E 360 90 3b 60
        E 0 90 39 60
        E 0 90 34 60
        E 0 90 24 60
        E 120 80 3b 00
        E 0 80 39 00
        E 0 80 34 00
        E 0 80 24 00
        E 360 90 3e 60
        E 120 80 3e 00
        E 360 90 24 60
        E 120 80 24 00
        e 360 90 26 60
        e 120 80 26 00
        E 360 90 39 60
        E 0 90 24 60
        E 120 80 39 00
        E 0 80 24 00
        E 120 90 24 60
        E 0 90 3b 60
        E 120 80 24 00
        E 0 80 3b 00
        E 120 90 24 60
        E 0 90 38 60
        E 120 80 24 00
        E 0 80 38 00
        E 3728 90 3e 2f
        E 120 90 3e 00
        E 339 90 24 5d
        E 19 90 3e 23
        E 102 90 24 00
        E 19 90 3e 00
        E 99 90 26 0d
        E 121 90 26 00
        E 6 90 26 12
        E 120 90 26 00
        E 1 90 24 6b
        E 24 90 3e 51
        E 97 90 24 00
        E 23 90 3e 00
        E 347 90 3e 1f
        E 120 90 3e 00
        E 120 90 26 16
        E 121 90 26 00
        E 122 90 3e 45
        E 121 90 3e 00
        E 356 90 26 78
        E 14 90 3e 76
        E 106 90 26 00
        E 14 90 3e 00
        E 97 90 26 38
        E 120 90 26 00
        E 140 90 3e 24
        E 120 90 3e 00
        E 357 90 3e 2a
        E 2 90 24 49
        E 118 90 3e 00
        E 3 90 24 00
        E 344 90 24 73
        E 18 90 3f 54
        E 102 90 24 00
        E 18 90 3f 00
        E 356 90 3e 20
        E 120 90 3e 00
        E 118 90 3e 13
        E 119 90 3e 00
        E 116 90 3f 59
        E 120 90 3f 00
        E 344 90 26 79
        E 11 90 3e 72
        E 109 90 26 00
        E 11 90 3e 00
        E 356 90 3f 2d
        E 120 90 3f 00
        E 341 90 24 5a
        E 14 90 3f 3b
        E 106 90 24 00
        E 14 90 3f 00
        E 361 90 24 74
        E 14 90 3f 4f
        E 106 90 24 00
        E 14 90 3f 00
        E 355 90 3e 2b
        E 120 90 3e 00
        E 124 90 26 18
        E 120 90 26 00
        E 114 90 3f 46
        E 119 90 3f 00
        E 361 90 26 79
        E 9 90 3f 74
        E 111 90 26 00
        E 9 90 3f 00
        E 358 90 3f 27
        E 120 90 3f 00
        E 353 90 26 30
        E 3 90 1a 76
        E 117 90 26 00
        E 3 90 1a 00
        E 356 90 24 74
        E 14 90 3f 3a
        E 106 90 24 00
        E 14 90 3f 00
        E 354 90 3e 2a
        E 120 90 3e 00
        E 124 90 3e 1c
        E 120 90 3e 00
        E 107 90 3f 40
        E 120 90 3f 00
        E 135 90 26 07
        E 120 90 26 00
        E 107 90 26 77
        E 12 90 3e 78
        E 108 90 26 00
        E 12 90 3e 00
        E 93 90 26 2d
        E 120 90 26 00
        E 127 90 3f 2d
        E 120 90 3f 00
        E 362 90 24 5d
        E 10 90 3f 37
        E 110 90 24 00
        E 10 90 3f 00
        E 120 90 26 12
        E 120 90 26 00
        E 101 90 24 76
        E 20 90 3e 49
        E 100 90 24 00
        E 20 90 3e 00
        E 359 90 3e 2a
        E 121 90 3e 00
        E 123 90 3f 22
        E 120 90 3f 00
        E 116 90 3e 56
        E 120 90 3e 00
        E 350 90 26 7c
        E 8 90 3e 74
        E 112 90 26 00
        E 8 90 3e 00
        E 355 90 26 40
        E 15 90 19 49
        E 105 90 26 00
        E 15 90 19 00
        E 827 b0 7b 00
        CCINTERP 32
        CHASE_CC_TAKEOFFS 1
        GUID {B0E45400-B4DF-4198-AB32-B66C174737D8}
        IGNTEMPO 0 120 4 4
        SRCCOLOR 1
        VELLANE -1 100 0
        CFGEDITVIEW -222589.64898 0.435092 62 12 0 -1 0 0 0 0.5
        KEYSNAP 0
        TRACKSEL 0
        EVTFILTER 0 -1 -1 -1 -1 0 0 0 0 -1 -1 -1 -1 0 -1 0 -1 -1
        CFGEDIT 1 1 0 1 0 16 1 1 1 1 1 0.125 90 53 1854 760 0 0 0 0 0 0 0 1 0 0.5 0 0 1 64
      >
    >
    <ITEM
      POSITION 132
      SNAPOFFS 0
      LENGTH 2
      LOOP 1
      ALLTAKES 0
      FADEIN 1 0 0 1 0 0
      FADEOUT 1 0 0 1 0 0
      MUTE 0 0
      COLOR 27085204 R
      SEL 0
      IGUID {B914E8F4-C699-4826-AABA-118CDCC82C0B}
      IID 2
      NAME "Variation 03 - Variation_03.mid"
      VOLPAN 1 0 1 -1
      SOFFS 0 0
      PLAYRATE 1 1 0 -1 0 0.0025
      CHANMODE 0
      GUID {18A26CE5-EF14-4522-9AFE-941DE2306D5F}
      <SOURCE MIDI
        HASDATA 1 960 QN
        CCINTERP 32
        POOLEDEVTS {5C2CBDA9-C54B-441E-96D2-8892EF7E89F9}
        <X 0 0 0 0 3 "Variation 03"
          /wNWYXJpYXRpb24gMDM=
        >
        E 0 90 3a 60
        E 0 90 24 60
        E 120 80 3a 00
        E 0 80 24 00
        e 840 90 3c 60
        E 0 90 26 60
        e 120 80 3c 00
        E 0 80 26 00
        e 840 90 3c 60
        E 0 90 24 60
        e 120 80 3c 00
        E 0 80 24 00
        E 360 90 24 60
        E 120 80 24 00
        e 360 90 3c 60
        E 0 90 26 60
        e 120 80 3c 00
        E 0 80 26 00
        E 840 90 26 60
        E 120 80 26 00
        E 3728 90 3e 2f
        E 120 90 3e 00
        E 339 90 24 5d
        E 19 90 3e 23
        E 102 90 24 00
        E 19 90 3e 00
        E 99 90 26 0d
        E 121 90 26 00
        E 6 90 26 12
        E 120 90 26 00
        E 1 90 24 6b
        E 24 90 3e 51
        E 97 90 24 00
        E 23 90 3e 00
        E 347 90 3e 1f
        E 120 90 3e 00
        E 120 90 26 16
        E 121 90 26 00
        E 122 90 3e 45
        E 121 90 3e 00
        E 356 90 26 78
        E 14 90 3e 76
        E 106 90 26 00
        E 14 90 3e 00
        E 97 90 26 38
        E 120 90 26 00
        E 140 90 3e 24
        E 120 90 3e 00
        E 357 90 3e 2a
        E 2 90 24 49
        E 118 90 3e 00
        E 3 90 24 00
        E 344 90 24 73
        E 18 90 3f 54
        E 102 90 24 00
        E 18 90 3f 00
        E 356 90 3e 20
        E 120 90 3e 00
        E 118 90 3e 13
        E 119 90 3e 00
        E 116 90 3f 59
        E 120 90 3f 00
        E 344 90 26 79
        E 11 90 3e 72
        E 109 90 26 00
        E 11 90 3e 00
        E 356 90 3f 2d
        E 120 90 3f 00
        E 341 90 24 5a
        E 14 90 3f 3b
        E 106 90 24 00
        E 14 90 3f 00
        E 361 90 24 74
        E 14 90 3f 4f
        E 106 90 24 00
        E 14 90 3f 00
        E 355 90 3e 2b
        E 120 90 3e 00
        E 124 90 26 18
        E 120 90 26 00
        E 114 90 3f 46
        E 119 90 3f 00
        E 361 90 26 79
        E 9 90 3f 74
        E 111 90 26 00
        E 9 90 3f 00
        E 358 90 3f 27
        E 120 90 3f 00
        E 353 90 26 30
        E 3 90 1a 76
        E 117 90 26 00
        E 3 90 1a 00
        E 356 90 24 74
        E 14 90 3f 3a
        E 106 90 24 00
        E 14 90 3f 00
        E 354 90 3e 2a
        E 120 90 3e 00
        E 124 90 3e 1c
        E 120 90 3e 00
        E 107 90 3f 40
        E 120 90 3f 00
        E 135 90 26 07
        E 120 90 26 00
        E 107 90 26 77
        E 12 90 3e 78
        E 108 90 26 00
        E 12 90 3e 00
        E 93 90 26 2d
        E 120 90 26 00
        E 127 90 3f 2d
        E 120 90 3f 00
        E 362 90 24 5d
        E 10 90 3f 37
        E 110 90 24 00
        E 10 90 3f 00
        E 120 90 26 12
        E 120 90 26 00
        E 101 90 24 76
        E 20 90 3e 49
        E 100 90 24 00
        E 20 90 3e 00
        E 359 90 3e 2a
        E 121 90 3e 00
        E 123 90 3f 22
        E 120 90 3f 00
        E 116 90 3e 56
        E 120 90 3e 00
        E 350 90 26 7c
        E 8 90 3e 74
        E 112 90 26 00
        E 8 90 3e 00
        E 355 90 26 40
        E 15 90 19 49
        E 105 90 26 00
        E 15 90 19 00
        E 827 b0 7b 00
        CCINTERP 32
        CHASE_CC_TAKEOFFS 1
        GUID {B0E45400-B4DF-4198-AB32-B66C174737D8}
        IGNTEMPO 0 120 4 4
        SRCCOLOR 1
        VELLANE -1 100 0
        CFGEDITVIEW -115.2 0.435092 62 12 0 -1 0 0 0 0.5
        KEYSNAP 0
        TRACKSEL 0
        EVTFILTER 0 -1 -1 -1 -1 0 0 0 0 -1 -1 -1 -1 0 -1 0 -1 -1
        CFGEDIT 1 1 0 1 0 16 1 1 1 1 1 0.125 90 53 1854 760 0 0 0 0 0 0 0 1 0 0.5 0 0 1 64
      >
    >
    <ITEM
      POSITION 134
      SNAPOFFS 0
      LENGTH 2
      LOOP 1
      ALLTAKES 0
      FADEIN 1 0 0 1 0 0
      FADEOUT 1 0 0 1 0 0
      MUTE 0 0
      COLOR 27085204 R
      SEL 0
      IGUID {6E899AC2-691A-448D-9B1D-3A714F496BEC}
      IID 2
      NAME "Variation 03 - Variation_03.mid"
      VOLPAN 1 0 1 -1
      SOFFS 0 0
      PLAYRATE 1 1 0 -1 0 0.0025
      CHANMODE 0
      GUID {BCD718C5-2ACA-4AE9-B199-B5E96D7415F7}
      <SOURCE MIDI
        HASDATA 1 960 QN
        CCINTERP 32
        POOLEDEVTS {3EBCB18E-6535-4B87-B29A-D4258724FD82}
        <X 0 0 0 0 3 "Variation 03"
          /wNWYXJpYXRpb24gMDM=
        >
        E 0 90 3b 60
        E 0 90 39 60
        E 0 90 35 60
        E 0 90 34 60
        E 0 90 24 60
        E 120 80 3b 00
        E 0 80 39 00
        E 0 80 35 00
        E 0 80 34 00
        E 0 80 24 00
        E 840 90 2b 60
        E 0 90 28 7e
        E 120 80 2b 00
        E 0 80 28 00
        E 360 90 3b 60
        E 0 90 39 60
        E 0 90 34 60
        E 0 90 24 60
        E 120 80 3b 00
        E 0 80 39 00
        E 0 80 34 00
        E 0 80 24 00
        E 360 90 3e 60
        E 120 80 3e 00
        E 360 90 24 60
        E 120 80 24 00
        e 360 90 26 60
        e 120 80 26 00
        E 360 90 39 60
        E 0 90 24 60
        E 120 80 39 00
        E 0 80 24 00
        E 120 90 24 60
        E 0 90 3b 60
        E 120 80 24 00
        E 0 80 3b 00
        E 120 90 24 60
        E 0 90 38 60
        E 120 80 24 00
        E 0 80 38 00
        E 3728 90 3e 2f
        E 120 90 3e 00
        E 339 90 24 5d
        E 19 90 3e 23
        E 102 90 24 00
        E 19 90 3e 00
        E 99 90 26 0d
        E 121 90 26 00
        E 6 90 26 12
        E 120 90 26 00
        E 1 90 24 6b
        E 24 90 3e 51
        E 97 90 24 00
        E 23 90 3e 00
        E 347 90 3e 1f
        E 120 90 3e 00
        E 120 90 26 16
        E 121 90 26 00
        E 122 90 3e 45
        E 121 90 3e 00
        E 356 90 26 78
        E 14 90 3e 76
        E 106 90 26 00
        E 14 90 3e 00
        E 97 90 26 38
        E 120 90 26 00
        E 140 90 3e 24
        E 120 90 3e 00
        E 357 90 3e 2a
        E 2 90 24 49
        E 118 90 3e 00
        E 3 90 24 00
        E 344 90 24 73
        E 18 90 3f 54
        E 102 90 24 00
        E 18 90 3f 00
        E 356 90 3e 20
        E 120 90 3e 00
        E 118 90 3e 13
        E 119 90 3e 00
        E 116 90 3f 59
        E 120 90 3f 00
        E 344 90 26 79
        E 11 90 3e 72
        E 109 90 26 00
        E 11 90 3e 00
        E 356 90 3f 2d
        E 120 90 3f 00
        E 341 90 24 5a
        E 14 90 3f 3b
        E 106 90 24 00
        E 14 90 3f 00
        E 361 90 24 74
        E 14 90 3f 4f
        E 106 90 24 00
        E 14 90 3f 00
        E 355 90 3e 2b
        E 120 90 3e 00
        E 124 90 26 18
        E 120 90 26 00
        E 114 90 3f 46
        E 119 90 3f 00
        E 361 90 26 79
        E 9 90 3f 74
        E 111 90 26 00
        E 9 90 3f 00
        E 358 90 3f 27
        E 120 90 3f 00
        E 353 90 26 30
        E 3 90 1a 76
        E 117 90 26 00
        E 3 90 1a 00
        E 356 90 24 74
        E 14 90 3f 3a
        E 106 90 24 00
        E 14 90 3f 00
        E 354 90 3e 2a
        E 120 90 3e 00
        E 124 90 3e 1c
        E 120 90 3e 00
        E 107 90 3f 40
        E 120 90 3f 00
        E 135 90 26 07
        E 120 90 26 00
        E 107 90 26 77
        E 12 90 3e 78
        E 108 90 26 00
        E 12 90 3e 00
        E 93 90 26 2d
        E 120 90 26 00
        E 127 90 3f 2d
        E 120 90 3f 00
        E 362 90 24 5d
        E 10 90 3f 37
        E 110 90 24 00
        E 10 90 3f 00
        E 120 90 26 12
        E 120 90 26 00
        E 101 90 24 76
        E 20 90 3e 49
        E 100 90 24 00
        E 20 90 3e 00
        E 359 90 3e 2a
        E 121 90 3e 00
        E 123 90 3f 22
        E 120 90 3f 00
        E 116 90 3e 56
        E 120 90 3e 00
        E 350 90 26 7c
        E 8 90 3e 74
        E 112 90 26 00
        E 8 90 3e 00
        E 355 90 26 40
        E 15 90 19 49
        E 105 90 26 00
        E 15 90 19 00
        E 827 b0 7b 00
        CCINTERP 32
        CHASE_CC_TAKEOFFS 1
        GUID {B0E45400-B4DF-4198-AB32-B66C174737D8}
        IGNTEMPO 0 120 4 4
        SRCCOLOR 1
        VELLANE -1 100 0
        CFGEDITVIEW -222589.64898 0.435092 62 12 0 -1 0 0 0 0.5
        KEYSNAP 0
        TRACKSEL 0
        EVTFILTER 0 -1 -1 -1 -1 0 0 0 0 -1 -1 -1 -1 0 -1 0 -1 -1
        CFGEDIT 1 1 0 1 0 16 1 1 1 1 1 0.125 90 53 1854 760 0 0 0 0 0 0 0 1 0 0.5 0 0 1 64
      >
    >
    <ITEM
      POSITION 136
      SNAPOFFS 0
      LENGTH 2
      LOOP 1
      ALLTAKES 0
      FADEIN 1 0 0 1 0 0
      FADEOUT 1 0 0 1 0 0
      MUTE 0 0
      COLOR 27085204 R
      SEL 0
      IGUID {5E2E4222-3471-4A88-8727-33BAFB457C8A}
      IID 2
      NAME "Variation 03 - Variation_03.mid"
      VOLPAN 1 0 1 -1
      SOFFS 0 0
      PLAYRATE 1 1 0 -1 0 0.0025
      CHANMODE 0
      GUID {ABA27A39-3718-46E5-9875-5C123A574262}
      <SOURCE MIDI
        HASDATA 1 960 QN
        CCINTERP 32
        POOLEDEVTS {11557EFF-8B60-4F29-A61E-38484C8AC0B1}
        <X 0 0 0 0 3 "Variation 03"
          /wNWYXJpYXRpb24gMDM=
        >
        E 0 90 3a 60
        E 0 90 24 60
        E 120 80 3a 00
        E 0 80 24 00
        e 840 90 3c 60
        E 0 90 26 60
        e 120 80 3c 00
        E 0 80 26 00
        e 840 90 3c 60
        E 0 90 24 60
        e 120 80 3c 00
        E 0 80 24 00
        E 360 90 24 60
        E 120 80 24 00
        e 360 90 3c 60
        E 0 90 26 60
        e 120 80 3c 00
        E 0 80 26 00
        E 840 90 26 60
        E 120 80 26 00
        E 3728 90 3e 2f
        E 120 90 3e 00
        E 339 90 24 5d
        E 19 90 3e 23
        E 102 90 24 00
        E 19 90 3e 00
        E 99 90 26 0d
        E 121 90 26 00
        E 6 90 26 12
        E 120 90 26 00
        E 1 90 24 6b
        E 24 90 3e 51
        E 97 90 24 00
        E 23 90 3e 00
        E 347 90 3e 1f
        E 120 90 3e 00
        E 120 90 26 16
        E 121 90 26 00
        E 122 90 3e 45
        E 121 90 3e 00
        E 356 90 26 78
        E 14 90 3e 76
        E 106 90 26 00
        E 14 90 3e 00
        E 97 90 26 38
        E 120 90 26 00
        E 140 90 3e 24
        E 120 90 3e 00
        E 357 90 3e 2a
        E 2 90 24 49
        E 118 90 3e 00
        E 3 90 24 00
        E 344 90 24 73
        E 18 90 3f 54
        E 102 90 24 00
        E 18 90 3f 00
        E 356 90 3e 20
        E 120 90 3e 00
        E 118 90 3e 13
        E 119 90 3e 00
        E 116 90 3f 59
        E 120 90 3f 00
        E 344 90 26 79
        E 11 90 3e 72
        E 109 90 26 00
        E 11 90 3e 00
        E 356 90 3f 2d
        E 120 90 3f 00
        E 341 90 24 5a
        E 14 90 3f 3b
        E 106 90 24 00
        E 14 90 3f 00
        E 361 90 24 74
        E 14 90 3f 4f
        E 106 90 24 00
        E 14 90 3f 00
        E 355 90 3e 2b
        E 120 90 3e 00
        E 124 90 26 18
        E 120 90 26 00
        E 114 90 3f 46
        E 119 90 3f 00
        E 361 90 26 79
        E 9 90 3f 74
        E 111 90 26 00
        E 9 90 3f 00
        E 358 90 3f 27
        E 120 90 3f 00
        E 353 90 26 30
        E 3 90 1a 76
        E 117 90 26 00
        E 3 90 1a 00
        E 356 90 24 74
        E 14 90 3f 3a
        E 106 90 24 00
        E 14 90 3f 00
        E 354 90 3e 2a
        E 120 90 3e 00
        E 124 90 3e 1c
        E 120 90 3e 00
        E 107 90 3f 40
        E 120 90 3f 00
        E 135 90 26 07
        E 120 90 26 00
        E 107 90 26 77
        E 12 90 3e 78
        E 108 90 26 00
        E 12 90 3e 00
        E 93 90 26 2d
        E 120 90 26 00
        E 127 90 3f 2d
        E 120 90 3f 00
        E 362 90 24 5d
        E 10 90 3f 37
        E 110 90 24 00
        E 10 90 3f 00
        E 120 90 26 12
        E 120 90 26 00
        E 101 90 24 76
        E 20 90 3e 49
        E 100 90 24 00
        E 20 90 3e 00
        E 359 90 3e 2a
        E 121 90 3e 00
        E 123 90 3f 22
        E 120 90 3f 00
        E 116 90 3e 56
        E 120 90 3e 00
        E 350 90 26 7c
        E 8 90 3e 74
        E 112 90 26 00
        E 8 90 3e 00
        E 355 90 26 40
        E 15 90 19 49
        E 105 90 26 00
        E 15 90 19 00
        E 827 b0 7b 00
        CCINTERP 32
        CHASE_CC_TAKEOFFS 1
        GUID {B0E45400-B4DF-4198-AB32-B66C174737D8}
        IGNTEMPO 0 120 4 4
        SRCCOLOR 1
        VELLANE -1 100 0
        CFGEDITVIEW -115.2 0.435092 62 12 0 -1 0 0 0 0.5
        KEYSNAP 0
        TRACKSEL 0
        EVTFILTER 0 -1 -1 -1 -1 0 0 0 0 -1 -1 -1 -1 0 -1 0 -1 -1
        CFGEDIT 1 1 0 1 0 16 1 1 1 1 1 0.125 90 53 1854 760 0 0 0 0 0 0 0 1 0 0.5 0 0 1 64
      >
    >
    <ITEM
      POSITION 138
      SNAPOFFS 0
      LENGTH 2
      LOOP 1
      ALLTAKES 0
      FADEIN 1 0 0 1 0 0
      FADEOUT 1 0 0 1 0 0
      MUTE 0 0
      COLOR 27085204 R
      SEL 0
      IGUID {9501E41C-3A6F-4D71-9EE9-6C7154027ABF}
      IID 2
      NAME "Variation 03 - Variation_03.mid"
      VOLPAN 1 0 1 -1
      SOFFS 0 0
      PLAYRATE 1 1 0 -1 0 0.0025
      CHANMODE 0
      GUID {D7B2976F-D0E6-4FD6-BAD8-262D67EDF11F}
      <SOURCE MIDI
        HASDATA 1 960 QN
        CCINTERP 32
        POOLEDEVTS {DC2D4432-16ED-4C95-89F0-0AE5198003D0}
        <X 0 0 0 0 3 "Variation 03"
          /wNWYXJpYXRpb24gMDM=
        >
        E 0 90 3b 60
        E 0 90 39 60
        E 0 90 35 60
        E 0 90 34 60
        E 0 90 24 60
        E 120 80 3b 00
        E 0 80 39 00
        E 0 80 35 00
        E 0 80 34 00
        E 0 80 24 00
        E 840 90 2b 60
        E 0 90 28 7e
        E 120 80 2b 00
        E 0 80 28 00
        E 360 90 3b 60
        E 0 90 39 60
        E 0 90 34 60
        E 0 90 24 60
        E 120 80 3b 00
        E 0 80 39 00
        E 0 80 34 00
        E 0 80 24 00
        E 360 90 3e 60
        E 120 80 3e 00
        E 360 90 24 60
        E 120 80 24 00
        e 360 90 26 60
        e 120 80 26 00
        E 360 90 39 60
        E 0 90 24 60
        E 120 80 39 00
        E 0 80 24 00
        E 120 90 24 60
        E 0 90 3b 60
        E 120 80 24 00
        E 0 80 3b 00
        E 120 90 24 60
        E 0 90 38 60
        E 120 80 24 00
        E 0 80 38 00
        E 3728 90 3e 2f
        E 120 90 3e 00
        E 339 90 24 5d
        E 19 90 3e 23
        E 102 90 24 00
        E 19 90 3e 00
        E 99 90 26 0d
        E 121 90 26 00
        E 6 90 26 12
        E 120 90 26 00
        E 1 90 24 6b
        E 24 90 3e 51
        E 97 90 24 00
        E 23 90 3e 00
        E 347 90 3e 1f
        E 120 90 3e 00
        E 120 90 26 16
        E 121 90 26 00
        E 122 90 3e 45
        E 121 90 3e 00
        E 356 90 26 78
        E 14 90 3e 76
        E 106 90 26 00
        E 14 90 3e 00
        E 97 90 26 38
        E 120 90 26 00
        E 140 90 3e 24
        E 120 90 3e 00
        E 357 90 3e 2a
        E 2 90 24 49
        E 118 90 3e 00
        E 3 90 24 00
        E 344 90 24 73
        E 18 90 3f 54
        E 102 90 24 00
        E 18 90 3f 00
        E 356 90 3e 20
        E 120 90 3e 00
        E 118 90 3e 13
        E 119 90 3e 00
        E 116 90 3f 59
        E 120 90 3f 00
        E 344 90 26 79
        E 11 90 3e 72
        E 109 90 26 00
        E 11 90 3e 00
        E 356 90 3f 2d
        E 120 90 3f 00
        E 341 90 24 5a
        E 14 90 3f 3b
        E 106 90 24 00
        E 14 90 3f 00
        E 361 90 24 74
        E 14 90 3f 4f
        E 106 90 24 00
        E 14 90 3f 00
        E 355 90 3e 2b
        E 120 90 3e 00
        E 124 90 26 18
        E 120 90 26 00
        E 114 90 3f 46
        E 119 90 3f 00
        E 361 90 26 79
        E 9 90 3f 74
        E 111 90 26 00
        E 9 90 3f 00
        E 358 90 3f 27
        E 120 90 3f 00
        E 353 90 26 30
        E 3 90 1a 76
        E 117 90 26 00
        E 3 90 1a 00
        E 356 90 24 74
        E 14 90 3f 3a
        E 106 90 24 00
        E 14 90 3f 00
        E 354 90 3e 2a
        E 120 90 3e 00
        E 124 90 3e 1c
        E 120 90 3e 00
        E 107 90 3f 40
        E 120 90 3f 00
        E 135 90 26 07
        E 120 90 26 00
        E 107 90 26 77
        E 12 90 3e 78
        E 108 90 26 00
        E 12 90 3e 00
        E 93 90 26 2d
        E 120 90 26 00
        E 127 90 3f 2d
        E 120 90 3f 00
        E 362 90 24 5d
        E 10 90 3f 37
        E 110 90 24 00
        E 10 90 3f 00
        E 120 90 26 12
        E 120 90 26 00
        E 101 90 24 76
        E 20 90 3e 49
        E 100 90 24 00
        E 20 90 3e 00
        E 359 90 3e 2a
        E 121 90 3e 00
        E 123 90 3f 22
        E 120 90 3f 00
        E 116 90 3e 56
        E 120 90 3e 00
        E 350 90 26 7c
        E 8 90 3e 74
        E 112 90 26 00
        E 8 90 3e 00
        E 355 90 26 40
        E 15 90 19 49
        E 105 90 26 00
        E 15 90 19 00
        E 827 b0 7b 00
        CCINTERP 32
        CHASE_CC_TAKEOFFS 1
        GUID {B0E45400-B4DF-4198-AB32-B66C174737D8}
        IGNTEMPO 0 120 4 4
        SRCCOLOR 1
        VELLANE -1 100 0
        CFGEDITVIEW -222589.64898 0.435092 62 12 0 -1 0 0 0 0.5
        KEYSNAP 0
        TRACKSEL 0
        EVTFILTER 0 -1 -1 -1 -1 0 0 0 0 -1 -1 -1 -1 0 -1 0 -1 -1
        CFGEDIT 1 1 0 1 0 16 1 1 1 1 1 0.125 90 53 1854 760 0 0 0 0 0 0 0 1 0 0.5 0 0 1 64
      >
    >
    <ITEM
      POSITION 140
      SNAPOFFS 0
      LENGTH 2
      LOOP 1
      ALLTAKES 0
      FADEIN 1 0 0 1 0 0
      FADEOUT 1 0 0 1 0 0
      MUTE 0 0
      COLOR 27085204 R
      SEL 0
      IGUID {41D8B156-D73F-4EFC-BBDA-70B967A5A77F}
      IID 2
      NAME "Variation 03 - Variation_03.mid"
      VOLPAN 1 0 1 -1
      SOFFS 0 0
      PLAYRATE 1 1 0 -1 0 0.0025
      CHANMODE 0
      GUID {8E923F49-1FF9-45ED-A233-C6EB9242FA61}
      <SOURCE MIDI
        HASDATA 1 960 QN
        CCINTERP 32
        POOLEDEVTS {522EDFAC-D42D-4301-A357-5DD38EC2BD23}
        <X 0 0 0 0 3 "Variation 03"
          /wNWYXJpYXRpb24gMDM=
        >
        E 0 90 3a 60
        E 0 90 24 60
        E 120 80 3a 00
        E 0 80 24 00
        e 840 90 3c 60
        E 0 90 26 60
        e 120 80 3c 00
        E 0 80 26 00
        e 840 90 3c 60
        E 0 90 24 60
        e 120 80 3c 00
        E 0 80 24 00
        E 360 90 24 60
        E 120 80 24 00
        e 360 90 3c 60
        E 0 90 26 60
        e 120 80 3c 00
        E 0 80 26 00
        E 840 90 26 60
        E 120 80 26 00
        E 3728 90 3e 2f
        E 120 90 3e 00
        E 339 90 24 5d
        E 19 90 3e 23
        E 102 90 24 00
        E 19 90 3e 00
        E 99 90 26 0d
        E 121 90 26 00
        E 6 90 26 12
        E 120 90 26 00
        E 1 90 24 6b
        E 24 90 3e 51
        E 97 90 24 00
        E 23 90 3e 00
        E 347 90 3e 1f
        E 120 90 3e 00
        E 120 90 26 16
        E 121 90 26 00
        E 122 90 3e 45
        E 121 90 3e 00
        E 356 90 26 78
        E 14 90 3e 76
        E 106 90 26 00
        E 14 90 3e 00
        E 97 90 26 38
        E 120 90 26 00
        E 140 90 3e 24
        E 120 90 3e 00
        E 357 90 3e 2a
        E 2 90 24 49
        E 118 90 3e 00
        E 3 90 24 00
        E 344 90 24 73
        E 18 90 3f 54
        E 102 90 24 00
        E 18 90 3f 00
        E 356 90 3e 20
        E 120 90 3e 00
        E 118 90 3e 13
        E 119 90 3e 00
        E 116 90 3f 59
        E 120 90 3f 00
        E 344 90 26 79
        E 11 90 3e 72
        E 109 90 26 00
        E 11 90 3e 00
        E 356 90 3f 2d
        E 120 90 3f 00
        E 341 90 24 5a
        E 14 90 3f 3b
        E 106 90 24 00
        E 14 90 3f 00
        E 361 90 24 74
        E 14 90 3f 4f
        E 106 90 24 00
        E 14 90 3f 00
        E 355 90 3e 2b
        E 120 90 3e 00
        E 124 90 26 18
        E 120 90 26 00
        E 114 90 3f 46
        E 119 90 3f 00
        E 361 90 26 79
        E 9 90 3f 74
        E 111 90 26 00
        E 9 90 3f 00
        E 358 90 3f 27
        E 120 90 3f 00
        E 353 90 26 30
        E 3 90 1a 76
        E 117 90 26 00
        E 3 90 1a 00
        E 356 90 24 74
        E 14 90 3f 3a
        E 106 90 24 00
        E 14 90 3f 00
        E 354 90 3e 2a
        E 120 90 3e 00
        E 124 90 3e 1c
        E 120 90 3e 00
        E 107 90 3f 40
        E 120 90 3f 00
        E 135 90 26 07
        E 120 90 26 00
        E 107 90 26 77
        E 12 90 3e 78
        E 108 90 26 00
        E 12 90 3e 00
        E 93 90 26 2d
        E 120 90 26 00
        E 127 90 3f 2d
        E 120 90 3f 00
        E 362 90 24 5d
        E 10 90 3f 37
        E 110 90 24 00
        E 10 90 3f 00
        E 120 90 26 12
        E 120 90 26 00
        E 101 90 24 76
        E 20 90 3e 49
        E 100 90 24 00
        E 20 90 3e 00
        E 359 90 3e 2a
        E 121 90 3e 00
        E 123 90 3f 22
        E 120 90 3f 00
        E 116 90 3e 56
        E 120 90 3e 00
        E 350 90 26 7c
        E 8 90 3e 74
        E 112 90 26 00
        E 8 90 3e 00
        E 355 90 26 40
        E 15 90 19 49
        E 105 90 26 00
        E 15 90 19 00
        E 827 b0 7b 00
        CCINTERP 32
        CHASE_CC_TAKEOFFS 1
        GUID {B0E45400-B4DF-4198-AB32-B66C174737D8}
        IGNTEMPO 0 120 4 4
        SRCCOLOR 1
        VELLANE -1 100 0
        CFGEDITVIEW -115.2 0.435092 62 12 0 -1 0 0 0 0.5
        KEYSNAP 0
        TRACKSEL 0
        EVTFILTER 0 -1 -1 -1 -1 0 0 0 0 -1 -1 -1 -1 0 -1 0 -1 -1
        CFGEDIT 1 1 0 1 0 16 1 1 1 1 1 0.125 90 53 1854 760 0 0 0 0 0 0 0 1 0 0.5 0 0 1 64
      >
    >
    <ITEM
      POSITION 142
      SNAPOFFS 0
      LENGTH 2
      LOOP 1
      ALLTAKES 0
      FADEIN 1 0 0 1 0 0
      FADEOUT 1 0 0 1 0 0
      MUTE 0 0
      COLOR 27085204 R
      SEL 0
      IGUID {2F1DBBB3-5699-49BE-A4C2-7A1E68747D9B}
      IID 2
      NAME "Variation 03 - Variation_03.mid"
      VOLPAN 1 0 1 -1
      SOFFS 0 0
      PLAYRATE 1 1 0 -1 0 0.0025
      CHANMODE 0
      GUID {A99C0D95-EE8D-49B2-BB8D-C9F60D95214F}
      <SOURCE MIDI
        HASDATA 1 960 QN
        CCINTERP 32
        POOLEDEVTS {245EB4BC-5531-49FC-812D-340D3FD1C08E}
        <X 0 0 0 0 3 "Variation 03"
          /wNWYXJpYXRpb24gMDM=
        >
        E 0 90 3b 60
        E 0 90 39 60
        E 0 90 35 60
        E 0 90 34 60
        E 0 90 24 60
        E 120 80 3b 00
        E 0 80 39 00
        E 0 80 35 00
        E 0 80 34 00
        E 0 80 24 00
        E 840 90 2b 60
        E 0 90 28 7e
        E 120 80 2b 00
        E 0 80 28 00
        E 360 90 3b 60
        E 0 90 39 60
        E 0 90 34 60
        E 0 90 24 60
        E 120 80 3b 00
        E 0 80 39 00
        E 0 80 34 00
        E 0 80 24 00
        E 360 90 3e 60
        E 120 80 3e 00
        E 360 90 24 60
        E 120 80 24 00
        e 360 90 26 60
        e 120 80 26 00
        E 360 90 39 60
        E 0 90 24 60
        E 120 80 39 00
        E 0 80 24 00
        E 120 90 24 60
        E 0 90 3b 60
        E 120 80 24 00
        E 0 80 3b 00
        E 120 90 24 60
        E 0 90 38 60
        E 120 80 24 00
        E 0 80 38 00
        E 3728 90 3e 2f
        E 120 90 3e 00
        E 339 90 24 5d
        E 19 90 3e 23
        E 102 90 24 00
        E 19 90 3e 00
        E 99 90 26 0d
        E 121 90 26 00
        E 6 90 26 12
        E 120 90 26 00
        E 1 90 24 6b
        E 24 90 3e 51
        E 97 90 24 00
        E 23 90 3e 00
        E 347 90 3e 1f
        E 120 90 3e 00
        E 120 90 26 16
        E 121 90 26 00
        E 122 90 3e 45
        E 121 90 3e 00
        E 356 90 26 78
        E 14 90 3e 76
        E 106 90 26 00
        E 14 90 3e 00
        E 97 90 26 38
        E 120 90 26 00
        E 140 90 3e 24
        E 120 90 3e 00
        E 357 90 3e 2a
        E 2 90 24 49
        E 118 90 3e 00
        E 3 90 24 00
        E 344 90 24 73
        E 18 90 3f 54
        E 102 90 24 00
        E 18 90 3f 00
        E 356 90 3e 20
        E 120 90 3e 00
        E 118 90 3e 13
        E 119 90 3e 00
        E 116 90 3f 59
        E 120 90 3f 00
        E 344 90 26 79
        E 11 90 3e 72
        E 109 90 26 00
        E 11 90 3e 00
        E 356 90 3f 2d
        E 120 90 3f 00
        E 341 90 24 5a
        E 14 90 3f 3b
        E 106 90 24 00
        E 14 90 3f 00
        E 361 90 24 74
        E 14 90 3f 4f
        E 106 90 24 00
        E 14 90 3f 00
        E 355 90 3e 2b
        E 120 90 3e 00
        E 124 90 26 18
        E 120 90 26 00
        E 114 90 3f 46
        E 119 90 3f 00
        E 361 90 26 79
        E 9 90 3f 74
        E 111 90 26 00
        E 9 90 3f 00
        E 358 90 3f 27
        E 120 90 3f 00
        E 353 90 26 30
        E 3 90 1a 76
        E 117 90 26 00
        E 3 90 1a 00
        E 356 90 24 74
        E 14 90 3f 3a
        E 106 90 24 00
        E 14 90 3f 00
        E 354 90 3e 2a
        E 120 90 3e 00
        E 124 90 3e 1c
        E 120 90 3e 00
        E 107 90 3f 40
        E 120 90 3f 00
        E 135 90 26 07
        E 120 90 26 00
        E 107 90 26 77
        E 12 90 3e 78
        E 108 90 26 00
        E 12 90 3e 00
        E 93 90 26 2d
        E 120 90 26 00
        E 127 90 3f 2d
        E 120 90 3f 00
        E 362 90 24 5d
        E 10 90 3f 37
        E 110 90 24 00
        E 10 90 3f 00
        E 120 90 26 12
        E 120 90 26 00
        E 101 90 24 76
        E 20 90 3e 49
        E 100 90 24 00
        E 20 90 3e 00
        E 359 90 3e 2a
        E 121 90 3e 00
        E 123 90 3f 22
        E 120 90 3f 00
        E 116 90 3e 56
        E 120 90 3e 00
        E 350 90 26 7c
        E 8 90 3e 74
        E 112 90 26 00
        E 8 90 3e 00
        E 355 90 26 40
        E 15 90 19 49
        E 105 90 26 00
        E 15 90 19 00
        E 827 b0 7b 00
        CCINTERP 32
        CHASE_CC_TAKEOFFS 1
        GUID {B0E45400-B4DF-4198-AB32-B66C174737D8}
        IGNTEMPO 0 120 4 4
        SRCCOLOR 1
        VELLANE -1 100 0
        CFGEDITVIEW -222589.64898 0.435092 62 12 0 -1 0 0 0 0.5
        KEYSNAP 0
        TRACKSEL 0
        EVTFILTER 0 -1 -1 -1 -1 0 0 0 0 -1 -1 -1 -1 0 -1 0 -1 -1
        CFGEDIT 1 1 0 1 0 16 1 1 1 1 1 0.125 90 53 1854 760 0 0 0 0 0 0 0 1 0 0.5 0 0 1 64
      >
    >
    <ITEM
      POSITION 144
      SNAPOFFS 0
      LENGTH 2
      LOOP 1
      ALLTAKES 0
      FADEIN 1 0 0 1 0 0
      FADEOUT 1 0 0 1 0 0
      MUTE 0 0
      COLOR 27085204 R
      SEL 0
      IGUID {6220CE86-4C86-4D8D-A479-65F357ED0F1D}
      IID 2
      NAME "Variation 03 - Variation_03.mid"
      VOLPAN 1 0 1 -1
      SOFFS 0 0
      PLAYRATE 1 1 0 -1 0 0.0025
      CHANMODE 0
      GUID {6358DDB2-7477-42B5-B1D9-3E45DE48983E}
      <SOURCE MIDI
        HASDATA 1 960 QN
        CCINTERP 32
        POOLEDEVTS {1E4213CE-886D-48F6-B573-BF8AB543855E}
        <X 0 0 0 0 3 "Variation 03"
          /wNWYXJpYXRpb24gMDM=
        >
        E 0 90 3a 60
        E 0 90 24 60
        E 120 80 3a 00
        E 0 80 24 00
        e 840 90 3c 60
        E 0 90 26 60
        e 120 80 3c 00
        E 0 80 26 00
        e 840 90 3c 60
        E 0 90 24 60
        e 120 80 3c 00
        E 0 80 24 00
        E 360 90 24 60
        E 120 80 24 00
        e 360 90 3c 60
        E 0 90 26 60
        e 120 80 3c 00
        E 0 80 26 00
        E 840 90 26 60
        E 120 80 26 00
        E 3728 90 3e 2f
        E 120 90 3e 00
        E 339 90 24 5d
        E 19 90 3e 23
        E 102 90 24 00
        E 19 90 3e 00
        E 99 90 26 0d
        E 121 90 26 00
        E 6 90 26 12
        E 120 90 26 00
        E 1 90 24 6b
        E 24 90 3e 51
        E 97 90 24 00
        E 23 90 3e 00
        E 347 90 3e 1f
        E 120 90 3e 00
        E 120 90 26 16
        E 121 90 26 00
        E 122 90 3e 45
        E 121 90 3e 00
        E 356 90 26 78
        E 14 90 3e 76
        E 106 90 26 00
        E 14 90 3e 00
        E 97 90 26 38
        E 120 90 26 00
        E 140 90 3e 24
        E 120 90 3e 00
        E 357 90 3e 2a
        E 2 90 24 49
        E 118 90 3e 00
        E 3 90 24 00
        E 344 90 24 73
        E 18 90 3f 54
        E 102 90 24 00
        E 18 90 3f 00
        E 356 90 3e 20
        E 120 90 3e 00
        E 118 90 3e 13
        E 119 90 3e 00
        E 116 90 3f 59
        E 120 90 3f 00
        E 344 90 26 79
        E 11 90 3e 72
        E 109 90 26 00
        E 11 90 3e 00
        E 356 90 3f 2d
        E 120 90 3f 00
        E 341 90 24 5a
        E 14 90 3f 3b
        E 106 90 24 00
        E 14 90 3f 00
        E 361 90 24 74
        E 14 90 3f 4f
        E 106 90 24 00
        E 14 90 3f 00
        E 355 90 3e 2b
        E 120 90 3e 00
        E 124 90 26 18
        E 120 90 26 00
        E 114 90 3f 46
        E 119 90 3f 00
        E 361 90 26 79
        E 9 90 3f 74
        E 111 90 26 00
        E 9 90 3f 00
        E 358 90 3f 27
        E 120 90 3f 00
        E 353 90 26 30
        E 3 90 1a 76
        E 117 90 26 00
        E 3 90 1a 00
        E 356 90 24 74
        E 14 90 3f 3a
        E 106 90 24 00
        E 14 90 3f 00
        E 354 90 3e 2a
        E 120 90 3e 00
        E 124 90 3e 1c
        E 120 90 3e 00
        E 107 90 3f 40
        E 120 90 3f 00
        E 135 90 26 07
        E 120 90 26 00
        E 107 90 26 77
        E 12 90 3e 78
        E 108 90 26 00
        E 12 90 3e 00
        E 93 90 26 2d
        E 120 90 26 00
        E 127 90 3f 2d
        E 120 90 3f 00
        E 362 90 24 5d
        E 10 90 3f 37
        E 110 90 24 00
        E 10 90 3f 00
        E 120 90 26 12
        E 120 90 26 00
        E 101 90 24 76
        E 20 90 3e 49
        E 100 90 24 00
        E 20 90 3e 00
        E 359 90 3e 2a
        E 121 90 3e 00
        E 123 90 3f 22
        E 120 90 3f 00
        E 116 90 3e 56
        E 120 90 3e 00
        E 350 90 26 7c
        E 8 90 3e 74
        E 112 90 26 00
        E 8 90 3e 00
        E 355 90 26 40
        E 15 90 19 49
        E 105 90 26 00
        E 15 90 19 00
        E 827 b0 7b 00
        CCINTERP 32
        CHASE_CC_TAKEOFFS 1
        GUID {B0E45400-B4DF-4198-AB32-B66C174737D8}
        IGNTEMPO 0 120 4 4
        SRCCOLOR 1
        VELLANE -1 100 0
        CFGEDITVIEW -272554.231293 0.435092 62 12 0 -1 0 0 0 0.5
        KEYSNAP 0
        TRACKSEL 0
        EVTFILTER 0 -1 -1 -1 -1 0 0 0 0 -1 -1 -1 -1 0 -1 0 -1 -1
        CFGEDIT 1 1 0 1 0 16 1 1 1 1 1 0.125 90 53 1854 760 0 0 0 0 0 0 0 1 0 0.5 0 0 1 64
      >
    >
    <ITEM
      POSITION 146
      SNAPOFFS 0
      LENGTH 2
      LOOP 1
      ALLTAKES 0
      FADEIN 1 0 0 1 0 0
      FADEOUT 1 0 0 1 0 0
      MUTE 0 0
      COLOR 27085204 R
      SEL 0
      IGUID {5CB4A48D-4811-49D4-8E04-D408B0D3EB40}
      IID 2
      NAME "Variation 03 - Variation_03.mid"
      VOLPAN 1 0 1 -1
      SOFFS 0 0
      PLAYRATE 1 1 0 -1 0 0.0025
      CHANMODE 0
      GUID {B5D13805-E97C-4657-9138-D5FB8281BE57}
      <SOURCE MIDI
        HASDATA 1 960 QN
        CCINTERP 32
        POOLEDEVTS {D594B699-EB57-4929-A801-2C2E426FBCB0}
        <X 0 0 0 0 3 "Variation 03"
          /wNWYXJpYXRpb24gMDM=
        >
        E 0 90 3b 60
        E 0 90 39 60
        E 0 90 35 60
        E 0 90 34 60
        E 0 90 24 60
        E 120 80 3b 00
        E 0 80 39 00
        E 0 80 35 00
        E 0 80 34 00
        E 0 80 24 00
        E 840 90 2f 60
        E 0 90 2b 60
        E 120 80 2f 00
        E 0 80 2b 00
        E 360 90 2f 60
        E 0 90 2b 60
        E 120 80 2f 00
        E 0 80 2b 00
        E 360 90 3b 60
        E 0 90 39 60
        E 0 90 35 60
        E 0 90 34 60
        E 0 90 24 60
        E 120 80 3b 00
        E 0 80 39 00
        E 0 80 35 00
        E 0 80 34 00
        E 0 80 24 00
        E 360 90 24 60
        E 120 80 24 00
        E 360 90 26 60
        E 120 80 26 00
        E 360 90 39 60
        E 0 90 24 60
        E 120 80 39 00
        E 0 80 24 00
        E 120 90 24 60
        E 0 90 3b 60
        E 120 80 24 00
        E 0 80 3b 00
        E 120 90 24 60
        E 0 90 38 60
        E 120 80 24 00
        E 0 80 38 00
        E 3728 90 3e 2f
        E 120 90 3e 00
        E 339 90 24 5d
        E 19 90 3e 23
        E 102 90 24 00
        E 19 90 3e 00
        E 99 90 26 0d
        E 121 90 26 00
        E 6 90 26 12
        E 120 90 26 00
        E 1 90 24 6b
        E 24 90 3e 51
        E 97 90 24 00
        E 23 90 3e 00
        E 347 90 3e 1f
        E 120 90 3e 00
        E 120 90 26 16
        E 121 90 26 00
        E 122 90 3e 45
        E 121 90 3e 00
        E 356 90 26 78
        E 14 90 3e 76
        E 106 90 26 00
        E 14 90 3e 00
        E 97 90 26 38
        E 120 90 26 00
        E 140 90 3e 24
        E 120 90 3e 00
        E 357 90 3e 2a
        E 2 90 24 49
        E 118 90 3e 00
        E 3 90 24 00
        E 344 90 24 73
        E 18 90 3f 54
        E 102 90 24 00
        E 18 90 3f 00
        E 356 90 3e 20
        E 120 90 3e 00
        E 118 90 3e 13
        E 119 90 3e 00
        E 116 90 3f 59
        E 120 90 3f 00
        E 344 90 26 79
        E 11 90 3e 72
        E 109 90 26 00
        E 11 90 3e 00
        E 356 90 3f 2d
        E 120 90 3f 00
        E 341 90 24 5a
        E 14 90 3f 3b
        E 106 90 24 00
        E 14 90 3f 00
        E 361 90 24 74
        E 14 90 3f 4f
        E 106 90 24 00
        E 14 90 3f 00
        E 355 90 3e 2b
        E 120 90 3e 00
        E 124 90 26 18
        E 120 90 26 00
        E 114 90 3f 46
        E 119 90 3f 00
        E 361 90 26 79
        E 9 90 3f 74
        E 111 90 26 00
        E 9 90 3f 00
        E 358 90 3f 27
        E 120 90 3f 00
        E 353 90 26 30
        E 3 90 1a 76
        E 117 90 26 00
        E 3 90 1a 00
        E 356 90 24 74
        E 14 90 3f 3a
        E 106 90 24 00
        E 14 90 3f 00
        E 354 90 3e 2a
        E 120 90 3e 00
        E 124 90 3e 1c
        E 120 90 3e 00
        E 107 90 3f 40
        E 120 90 3f 00
        E 135 90 26 07
        E 120 90 26 00
        E 107 90 26 77
        E 12 90 3e 78
        E 108 90 26 00
        E 12 90 3e 00
        E 93 90 26 2d
        E 120 90 26 00
        E 127 90 3f 2d
        E 120 90 3f 00
        E 362 90 24 5d
        E 10 90 3f 37
        E 110 90 24 00
        E 10 90 3f 00
        E 120 90 26 12
        E 120 90 26 00
        E 101 90 24 76
        E 20 90 3e 49
        E 100 90 24 00
        E 20 90 3e 00
        E 359 90 3e 2a
        E 121 90 3e 00
        E 123 90 3f 22
        E 120 90 3f 00
        E 116 90 3e 56
        E 120 90 3e 00
        E 350 90 26 7c
        E 8 90 3e 74
        E 112 90 26 00
        E 8 90 3e 00
        E 355 90 26 40
        E 15 90 19 49
        E 105 90 26 00
        E 15 90 19 00
        E 827 b0 7b 00
        CCINTERP 32
        CHASE_CC_TAKEOFFS 1
        GUID {B0E45400-B4DF-4198-AB32-B66C174737D8}
        IGNTEMPO 0 120 4 4
        SRCCOLOR 1
        VELLANE -1 100 0
        CFGEDITVIEW -276394.231293 0.435092 62 12 0 -1 0 0 0 0.5
        KEYSNAP 0
        TRACKSEL 0
        EVTFILTER 0 -1 -1 -1 -1 0 0 0 0 -1 -1 -1 -1 0 -1 0 -1 -1
        CFGEDIT 1 1 0 1 0 16 1 1 1 1 1 0.125 90 53 1854 760 0 0 0 0 0 0 0 1 0 0.5 0 0 1 64
      >
    >
  >
>
